NotoSansGrantha-Regular.ufo
<glyph name="udatta_deva" format="2">
  <unicode hex="0951"/>
  <anchor x="-130" y="590" name="_top"/>
  <outline>
    <contour>
      <point x="-92" y="671" type="line"/>
      <point x="-92" y="921" type="line"/>
      <point x="-168" y="921" type="line"/>
      <point x="-168" y="671" type="line"/>
    </contour>
  </outline>
</glyph>
<glyph name="anudatta_deva" format="2">
  <unicode hex="0952"/>
  <outline>
    <contour>
      <point x="-413" y="-77" type="line"/>
      <point x="-413" y="-149" type="line"/>
      <point x="-84" y="-149" type="line"/>
      <point x="-84" y="-77" type="line"/>
    </contour>
  </outline>
</glyph>
<glyph name="dbldanda_deva" format="2">
  <advance width="599"/>
  <unicode hex="0965"/>
  <outline>
    <contour>
      <point x="414" y="622" type="line"/>
      <point x="414" y="0" type="line"/>
      <point x="500" y="0" type="line"/>
      <point x="500" y="622" type="line"/>
    </contour>
    <contour>
      <point x="194" y="622" type="line"/>
      <point x="194" y="0" type="line"/>
      <point x="280" y="0" type="line"/>
      <point x="280" y="622" type="line"/>
    </contour>
  </outline>
</glyph>
<glyph name="pa_tamil" format="2">
  <advance width="778"/>
  <unicode hex="0BAA"/>
  <outline>
    <contour>
      <point x="88" y="0" type="line"/>
      <point x="690" y="0" type="line"/>
      <point x="690" y="554" type="line"/>
      <point x="604" y="554" type="line"/>
      <point x="604" y="72" type="line"/>
      <point x="174" y="72" type="line"/>
      <point x="174" y="554" type="line"/>
      <point x="88" y="554" type="line"/>
    </contour>
  </outline>
</glyph>
<glyph name="zero_tamil" format="2">
  <advance width="650"/>
  <unicode hex="0BE6"/>
  <anchor x="325" y="900" name="svara"/>
  <anchor x="325" y="640" name="top"/>
  <outline>
    <contour>
      <point x="327" y="-12" type="curve" smooth="yes"/>
      <point x="484" y="-12"/>
      <point x="591" y="105"/>
      <point x="591" y="279" type="curve" smooth="yes"/>
      <point x="591" y="432"/>
      <point x="500" y="566"/>
      <point x="326" y="566" type="curve" smooth="yes"/>
      <point x="168" y="566"/>
      <point x="59" y="454"/>
      <point x="59" y="279" type="curve" smooth="yes"/>
      <point x="59" y="103"/>
      <point x="167" y="-12"/>
    </contour>
    <contour>
      <point x="326" y="493" type="curve" smooth="yes"/>
      <point x="435" y="493"/>
      <point x="502" y="411"/>
      <point x="502" y="278" type="curve" smooth="yes"/>
      <point x="502" y="142"/>
      <point x="435" y="61"/>
      <point x="325" y="61" type="curve" smooth="yes"/>
      <point x="212" y="61"/>
      <point x="148" y="146"/>
      <point x="148" y="278" type="curve" smooth="yes"/>
      <point x="148" y="410"/>
      <point x="213" y="493"/>
    </contour>
  </outline>
</glyph>
<glyph name="five_tamil" format="2">
  <advance width="1051"/>
  <unicode hex="0BEB"/>
  <outline>
    <contour>
      <point x="559" y="-321" type="curve" smooth="yes"/>
      <point x="570" y="-321" type="line"/>
      <point x="795" y="-321"/>
      <point x="1002" y="-198"/>
      <point x="1002" y="84" type="curve" smooth="yes"/>
      <point x="1002" y="228"/>
      <point x="928" y="319"/>
      <point x="820" y="319" type="curve" smooth="yes"/>
      <point x="771" y="319"/>
      <point x="733" y="302"/>
      <point x="708" y="284" type="curve"/>
      <point x="708" y="211" type="line"/>
      <point x="735" y="229"/>
      <point x="768" y="247"/>
      <point x="805" y="247" type="curve" smooth="yes"/>
      <point x="875" y="247"/>
      <point x="914" y="190"/>
      <point x="914" y="84" type="curve" smooth="yes"/>
      <point x="914" y="-138"/>
      <point x="773" y="-244"/>
      <point x="570" y="-244" type="curve" smooth="yes"/>
      <point x="559" y="-244" type="line" smooth="yes"/>
      <point x="277" y="-244"/>
      <point x="154" y="-41"/>
      <point x="154" y="244" type="curve" smooth="yes"/>
      <point x="154" y="256" type="line" smooth="yes"/>
      <point x="154" y="596"/>
      <point x="348" y="768"/>
      <point x="583" y="768" type="curve" smooth="yes"/>
      <point x="741" y="768"/>
      <point x="846" y="716"/>
      <point x="939" y="652" type="curve"/>
      <point x="985" y="724" type="line"/>
      <point x="873" y="790"/>
      <point x="760" y="843"/>
      <point x="587" y="843" type="curve" smooth="yes"/>
      <point x="207" y="843"/>
      <point x="68" y="523"/>
      <point x="68" y="279" type="curve" smooth="yes"/>
      <point x="68" y="231" type="line" smooth="yes"/>
      <point x="68" y="-73"/>
      <point x="217" y="-321"/>
    </contour>
    <contour>
      <point x="361" y="0" type="line"/>
      <point x="447" y="0" type="line"/>
      <point x="447" y="482" type="line"/>
      <point x="622" y="482" type="line"/>
      <point x="622" y="0" type="line"/>
      <point x="708" y="0" type="line"/>
      <point x="708" y="482" type="line"/>
      <point x="883" y="482" type="line"/>
      <point x="883" y="554" type="line"/>
      <point x="361" y="554" type="line"/>
    </contour>
  </outline>
</glyph>
<glyph name="six_tamil" format="2">
  <advance width="1006"/>
  <unicode hex="0BEC"/>
  <outline>
    <contour>
      <point x="261" y="-12" type="curve" smooth="yes"/>
      <point x="345" y="-12"/>
      <point x="411" y="6"/>
      <point x="452" y="57" type="curve" smooth="yes"/>
      <point x="480" y="91"/>
      <point x="496" y="137"/>
      <point x="496" y="226" type="curve" smooth="yes"/>
      <point x="496" y="482" type="line"/>
      <point x="683" y="482" type="line"/>
      <point x="683" y="554" type="line"/>
      <point x="160" y="554" type="line"/>
      <point x="160" y="286" type="line"/>
      <point x="239" y="302" type="line"/>
      <point x="239" y="482" type="line"/>
      <point x="411" y="482" type="line"/>
      <point x="411" y="213" type="line" smooth="yes"/>
      <point x="411" y="94"/>
      <point x="356" y="60"/>
      <point x="269" y="60" type="curve" smooth="yes"/>
      <point x="192" y="60"/>
      <point x="135" y="91"/>
      <point x="135" y="153" type="curve" smooth="yes"/>
      <point x="135" y="191"/>
      <point x="149" y="215"/>
      <point x="178" y="232" type="curve" smooth="yes"/>
      <point x="211" y="251"/>
      <point x="257" y="258"/>
      <point x="325" y="258" type="curve" smooth="yes"/>
      <point x="985" y="258" type="line"/>
      <point x="985" y="328" type="line"/>
      <point x="332" y="328" type="line" smooth="yes"/>
      <point x="129" y="328"/>
      <point x="49" y="259"/>
      <point x="49" y="152" type="curve" smooth="yes"/>
      <point x="49" y="47"/>
      <point x="140" y="-12"/>
    </contour>
    <contour>
      <point x="615" y="0" type="line"/>
      <point x="696" y="0" type="line"/>
      <point x="696" y="267" type="line"/>
      <point x="615" y="275" type="line"/>
    </contour>
    <contour>
      <point x="815" y="0" type="line"/>
      <point x="896" y="0" type="line"/>
      <point x="896" y="267" type="line"/>
      <point x="815" y="275" type="line"/>
    </contour>
  </outline>
</glyph>
<glyph name="eight_tamil" format="2">
  <advance width="1121"/>
  <unicode hex="0BEE"/>
  <anchor x="531" y="900" name="svara"/>
  <anchor x="531" y="640" name="top"/>
  <outline>
    <contour>
      <point x="321" y="-124" type="curve" smooth="yes"/>
      <point x="340" y="-124" type="line"/>
      <point x="565" y="-124"/>
      <point x="742" y="-36"/>
      <point x="799" y="128" type="curve"/>
      <point x="804" y="150" type="line"/>
      <point x="813" y="182"/>
      <point x="816" y="215"/>
      <point x="816" y="252" type="curve" smooth="yes"/>
      <point x="816" y="422"/>
      <point x="714" y="566"/>
      <point x="523" y="566" type="curve" smooth="yes"/>
      <point x="381" y="566"/>
      <point x="297" y="485"/>
      <point x="297" y="366" type="curve" smooth="yes"/>
      <point x="297" y="251"/>
      <point x="379" y="172"/>
      <point x="471" y="112" type="curve"/>
      <point x="521" y="159" type="line"/>
      <point x="452" y="202"/>
      <point x="385" y="270"/>
      <point x="385" y="362" type="curve" smooth="yes"/>
      <point x="385" y="453"/>
      <point x="448" y="493"/>
      <point x="522" y="493" type="curve" smooth="yes"/>
      <point x="647" y="493"/>
      <point x="730" y="392"/>
      <point x="730" y="251" type="curve" smooth="yes"/>
      <point x="730" y="217"/>
      <point x="726" y="183"/>
      <point x="713" y="150" type="curve"/>
      <point x="710" y="130" type="line"/>
      <point x="662" y="26"/>
      <point x="545" y="-51"/>
      <point x="344" y="-51" type="curve" smooth="yes"/>
      <point x="327" y="-51" type="line" smooth="yes"/>
      <point x="184" y="-51"/>
      <point x="114" y="-9"/>
      <point x="114" y="56" type="curve" smooth="yes"/>
      <point x="114" y="71"/>
      <point x="120" y="83"/>
      <point x="129" y="90" type="curve" smooth="yes"/>
      <point x="144" y="101"/>
      <point x="154" y="104"/>
      <point x="217" y="104" type="curve" smooth="yes"/>
      <point x="956" y="104" type="line"/>
      <point x="953" y="176" type="line"/>
      <point x="206" y="176" type="line" smooth="yes"/>
      <point x="125" y="176"/>
      <point x="99" y="166"/>
      <point x="74" y="149" type="curve" smooth="yes"/>
      <point x="43" y="128"/>
      <point x="29" y="93"/>
      <point x="29" y="60" type="curve" smooth="yes"/>
      <point x="29" y="-48"/>
      <point x="127" y="-124"/>
    </contour>
    <contour>
      <point x="947" y="-154" type="line"/>
      <point x="1033" y="-154" type="line"/>
      <point x="1033" y="554" type="line"/>
      <point x="947" y="554" type="line"/>
    </contour>
  </outline>
</glyph>
<glyph name="nine_tamil" format="2">
  <advance width="1155"/>
  <unicode hex="0BEF"/>
  <anchor x="577" y="900" name="svara"/>
  <anchor x="577" y="640" name="top"/>
  <outline>
    <contour>
      <point x="261" y="-12" type="curve" smooth="yes"/>
      <point x="345" y="-12"/>
      <point x="411" y="6"/>
      <point x="452" y="57" type="curve" smooth="yes"/>
      <point x="480" y="91"/>
      <point x="496" y="137"/>
      <point x="496" y="226" type="curve" smooth="yes"/>
      <point x="496" y="482" type="line"/>
      <point x="683" y="482" type="line"/>
      <point x="683" y="554" type="line"/>
      <point x="160" y="554" type="line"/>
      <point x="160" y="286" type="line"/>
      <point x="239" y="302" type="line"/>
      <point x="239" y="482" type="line"/>
      <point x="411" y="482" type="line"/>
      <point x="411" y="213" type="line" smooth="yes"/>
      <point x="411" y="94"/>
      <point x="356" y="60"/>
      <point x="269" y="60" type="curve" smooth="yes"/>
      <point x="192" y="60"/>
      <point x="135" y="91"/>
      <point x="135" y="153" type="curve" smooth="yes"/>
      <point x="135" y="191"/>
      <point x="149" y="215"/>
      <point x="178" y="232" type="curve" smooth="yes"/>
      <point x="211" y="251"/>
      <point x="257" y="258"/>
      <point x="325" y="258" type="curve" smooth="yes"/>
      <point x="582" y="258" type="line"/>
      <point x="586" y="328" type="line"/>
      <point x="332" y="328" type="line" smooth="yes"/>
      <point x="129" y="328"/>
      <point x="49" y="259"/>
      <point x="49" y="152" type="curve" smooth="yes"/>
      <point x="49" y="47"/>
      <point x="140" y="-12"/>
    </contour>
    <contour>
      <point x="765" y="-12" type="curve" smooth="yes"/>
      <point x="865" y="-12"/>
      <point x="908" y="50"/>
      <point x="908" y="140" type="curve" smooth="yes"/>
      <point x="908" y="250"/>
      <point x="827" y="305"/>
      <point x="723" y="318" type="curve"/>
      <point x="718" y="324" type="line"/>
      <point x="697" y="327"/>
      <point x="681" y="328"/>
      <point x="661" y="328" type="curve" smooth="yes"/>
      <point x="567" y="328" type="line"/>
      <point x="566" y="258" type="line"/>
      <point x="685" y="258" type="line" smooth="yes"/>
      <point x="753" y="258"/>
      <point x="831" y="225"/>
      <point x="831" y="137" type="curve" smooth="yes"/>
      <point x="831" y="87"/>
      <point x="810" y="56"/>
      <point x="764" y="56" type="curve" smooth="yes"/>
      <point x="714" y="56"/>
      <point x="679" y="81"/>
      <point x="679" y="145" type="curve" smooth="yes"/>
      <point x="679" y="199"/>
      <point x="697" y="240"/>
      <point x="726" y="267" type="curve"/>
      <point x="731" y="278" type="line"/>
      <point x="766" y="307"/>
      <point x="812" y="316"/>
      <point x="865" y="316" type="curve" smooth="yes"/>
      <point x="956" y="316"/>
      <point x="1020" y="268"/>
      <point x="1020" y="173" type="curve" smooth="yes"/>
      <point x="1020" y="121"/>
      <point x="1005" y="78"/>
      <point x="971" y="31" type="curve"/>
      <point x="1040" y="-12" type="line"/>
      <point x="1082" y="50"/>
      <point x="1106" y="104"/>
      <point x="1106" y="179" type="curve" smooth="yes"/>
      <point x="1106" y="296"/>
      <point x="1029" y="386"/>
      <point x="867" y="386" type="curve" smooth="yes"/>
      <point x="770" y="386"/>
      <point x="687" y="344"/>
      <point x="641" y="276" type="curve"/>
      <point x="637" y="261" type="line"/>
      <point x="617" y="230"/>
      <point x="604" y="193"/>
      <point x="604" y="152" type="curve" smooth="yes"/>
      <point x="604" y="35"/>
      <point x="678" y="-12"/>
    </contour>
  </outline>
</glyph>
<glyph name="onethousand_tamil" format="2">
  <advance width="972"/>
  <unicode hex="0BF2"/>
  <outline>
    <contour>
      <point x="817" y="174" type="curve" smooth="yes"/>
      <point x="768" y="174"/>
      <point x="741" y="164"/>
      <point x="707" y="145" type="curve"/>
      <point x="711" y="81" type="line"/>
      <point x="733" y="95"/>
      <point x="757" y="108"/>
      <point x="791" y="108" type="curve" smooth="yes"/>
      <point x="848" y="108"/>
      <point x="869" y="64"/>
      <point x="869" y="26" type="curve" smooth="yes"/>
      <point x="869" y="-7"/>
      <point x="861" y="-31"/>
      <point x="840" y="-49" type="curve" smooth="yes"/>
      <point x="812" y="-73"/>
      <point x="770" y="-84"/>
      <point x="665" y="-84" type="curve" smooth="yes"/>
      <point x="245" y="-84" type="line" smooth="yes"/>
      <point x="178" y="-84"/>
      <point x="139" y="-94"/>
      <point x="104" y="-119" type="curve" smooth="yes"/>
      <point x="70" y="-144"/>
      <point x="47" y="-184"/>
      <point x="47" y="-243" type="curve" smooth="yes"/>
      <point x="47" y="-266"/>
      <point x="50" y="-297"/>
      <point x="54" y="-321" type="curve"/>
      <point x="136" y="-317" type="line"/>
      <point x="134" y="-301"/>
      <point x="133" y="-283"/>
      <point x="133" y="-263" type="curve" smooth="yes"/>
      <point x="133" y="-219"/>
      <point x="145" y="-194"/>
      <point x="167" y="-179" type="curve" smooth="yes"/>
      <point x="189" y="-164"/>
      <point x="216" y="-156"/>
      <point x="272" y="-156" type="curve" smooth="yes"/>
      <point x="673" y="-156" type="line" smooth="yes"/>
      <point x="778" y="-156"/>
      <point x="854" y="-143"/>
      <point x="903" y="-99" type="curve" smooth="yes"/>
      <point x="935" y="-70"/>
      <point x="955" y="-29"/>
      <point x="955" y="33" type="curve" smooth="yes"/>
      <point x="955" y="114"/>
      <point x="896" y="174"/>
    </contour>
    <contour>
      <point x="261" y="-12" type="curve" smooth="yes"/>
      <point x="345" y="-12"/>
      <point x="411" y="6"/>
      <point x="452" y="57" type="curve" smooth="yes"/>
      <point x="480" y="91"/>
      <point x="496" y="137"/>
      <point x="496" y="226" type="curve" smooth="yes"/>
      <point x="496" y="482" type="line"/>
      <point x="683" y="482" type="line"/>
      <point x="683" y="554" type="line"/>
      <point x="160" y="554" type="line"/>
      <point x="160" y="286" type="line"/>
      <point x="239" y="302" type="line"/>
      <point x="239" y="482" type="line"/>
      <point x="411" y="482" type="line"/>
      <point x="411" y="213" type="line" smooth="yes"/>
      <point x="411" y="94"/>
      <point x="356" y="60"/>
      <point x="269" y="60" type="curve" smooth="yes"/>
      <point x="192" y="60"/>
      <point x="135" y="91"/>
      <point x="135" y="153" type="curve" smooth="yes"/>
      <point x="135" y="191"/>
      <point x="149" y="215"/>
      <point x="178" y="232" type="curve" smooth="yes"/>
      <point x="211" y="251"/>
      <point x="257" y="258"/>
      <point x="325" y="258" type="curve" smooth="yes"/>
      <point x="843" y="258" type="line"/>
      <point x="843" y="328" type="line"/>
      <point x="332" y="328" type="line" smooth="yes"/>
      <point x="129" y="328"/>
      <point x="49" y="259"/>
      <point x="49" y="152" type="curve" smooth="yes"/>
      <point x="49" y="47"/>
      <point x="140" y="-12"/>
    </contour>
    <contour>
      <point x="632" y="0" type="line"/>
      <point x="714" y="0" type="line"/>
      <point x="714" y="267" type="line"/>
      <point x="632" y="275" type="line"/>
    </contour>
  </outline>
</glyph>
<glyph name="karshana_vedic" format="2">
  <unicode hex="1CD0"/>
  <outline>
    <contour>
      <point x="-375" y="649" type="line"/>
      <point x="-311" y="624" type="line"/>
      <point x="-198" y="837" type="line"/>
      <point x="-71" y="624" type="line"/>
      <point x="-12" y="651" type="line"/>
      <point x="-166" y="898" type="line"/>
      <point x="-237" y="898" type="line"/>
    </contour>
  </outline>
</glyph>
<glyph name="prenkha_vedic" format="2">
  <unicode hex="1CD2"/>
  <outline>
    <contour>
      <point x="-361" y="703" type="line"/>
      <point x="-361" y="636" type="line"/>
      <point x="-28" y="636" type="line"/>
      <point x="-28" y="703" type="line"/>
    </contour>
  </outline>
</glyph>
<glyph name="nihshvasa_vedic" format="2">
  <unicode hex="1CD3"/>
  <outline>
    <contour>
      <point x="-137" y="904" type="line"/>
      <point x="-166" y="667" type="line"/>
      <point x="-98" y="667" type="line"/>
      <point x="-68" y="904" type="line"/>
    </contour>
    <contour>
      <point x="-261" y="904" type="line"/>
      <point x="-290" y="667" type="line"/>
      <point x="-222" y="667" type="line"/>
      <point x="-193" y="904" type="line"/>
    </contour>
  </outline>
</glyph>
<glyph name="ardhavisarga_vedic" format="2">
  <advance width="521"/>
  <unicode hex="1CF2"/>
  <outline>
    <contour>
      <point x="471" y="529" type="curve"/>
      <point x="395" y="545" type="line"/>
      <point x="373" y="455"/>
      <point x="339" y="405"/>
      <point x="263" y="405" type="curve" smooth="yes"/>
      <point x="187" y="405"/>
      <point x="153" y="455"/>
      <point x="131" y="545" type="curve"/>
      <point x="55" y="529" type="line"/>
      <point x="86" y="385"/>
      <point x="173" y="336"/>
      <point x="263" y="336" type="curve" smooth="yes"/>
      <point x="353" y="336"/>
      <point x="440" y="385"/>
    </contour>
    <contour>
      <point x="471" y="25" type="line"/>
      <point x="440" y="169"/>
      <point x="353" y="218"/>
      <point x="263" y="218" type="curve" smooth="yes"/>
      <point x="173" y="218"/>
      <point x="86" y="169"/>
      <point x="55" y="25" type="curve"/>
      <point x="131" y="9" type="line"/>
      <point x="153" y="99"/>
      <point x="187" y="149"/>
      <point x="263" y="149" type="curve" smooth="yes"/>
      <point x="339" y="149"/>
      <point x="373" y="99"/>
      <point x="395" y="9" type="curve"/>
    </contour>
  </outline>
</glyph>
<glyph name="rotatedArdhavisarga_vedic" format="2">
  <advance width="635"/>
  <unicode hex="1CF3"/>
  <outline>
    <contour>
      <point x="487" y="50" type="curve"/>
      <point x="522" y="104" type="line"/>
      <point x="462" y="132"/>
      <point x="419" y="194"/>
      <point x="419" y="270" type="curve" smooth="yes"/>
      <point x="419" y="352"/>
      <point x="469" y="418"/>
      <point x="537" y="441" type="curve"/>
      <point x="502" y="495" type="line"/>
      <point x="408" y="462"/>
      <point x="348" y="376"/>
      <point x="348" y="270" type="curve" smooth="yes"/>
      <point x="348" y="170"/>
      <point x="401" y="87"/>
    </contour>
    <contour>
      <point x="148" y="50" type="line"/>
      <point x="234" y="87"/>
      <point x="287" y="170"/>
      <point x="287" y="270" type="curve" smooth="yes"/>
      <point x="287" y="376"/>
      <point x="227" y="462"/>
      <point x="133" y="495" type="curve"/>
      <point x="98" y="441" type="line"/>
      <point x="166" y="418"/>
      <point x="216" y="352"/>
      <point x="216" y="270" type="curve" smooth="yes"/>
      <point x="216" y="194"/>
      <point x="173" y="132"/>
      <point x="113" y="104" type="curve"/>
    </contour>
  </outline>
</glyph>
<glyph name="tonecandraabove_vedic" format="2">
  <unicode hex="1CF4"/>
  <anchor x="-135" y="629" name="_top"/>
  <outline>
    <contour>
      <point x="73" y="893" type="curve"/>
      <point x="-3" y="899" type="line"/>
      <point x="-25" y="799"/>
      <point x="-59" y="749"/>
      <point x="-135" y="749" type="curve" smooth="yes"/>
      <point x="-211" y="749"/>
      <point x="-245" y="799"/>
      <point x="-267" y="899" type="curve"/>
      <point x="-343" y="893" type="line"/>
      <point x="-312" y="729"/>
      <point x="-225" y="680"/>
      <point x="-135" y="680" type="curve" smooth="yes"/>
      <point x="-45" y="680"/>
      <point x="42" y="729"/>
    </contour>
  </outline>
</glyph>
<glyph name="asteriskabovecomb" format="2">
  <unicode hex="20F0"/>
  <outline>
    <contour>
      <point x="-165" y="882" type="line"/>
      <point x="-152" y="812" type="line"/>
      <point x="-214" y="846" type="line"/>
      <point x="-236" y="780" type="line"/>
      <point x="-166" y="770" type="line"/>
      <point x="-217" y="722" type="line"/>
      <point x="-161" y="680" type="line"/>
      <point x="-130" y="744" type="line"/>
      <point x="-99" y="680" type="line"/>
      <point x="-43" y="722" type="line"/>
      <point x="-94" y="770" type="line"/>
      <point x="-24" y="780" type="line"/>
      <point x="-46" y="846" type="line"/>
      <point x="-108" y="812" type="line"/>
      <point x="-95" y="882" type="line"/>
    </contour>
  </outline>
</glyph>
<glyph name="anusvaraAbove_gran" format="2">
  <unicode hex="11300"/>
  <anchor x="-194" y="590" name="_top"/>
  <outline>
    <contour>
      <point x="-314" y="770" type="curve" smooth="yes"/>
      <point x="-314" y="699"/>
      <point x="-265" y="650"/>
      <point x="-194" y="650" type="curve" smooth="yes"/>
      <point x="-123" y="650"/>
      <point x="-74" y="699"/>
      <point x="-74" y="770" type="curve" smooth="yes"/>
      <point x="-74" y="841"/>
      <point x="-123" y="891"/>
      <point x="-194" y="891" type="curve" smooth="yes"/>
      <point x="-265" y="891"/>
      <point x="-314" y="841"/>
    </contour>
    <contour>
      <point x="-254" y="770" type="curve" smooth="yes"/>
      <point x="-254" y="807"/>
      <point x="-230" y="833"/>
      <point x="-194" y="833" type="curve" smooth="yes"/>
      <point x="-159" y="833"/>
      <point x="-134" y="807"/>
      <point x="-134" y="770" type="curve" smooth="yes"/>
      <point x="-134" y="734"/>
      <point x="-159" y="708"/>
      <point x="-194" y="708" type="curve" smooth="yes"/>
      <point x="-230" y="708"/>
      <point x="-254" y="734"/>
    </contour>
  </outline>
</glyph>
<glyph name="candrabindu_gran" format="2">
  <unicode hex="11301"/>
  <anchor x="-282" y="590" name="_top"/>
  <anchor x="-282" y="990" name="top"/>
  <outline>
    <contour>
      <point x="-331" y="817" type="curve" smooth="yes"/>
      <point x="-331" y="789"/>
      <point x="-309" y="767"/>
      <point x="-282" y="767" type="curve" smooth="yes"/>
      <point x="-254" y="767"/>
      <point x="-232" y="789"/>
      <point x="-232" y="817" type="curve" smooth="yes"/>
      <point x="-232" y="845"/>
      <point x="-254" y="866"/>
      <point x="-282" y="866" type="curve" smooth="yes"/>
      <point x="-309" y="866"/>
      <point x="-331" y="845"/>
    </contour>
    <contour>
      <point x="-74" y="833" type="curve"/>
      <point x="-148" y="857" type="line"/>
      <point x="-164" y="785"/>
      <point x="-196" y="717"/>
      <point x="-278" y="717" type="curve" smooth="yes"/>
      <point x="-360" y="717"/>
      <point x="-410" y="785"/>
      <point x="-426" y="857" type="curve"/>
      <point x="-495" y="833" type="line"/>
      <point x="-478" y="737"/>
      <point x="-397" y="650"/>
      <point x="-281" y="650" type="curve" smooth="yes"/>
      <point x="-165" y="650"/>
      <point x="-91" y="737"/>
    </contour>
  </outline>
</glyph>
<glyph name="anusvara_gran" format="2">
  <unicode hex="11302"/>
  <outline>
    <contour>
      <point x="60" y="192" type="curve" smooth="yes"/>
      <point x="60" y="60"/>
      <point x="145" y="-22"/>
      <point x="264" y="-22" type="curve" smooth="yes"/>
      <point x="384" y="-22"/>
      <point x="469" y="60"/>
      <point x="469" y="192" type="curve" smooth="yes"/>
      <point x="469" y="325"/>
      <point x="384" y="406"/>
      <point x="264" y="406" type="curve" smooth="yes"/>
      <point x="145" y="406"/>
      <point x="60" y="325"/>
    </contour>
    <contour>
      <point x="136" y="192" type="curve" smooth="yes"/>
      <point x="136" y="276"/>
      <point x="177" y="344"/>
      <point x="264" y="344" type="curve" smooth="yes"/>
      <point x="350" y="344"/>
      <point x="393" y="276"/>
      <point x="393" y="192" type="curve" smooth="yes"/>
      <point x="393" y="110"/>
      <point x="350" y="40"/>
      <point x="264" y="40" type="curve" smooth="yes"/>
      <point x="177" y="40"/>
      <point x="136" y="110"/>
    </contour>
  </outline>
</glyph>
<glyph name="visarga_gran" format="2">
  <advance width="400"/>
  <unicode hex="11303"/>
  <outline>
    <contour>
      <point x="200" y="309" type="curve" smooth="yes"/>
      <point x="273" y="309"/>
      <point x="329" y="368"/>
      <point x="329" y="441" type="curve" smooth="yes"/>
      <point x="329" y="513"/>
      <point x="273" y="571"/>
      <point x="200" y="571" type="curve" smooth="yes"/>
      <point x="127" y="571"/>
      <point x="68" y="513"/>
      <point x="68" y="441" type="curve" smooth="yes"/>
      <point x="68" y="368"/>
      <point x="127" y="309"/>
    </contour>
    <contour>
      <point x="199" y="374" type="curve" smooth="yes"/>
      <point x="162" y="374"/>
      <point x="133" y="402"/>
      <point x="133" y="440" type="curve" smooth="yes"/>
      <point x="133" y="476"/>
      <point x="162" y="506"/>
      <point x="199" y="506" type="curve" smooth="yes"/>
      <point x="235" y="506"/>
      <point x="264" y="476"/>
      <point x="264" y="440" type="curve" smooth="yes"/>
      <point x="264" y="402"/>
      <point x="235" y="374"/>
    </contour>
    <contour>
      <point x="200" y="-18" type="curve" smooth="yes"/>
      <point x="273" y="-18"/>
      <point x="329" y="41"/>
      <point x="329" y="114" type="curve" smooth="yes"/>
      <point x="329" y="186"/>
      <point x="273" y="245"/>
      <point x="200" y="245" type="curve" smooth="yes"/>
      <point x="127" y="245"/>
      <point x="68" y="186"/>
      <point x="68" y="114" type="curve" smooth="yes"/>
      <point x="68" y="41"/>
      <point x="127" y="-18"/>
    </contour>
    <contour>
      <point x="199" y="47" type="curve" smooth="yes"/>
      <point x="162" y="47"/>
      <point x="133" y="76"/>
      <point x="133" y="113" type="curve" smooth="yes"/>
      <point x="133" y="149"/>
      <point x="162" y="180"/>
      <point x="199" y="180" type="curve" smooth="yes"/>
      <point x="235" y="180"/>
      <point x="264" y="149"/>
      <point x="264" y="113" type="curve" smooth="yes"/>
      <point x="264" y="76"/>
      <point x="235" y="47"/>
    </contour>
  </outline>
</glyph>
<glyph name="a_gran" format="2">
  <advance width="1008"/>
  <unicode hex="11305"/>
  <outline>
    <contour>
      <point x="929" y="258" type="line"/>
      <point x="929" y="330" type="line"/>
      <point x="343" y="330" type="line" smooth="yes"/>
      <point x="140" y="330"/>
      <point x="60" y="260"/>
      <point x="60" y="152" type="curve" smooth="yes"/>
      <point x="60" y="47"/>
      <point x="151" y="-12"/>
      <point x="272" y="-12" type="curve" smooth="yes"/>
      <point x="411" y="-12"/>
      <point x="508" y="60"/>
      <point x="508" y="226" type="curve" smooth="yes"/>
      <point x="508" y="494" type="line"/>
      <point x="703" y="494" type="line"/>
      <point x="703" y="566" type="line"/>
      <point x="171" y="566" type="line"/>
      <point x="171" y="286" type="line"/>
      <point x="250" y="302" type="line"/>
      <point x="250" y="494" type="line"/>
      <point x="422" y="494" type="line"/>
      <point x="422" y="213" type="line" smooth="yes"/>
      <point x="422" y="94"/>
      <point x="367" y="60"/>
      <point x="280" y="60" type="curve" smooth="yes"/>
      <point x="203" y="60"/>
      <point x="146" y="84"/>
      <point x="146" y="152" type="curve" smooth="yes"/>
      <point x="146" y="231"/>
      <point x="224" y="258"/>
      <point x="336" y="258" type="curve" smooth="yes"/>
    </contour>
    <contour>
      <point x="617" y="175" type="line" smooth="yes"/>
      <point x="617" y="85"/>
      <point x="645" y="-12"/>
      <point x="773" y="-12" type="curve" smooth="yes"/>
      <point x="901" y="-12"/>
      <point x="929" y="85"/>
      <point x="929" y="175" type="curve" smooth="yes"/>
      <point x="929" y="486" type="line"/>
      <point x="843" y="486" type="line"/>
      <point x="843" y="166" type="line" smooth="yes"/>
      <point x="843" y="120"/>
      <point x="831" y="60"/>
      <point x="773" y="60" type="curve" smooth="yes"/>
      <point x="715" y="60"/>
      <point x="703" y="120"/>
      <point x="703" y="166" type="curve" smooth="yes"/>
      <point x="703" y="296" type="line"/>
      <point x="617" y="296" type="line"/>
    </contour>
  </outline>
</glyph>
<glyph name="aa_gran" format="2">
  <advance width="1356"/>
  <unicode hex="11306"/>
  <anchor x="673" y="-293" name="anudatta"/>
  <anchor x="1356" y="0" name="anusvara"/>
  <anchor x="1356" y="0" name="post"/>
  <anchor x="658" y="900" name="svara"/>
  <anchor x="673" y="640" name="top"/>
  <anchor x="1356" y="0" name="vattu"/>
  <outline>
    <contour>
      <point x="793" y="175" type="line" smooth="yes"/>
      <point x="793" y="85"/>
      <point x="821" y="-12"/>
      <point x="949" y="-12" type="curve" smooth="yes"/>
      <point x="1077" y="-12"/>
      <point x="1105" y="85"/>
      <point x="1105" y="175" type="curve" smooth="yes"/>
      <point x="1105" y="486" type="line"/>
      <point x="1019" y="486" type="line"/>
      <point x="1019" y="166" type="line" smooth="yes"/>
      <point x="1019" y="120"/>
      <point x="1007" y="60"/>
      <point x="949" y="60" type="curve" smooth="yes"/>
      <point x="891" y="60"/>
      <point x="879" y="120"/>
      <point x="879" y="166" type="curve" smooth="yes"/>
      <point x="879" y="296" type="line"/>
      <point x="793" y="296" type="line"/>
    </contour>
    <contour>
      <point x="512" y="258" type="curve" smooth="yes"/>
      <point x="1035" y="258" type="line"/>
      <point x="1105" y="255"/>
      <point x="1200" y="209"/>
      <point x="1200" y="95" type="curve" smooth="yes"/>
      <point x="1200" y="-74"/>
      <point x="991" y="-186"/>
      <point x="690" y="-186" type="curve" smooth="yes"/>
      <point x="351" y="-186"/>
      <point x="179" y="-57"/>
      <point x="146" y="164" type="curve"/>
      <point x="60" y="164" type="line"/>
      <point x="90" y="-91"/>
      <point x="308" y="-263"/>
      <point x="689" y="-263" type="curve" smooth="yes"/>
      <point x="1053" y="-263"/>
      <point x="1286" y="-120"/>
      <point x="1286" y="93" type="curve" smooth="yes"/>
      <point x="1286" y="251"/>
      <point x="1160" y="320"/>
      <point x="1072" y="330" type="curve"/>
      <point x="519" y="330" type="line" smooth="yes"/>
      <point x="316" y="330"/>
      <point x="236" y="260"/>
      <point x="236" y="152" type="curve" smooth="yes"/>
      <point x="236" y="47"/>
      <point x="327" y="-12"/>
      <point x="448" y="-12" type="curve" smooth="yes"/>
      <point x="587" y="-12"/>
      <point x="684" y="60"/>
      <point x="684" y="226" type="curve" smooth="yes"/>
      <point x="684" y="494" type="line"/>
      <point x="879" y="494" type="line"/>
      <point x="879" y="566" type="line"/>
      <point x="347" y="566" type="line"/>
      <point x="347" y="286" type="line"/>
      <point x="426" y="302" type="line"/>
      <point x="426" y="494" type="line"/>
      <point x="598" y="494" type="line"/>
      <point x="598" y="213" type="line" smooth="yes"/>
      <point x="598" y="94"/>
      <point x="543" y="60"/>
      <point x="456" y="60" type="curve" smooth="yes"/>
      <point x="379" y="60"/>
      <point x="322" y="85"/>
      <point x="322" y="152" type="curve" smooth="yes"/>
      <point x="322" y="232"/>
      <point x="400" y="258"/>
    </contour>
  </outline>
</glyph>
<glyph name="i_gran" format="2">
  <advance width="843"/>
  <unicode hex="11307"/>
  <outline>
    <contour>
      <point x="303" y="590" type="curve" smooth="yes"/>
      <point x="148" y="590"/>
      <point x="60" y="505"/>
      <point x="60" y="399" type="curve" smooth="yes"/>
      <point x="60" y="316"/>
      <point x="113" y="259"/>
      <point x="209" y="259" type="curve" smooth="yes"/>
      <point x="304" y="259"/>
      <point x="348" y="316"/>
      <point x="348" y="373" type="curve" smooth="yes"/>
      <point x="348" y="432"/>
      <point x="307" y="479"/>
      <point x="231" y="479" type="curve" smooth="yes"/>
      <point x="165" y="479"/>
      <point x="132" y="444"/>
      <point x="109" y="416" type="curve"/>
      <point x="126" y="373" type="line"/>
      <point x="145" y="400"/>
      <point x="173" y="431"/>
      <point x="213" y="431" type="curve" smooth="yes"/>
      <point x="250" y="431"/>
      <point x="267" y="405"/>
      <point x="267" y="377" type="curve" smooth="yes"/>
      <point x="267" y="348"/>
      <point x="248" y="319"/>
      <point x="209" y="319" type="curve" smooth="yes"/>
      <point x="168" y="319"/>
      <point x="146" y="350"/>
      <point x="146" y="400" type="curve" smooth="yes"/>
      <point x="146" y="496"/>
      <point x="218" y="518"/>
      <point x="286" y="518" type="curve" smooth="yes"/>
      <point x="375" y="518"/>
      <point x="416" y="475"/>
      <point x="416" y="401" type="curve" smooth="yes"/>
      <point x="416" y="309" type="line"/>
      <point x="502" y="309" type="line"/>
      <point x="502" y="394" type="line" smooth="yes"/>
      <point x="502" y="461"/>
      <point x="516" y="518"/>
      <point x="589" y="518" type="curve" smooth="yes"/>
      <point x="662" y="518"/>
      <point x="691" y="464"/>
      <point x="691" y="392" type="curve" smooth="yes"/>
      <point x="691" y="278"/>
      <point x="622" y="226"/>
      <point x="480" y="226" type="curve" smooth="yes"/>
      <point x="235" y="226" type="line" smooth="yes"/>
      <point x="136" y="226"/>
      <point x="77" y="187"/>
      <point x="77" y="105" type="curve" smooth="yes"/>
      <point x="77" y="22"/>
      <point x="146" y="-12"/>
      <point x="248" y="-12" type="curve" smooth="yes"/>
      <point x="783" y="-12" type="line"/>
      <point x="783" y="60" type="line"/>
      <point x="254" y="60" type="line" smooth="yes"/>
      <point x="201" y="60"/>
      <point x="163" y="74"/>
      <point x="163" y="109" type="curve" smooth="yes"/>
      <point x="163" y="145"/>
      <point x="205" y="154"/>
      <point x="257" y="154" type="curve" smooth="yes"/>
      <point x="489" y="154" type="line" smooth="yes"/>
      <point x="683" y="154"/>
      <point x="777" y="232"/>
      <point x="777" y="392" type="curve" smooth="yes"/>
      <point x="777" y="523"/>
      <point x="709" y="590"/>
      <point x="601" y="590" type="curve" smooth="yes"/>
      <point x="534" y="590"/>
      <point x="485" y="565"/>
      <point x="452" y="519" type="curve"/>
      <point x="465" y="516" type="line"/>
      <point x="437" y="560"/>
      <point x="393" y="590"/>
    </contour>
  </outline>
</glyph>
<glyph name="ii_gran" format="2">
  <advance width="1194"/>
  <unicode hex="11308"/>
  <outline>
    <contour>
      <point x="552" y="175" type="line" smooth="yes"/>
      <point x="552" y="95"/>
      <point x="559" y="-12"/>
      <point x="697" y="-12" type="curve" smooth="yes"/>
      <point x="835" y="-12"/>
      <point x="842" y="95"/>
      <point x="842" y="175" type="curve" smooth="yes"/>
      <point x="842" y="494" type="line"/>
      <point x="757" y="494" type="line"/>
      <point x="757" y="156" type="line" smooth="yes"/>
      <point x="757" y="100"/>
      <point x="745" y="58"/>
      <point x="697" y="58" type="curve" smooth="yes"/>
      <point x="649" y="58"/>
      <point x="637" y="100"/>
      <point x="637" y="156" type="curve" smooth="yes"/>
      <point x="637" y="494" type="line"/>
      <point x="552" y="494" type="line"/>
    </contour>
    <contour>
      <point x="350" y="0" type="line"/>
      <point x="436" y="0" type="line"/>
      <point x="436" y="494" type="line"/>
      <point x="905" y="494" type="line"/>
      <point x="905" y="566" type="line"/>
      <point x="350" y="566" type="line"/>
    </contour>
    <component base="anusvaraAbove_gran" xOffset="374" yOffset="-469"/>
    <component base="anusvaraAbove_gran" xOffset="1208" yOffset="-469"/>
  </outline>
</glyph>
<glyph name="u_gran" format="2">
  <advance width="1110"/>
  <unicode hex="11309"/>
  <anchor x="406" y="-60" name="anudatta"/>
  <anchor x="1075" y="0" name="anusvara"/>
  <anchor x="1075" y="0" name="post"/>
  <anchor x="403" y="900" name="svara"/>
  <anchor x="406" y="640" name="top"/>
  <anchor x="1075" y="0" name="vattu"/>
  <outline>
    <contour>
      <point x="298" y="566" type="curve" smooth="yes"/>
      <point x="157" y="566"/>
      <point x="57" y="512"/>
      <point x="57" y="398" type="curve" smooth="yes"/>
      <point x="57" y="305"/>
      <point x="124" y="244"/>
      <point x="220" y="244" type="curve" smooth="yes"/>
      <point x="327" y="244"/>
      <point x="383" y="305"/>
      <point x="383" y="392" type="curve" smooth="yes"/>
      <point x="383" y="451"/>
      <point x="353" y="498"/>
      <point x="318" y="527" type="curve"/>
      <point x="258" y="510" type="line"/>
      <point x="292" y="478"/>
      <point x="305" y="440"/>
      <point x="305" y="402" type="curve" smooth="yes"/>
      <point x="305" y="344"/>
      <point x="273" y="312"/>
      <point x="222" y="312" type="curve" smooth="yes"/>
      <point x="163" y="312"/>
      <point x="136" y="349"/>
      <point x="136" y="399" type="curve" smooth="yes"/>
      <point x="136" y="465"/>
      <point x="191" y="497"/>
      <point x="263" y="497" type="curve" smooth="yes"/>
      <point x="270" y="497"/>
      <point x="287" y="497"/>
      <point x="302" y="497" type="curve"/>
      <point x="330" y="496" type="line"/>
      <point x="449" y="492"/>
      <point x="516" y="432"/>
      <point x="516" y="349" type="curve" smooth="yes"/>
      <point x="516" y="284"/>
      <point x="485" y="223"/>
      <point x="303" y="205" type="curve" smooth="yes"/>
      <point x="226" y="198" type="line" smooth="yes"/>
      <point x="105" y="186"/>
      <point x="62" y="154"/>
      <point x="62" y="94" type="curve" smooth="yes"/>
      <point x="62" y="41"/>
      <point x="97" y="0"/>
      <point x="191" y="0" type="curve" smooth="yes"/>
      <point x="1050" y="0" type="line"/>
      <point x="1050" y="72" type="line"/>
      <point x="182" y="72" type="line" smooth="yes"/>
      <point x="156" y="72"/>
      <point x="146" y="79"/>
      <point x="146" y="95" type="curve" smooth="yes"/>
      <point x="146" y="112"/>
      <point x="156" y="120"/>
      <point x="229" y="127" type="curve" smooth="yes"/>
      <point x="309" y="135" type="line" smooth="yes"/>
      <point x="483" y="153"/>
      <point x="602" y="193"/>
      <point x="602" y="349" type="curve" smooth="yes"/>
      <point x="602" y="467"/>
      <point x="512" y="566"/>
    </contour>
  </outline>
</glyph>
<glyph name="uu_gran" format="2">
  <advance width="1554"/>
  <unicode hex="1130A"/>
  <anchor x="738" y="-60" name="anudatta"/>
  <anchor x="1480" y="0" name="anusvara"/>
  <anchor x="1480" y="0" name="post"/>
  <anchor x="737" y="900" name="svara"/>
  <anchor x="738" y="640" name="top"/>
  <anchor x="1480" y="0" name="vattu"/>
  <outline>
    <contour>
      <point x="660" y="72" type="line"/>
      <point x="660" y="0" type="line"/>
      <point x="1494" y="0" type="line"/>
      <point x="1494" y="72" type="line"/>
    </contour>
    <contour>
      <point x="858" y="132" type="curve" smooth="yes"/>
      <point x="944" y="132"/>
      <point x="997" y="184"/>
      <point x="997" y="270" type="curve" smooth="yes"/>
      <point x="997" y="347"/>
      <point x="945" y="398"/>
      <point x="867" y="398" type="curve" smooth="yes"/>
      <point x="814" y="398"/>
      <point x="763" y="365"/>
      <point x="731" y="317" type="curve"/>
      <point x="746" y="259" type="line"/>
      <point x="776" y="306"/>
      <point x="811" y="333"/>
      <point x="850" y="333" type="curve" smooth="yes"/>
      <point x="892" y="333"/>
      <point x="922" y="307"/>
      <point x="922" y="263" type="curve" smooth="yes"/>
      <point x="922" y="220"/>
      <point x="895" y="196"/>
      <point x="858" y="196" type="curve" smooth="yes"/>
      <point x="806" y="196"/>
      <point x="769" y="229"/>
      <point x="769" y="321" type="curve"/>
      <point x="770" y="346" type="line"/>
      <point x="778" y="436"/>
      <point x="841" y="496"/>
      <point x="937" y="496" type="curve" smooth="yes"/>
      <point x="1009" y="496"/>
      <point x="1047" y="465"/>
      <point x="1082" y="423" type="curve"/>
      <point x="1096" y="512" type="line"/>
      <point x="1054" y="544"/>
      <point x="1006" y="566"/>
      <point x="931" y="566" type="curve" smooth="yes"/>
      <point x="811" y="566"/>
      <point x="695" y="492"/>
      <point x="695" y="325" type="curve" smooth="yes"/>
      <point x="695" y="190"/>
      <point x="771" y="132"/>
    </contour>
    <contour>
      <point x="1077" y="144" type="line"/>
      <point x="1159" y="144" type="line"/>
      <point x="1159" y="486" type="line"/>
      <point x="1294" y="486" type="line"/>
      <point x="1294" y="144" type="line"/>
      <point x="1376" y="144" type="line"/>
      <point x="1376" y="486" type="line"/>
      <point x="1494" y="486" type="line"/>
      <point x="1494" y="554" type="line"/>
      <point x="1090" y="554" type="line"/>
      <point x="1090" y="497" type="line"/>
      <point x="1077" y="467" type="line"/>
    </contour>
    <component base="u_gran"/>
  </outline>
</glyph>
<glyph name="rVocalic_gran" format="2">
  <advance width="785"/>
  <unicode hex="1130B"/>
  <anchor x="392" y="-192" name="anudatta"/>
  <anchor x="392" y="900" name="svara"/>
  <outline>
    <contour>
      <point x="392" y="197" type="curve" smooth="yes"/>
      <point x="122" y="197"/>
      <point x="70" y="360"/>
      <point x="70" y="442" type="curve" smooth="yes"/>
      <point x="70" y="536"/>
      <point x="141" y="576"/>
      <point x="208" y="576" type="curve" smooth="yes"/>
      <point x="262" y="576"/>
      <point x="333" y="550"/>
      <point x="333" y="473" type="curve" smooth="yes"/>
      <point x="333" y="372"/>
      <point x="211" y="335"/>
      <point x="134" y="350" type="curve"/>
      <point x="123" y="404" type="line"/>
      <point x="196" y="384"/>
      <point x="261" y="413"/>
      <point x="261" y="463" type="curve" smooth="yes"/>
      <point x="261" y="498"/>
      <point x="230" y="512"/>
      <point x="205" y="512" type="curve" smooth="yes"/>
      <point x="172" y="512"/>
      <point x="146" y="488"/>
      <point x="146" y="443" type="curve" smooth="yes"/>
      <point x="146" y="397"/>
      <point x="168" y="265"/>
      <point x="392" y="265" type="curve" smooth="yes"/>
      <point x="616" y="265"/>
      <point x="639" y="397"/>
      <point x="639" y="443" type="curve" smooth="yes"/>
      <point x="639" y="488"/>
      <point x="613" y="512"/>
      <point x="580" y="512" type="curve" smooth="yes"/>
      <point x="555" y="512"/>
      <point x="524" y="498"/>
      <point x="524" y="463" type="curve" smooth="yes"/>
      <point x="524" y="413"/>
      <point x="589" y="384"/>
      <point x="662" y="404" type="curve"/>
      <point x="651" y="350" type="line"/>
      <point x="574" y="335"/>
      <point x="452" y="372"/>
      <point x="452" y="473" type="curve" smooth="yes"/>
      <point x="452" y="550"/>
      <point x="523" y="576"/>
      <point x="577" y="576" type="curve" smooth="yes"/>
      <point x="644" y="576"/>
      <point x="715" y="536"/>
      <point x="715" y="442" type="curve" smooth="yes"/>
      <point x="715" y="360"/>
      <point x="662" y="197"/>
    </contour>
    <contour>
      <point x="70" y="46" type="curve" smooth="yes"/>
      <point x="70" y="203"/>
      <point x="238" y="265"/>
      <point x="392" y="265" type="curve" smooth="yes"/>
      <point x="542" y="265"/>
      <point x="715" y="204"/>
      <point x="715" y="46" type="curve" smooth="yes"/>
      <point x="715" y="-61"/>
      <point x="643" y="-132"/>
      <point x="537" y="-132" type="curve" smooth="yes"/>
      <point x="449" y="-132"/>
      <point x="403" y="-80"/>
      <point x="388" y="-56" type="curve"/>
      <point x="395" y="-56" type="line"/>
      <point x="380" y="-80"/>
      <point x="334" y="-132"/>
      <point x="249" y="-132" type="curve" smooth="yes"/>
      <point x="150" y="-132"/>
      <point x="70" y="-66"/>
    </contour>
    <contour>
      <point x="392" y="197" type="curve" smooth="yes"/>
      <point x="291" y="197"/>
      <point x="156" y="172"/>
      <point x="156" y="44" type="curve" smooth="yes"/>
      <point x="156" y="-41"/>
      <point x="218" y="-65"/>
      <point x="261" y="-65" type="curve" smooth="yes"/>
      <point x="308" y="-65"/>
      <point x="351" y="-35"/>
      <point x="360" y="6" type="curve"/>
      <point x="424" y="6" type="line"/>
      <point x="433" y="-35"/>
      <point x="479" y="-63"/>
      <point x="526" y="-63" type="curve" smooth="yes"/>
      <point x="569" y="-63"/>
      <point x="629" y="-41"/>
      <point x="629" y="44" type="curve" smooth="yes"/>
      <point x="629" y="172"/>
      <point x="498" y="197"/>
    </contour>
  </outline>
</glyph>
<glyph name="lVocalic_gran" format="2">
  <advance width="1352"/>
  <unicode hex="1130C"/>
  <outline>
    <contour>
      <point x="594" y="348" type="curve"/>
      <point x="639" y="416" type="line"/>
      <point x="599" y="498"/>
      <point x="517" y="576"/>
      <point x="384" y="576" type="curve" smooth="yes"/>
      <point x="219" y="576"/>
      <point x="70" y="454"/>
      <point x="70" y="237" type="curve" smooth="yes"/>
      <point x="70" y="60"/>
      <point x="162" y="-12"/>
      <point x="269" y="-12" type="curve" smooth="yes"/>
      <point x="376" y="-12"/>
      <point x="446" y="54"/>
      <point x="446" y="165" type="curve" smooth="yes"/>
      <point x="446" y="265"/>
      <point x="377" y="328"/>
      <point x="281" y="328" type="curve" smooth="yes"/>
      <point x="216" y="328"/>
      <point x="153" y="295"/>
      <point x="113" y="248" type="curve"/>
      <point x="128" y="184" type="line"/>
      <point x="167" y="227"/>
      <point x="214" y="258"/>
      <point x="267" y="258" type="curve" smooth="yes"/>
      <point x="322" y="258"/>
      <point x="360" y="221"/>
      <point x="360" y="155" type="curve" smooth="yes"/>
      <point x="360" y="95"/>
      <point x="325" y="60"/>
      <point x="273" y="60" type="curve" smooth="yes"/>
      <point x="207" y="60"/>
      <point x="156" y="113"/>
      <point x="156" y="237" type="curve" smooth="yes"/>
      <point x="156" y="393"/>
      <point x="246" y="504"/>
      <point x="377" y="504" type="curve" smooth="yes"/>
      <point x="473" y="504"/>
      <point x="553" y="441"/>
    </contour>
    <component base="ra_gran" xOffset="506"/>
  </outline>
</glyph>
<glyph name="ee_gran" format="2">
  <advance width="1871"/>
  <unicode hex="1130F"/>
  <anchor x="935" y="-60" name="anudatta"/>
  <anchor x="1871" y="0" name="anusvara"/>
  <anchor x="1871" y="0" name="post"/>
  <anchor x="935" y="900" name="svara"/>
  <anchor x="935" y="640" name="top"/>
  <anchor x="1871" y="0" name="vattu"/>
  <outline>
    <contour>
      <point x="269" y="-12" type="curve" smooth="yes"/>
      <point x="376" y="-12"/>
      <point x="444" y="54"/>
      <point x="444" y="165" type="curve" smooth="yes"/>
      <point x="444" y="265"/>
      <point x="377" y="328"/>
      <point x="281" y="328" type="curve" smooth="yes"/>
      <point x="216" y="328"/>
      <point x="153" y="295"/>
      <point x="113" y="248" type="curve"/>
      <point x="128" y="184" type="line"/>
      <point x="167" y="227"/>
      <point x="214" y="258"/>
      <point x="267" y="258" type="curve" smooth="yes"/>
      <point x="322" y="258"/>
      <point x="360" y="221"/>
      <point x="360" y="155" type="curve" smooth="yes"/>
      <point x="360" y="91"/>
      <point x="325" y="60"/>
      <point x="273" y="60" type="curve" smooth="yes"/>
      <point x="207" y="60"/>
      <point x="156" y="103"/>
      <point x="156" y="237" type="curve" smooth="yes"/>
      <point x="156" y="383"/>
      <point x="240" y="504"/>
      <point x="380" y="504" type="curve" smooth="yes"/>
      <point x="504" y="504"/>
      <point x="583" y="411"/>
      <point x="583" y="269" type="curve" smooth="yes"/>
      <point x="583" y="178"/>
      <point x="562" y="104"/>
      <point x="531" y="51" type="curve"/>
      <point x="535" y="-12" type="line"/>
      <point x="749" y="-12" type="line"/>
      <point x="749" y="60" type="line"/>
      <point x="623" y="60" type="line"/>
      <point x="650" y="119"/>
      <point x="671" y="194"/>
      <point x="671" y="280" type="curve" smooth="yes"/>
      <point x="671" y="437"/>
      <point x="577" y="576"/>
      <point x="384" y="576" type="curve" smooth="yes"/>
      <point x="209" y="576"/>
      <point x="70" y="456"/>
      <point x="70" y="237" type="curve" smooth="yes"/>
      <point x="70" y="62"/>
      <point x="162" y="-12"/>
    </contour>
    <contour>
      <point x="1118" y="504" type="curve" smooth="yes"/>
      <point x="1280" y="504"/>
      <point x="1365" y="375"/>
      <point x="1365" y="228" type="curve" smooth="yes"/>
      <point x="1365" y="138"/>
      <point x="1335" y="60"/>
      <point x="1278" y="60" type="curve" smooth="yes"/>
      <point x="1244" y="60"/>
      <point x="1206" y="87"/>
      <point x="1206" y="192" type="curve" smooth="yes"/>
      <point x="1206" y="387"/>
      <point x="1323" y="494"/>
      <point x="1530" y="494" type="curve" smooth="yes"/>
      <point x="1595" y="494" type="line"/>
      <point x="1595" y="-12" type="line"/>
      <point x="1681" y="-12" type="line"/>
      <point x="1681" y="494" type="line"/>
      <point x="1851" y="494" type="line"/>
      <point x="1851" y="566" type="line"/>
      <point x="1553" y="566" type="line" smooth="yes"/>
      <point x="1292" y="566"/>
      <point x="1120" y="422"/>
      <point x="1120" y="186" type="curve" smooth="yes"/>
      <point x="1120" y="62"/>
      <point x="1171" y="-12"/>
      <point x="1278" y="-12" type="curve" smooth="yes"/>
      <point x="1387" y="-12"/>
      <point x="1451" y="72"/>
      <point x="1451" y="217" type="curve" smooth="yes"/>
      <point x="1451" y="412"/>
      <point x="1332" y="576"/>
      <point x="1117" y="576" type="curve" smooth="yes"/>
      <point x="915" y="576"/>
      <point x="799" y="434"/>
      <point x="799" y="263" type="curve" smooth="yes"/>
      <point x="799" y="191"/>
      <point x="820" y="119"/>
      <point x="847" y="60" type="curve"/>
      <point x="726" y="60" type="line"/>
      <point x="726" y="-12" type="line"/>
      <point x="935" y="-12" type="line"/>
      <point x="939" y="51" type="line"/>
      <point x="907" y="110"/>
      <point x="887" y="175"/>
      <point x="887" y="252" type="curve" smooth="yes"/>
      <point x="887" y="408"/>
      <point x="982" y="504"/>
    </contour>
  </outline>
</glyph>
<glyph name="oo_gran" format="2">
  <advance width="1002"/>
  <unicode hex="11313"/>
  <anchor x="526" y="-180" name="anudatta"/>
  <anchor x="1002" y="0" name="anusvara"/>
  <anchor x="1002" y="0" name="post"/>
  <anchor x="518" y="900" name="svara"/>
  <anchor x="526" y="640" name="top"/>
  <anchor x="1002" y="0" name="vattu"/>
  <outline>
    <contour>
      <point x="748" y="13" type="line"/>
      <point x="748" y="-181" type="line"/>
      <point x="834" y="-181" type="line"/>
      <point x="834" y="13" type="line"/>
    </contour>
    <contour>
      <point x="982" y="0" type="line"/>
      <point x="982" y="72" type="line"/>
      <point x="703" y="72" type="line"/>
      <point x="780" y="131"/>
      <point x="811" y="206"/>
      <point x="811" y="282" type="curve" smooth="yes"/>
      <point x="811" y="429"/>
      <point x="700" y="576"/>
      <point x="457" y="576" type="curve" smooth="yes"/>
      <point x="222" y="576"/>
      <point x="70" y="436"/>
      <point x="70" y="230" type="curve" smooth="yes"/>
      <point x="70" y="62"/>
      <point x="162" y="-12"/>
      <point x="269" y="-12" type="curve" smooth="yes"/>
      <point x="376" y="-12"/>
      <point x="446" y="52"/>
      <point x="446" y="163" type="curve" smooth="yes"/>
      <point x="446" y="263"/>
      <point x="377" y="328"/>
      <point x="281" y="328" type="curve" smooth="yes"/>
      <point x="216" y="328"/>
      <point x="153" y="295"/>
      <point x="113" y="248" type="curve"/>
      <point x="128" y="184" type="line"/>
      <point x="167" y="227"/>
      <point x="214" y="258"/>
      <point x="267" y="258" type="curve" smooth="yes"/>
      <point x="322" y="258"/>
      <point x="360" y="221"/>
      <point x="360" y="155" type="curve" smooth="yes"/>
      <point x="360" y="95"/>
      <point x="325" y="60"/>
      <point x="269" y="60" type="curve" smooth="yes"/>
      <point x="207" y="60"/>
      <point x="156" y="103"/>
      <point x="156" y="237" type="curve" smooth="yes"/>
      <point x="156" y="363"/>
      <point x="247" y="504"/>
      <point x="457" y="504" type="curve" smooth="yes"/>
      <point x="631" y="504"/>
      <point x="725" y="403"/>
      <point x="725" y="281" type="curve" smooth="yes"/>
      <point x="725" y="190"/>
      <point x="672" y="109"/>
      <point x="591" y="63" type="curve"/>
      <point x="595" y="0" type="line"/>
    </contour>
  </outline>
</glyph>
<glyph name="ka_gran" format="2">
  <advance width="1145"/>
  <unicode hex="11315"/>
  <outline>
    <contour>
      <point x="155" y="151" type="curve" smooth="yes"/>
      <point x="155" y="218"/>
      <point x="203" y="276"/>
      <point x="324" y="276" type="curve" smooth="yes"/>
      <point x="799" y="276" type="line" smooth="yes"/>
      <point x="922" y="276"/>
      <point x="989" y="229"/>
      <point x="989" y="154" type="curve" smooth="yes"/>
      <point x="989" y="92"/>
      <point x="943" y="58"/>
      <point x="899" y="58" type="curve" smooth="yes"/>
      <point x="853" y="58"/>
      <point x="816" y="92"/>
      <point x="816" y="144" type="curve" smooth="yes"/>
      <point x="816" y="207"/>
      <point x="866" y="260"/>
      <point x="958" y="260" type="curve"/>
      <point x="905" y="291" type="line"/>
      <point x="790" y="291"/>
      <point x="739" y="212"/>
      <point x="739" y="141" type="curve" smooth="yes"/>
      <point x="739" y="55"/>
      <point x="800" y="-12"/>
      <point x="902" y="-12" type="curve" smooth="yes"/>
      <point x="988" y="-12"/>
      <point x="1075" y="37"/>
      <point x="1075" y="157" type="curve" smooth="yes"/>
      <point x="1075" y="262"/>
      <point x="993" y="348"/>
      <point x="811" y="348" type="curve" smooth="yes"/>
      <point x="311" y="348" type="line" smooth="yes"/>
      <point x="188" y="348"/>
      <point x="70" y="270"/>
      <point x="70" y="144" type="curve" smooth="yes"/>
      <point x="70" y="57"/>
      <point x="122" y="-12"/>
      <point x="224" y="-12" type="curve" smooth="yes"/>
      <point x="302" y="-12"/>
      <point x="364" y="35"/>
      <point x="386" y="91" type="curve"/>
      <point x="365" y="91" type="line"/>
      <point x="392" y="21"/>
      <point x="438" y="-12"/>
      <point x="506" y="-12" type="curve" smooth="yes"/>
      <point x="613" y="-12"/>
      <point x="666" y="65"/>
      <point x="666" y="197" type="curve" smooth="yes"/>
      <point x="666" y="494" type="line"/>
      <point x="852" y="494" type="line"/>
      <point x="852" y="566" type="line"/>
      <point x="249" y="566" type="line"/>
      <point x="249" y="304" type="line"/>
      <point x="328" y="304" type="line"/>
      <point x="328" y="494" type="line"/>
      <point x="580" y="494" type="line"/>
      <point x="580" y="199" type="line" smooth="yes"/>
      <point x="580" y="116"/>
      <point x="558" y="60"/>
      <point x="499" y="60" type="curve" smooth="yes"/>
      <point x="440" y="60"/>
      <point x="420" y="115"/>
      <point x="420" y="165" type="curve" smooth="yes"/>
      <point x="420" y="171" type="line"/>
      <point x="334" y="171" type="line"/>
      <point x="334" y="165" type="line" smooth="yes"/>
      <point x="334" y="114"/>
      <point x="303" y="60"/>
      <point x="241" y="60" type="curve" smooth="yes"/>
      <point x="196" y="60"/>
      <point x="155" y="90"/>
    </contour>
  </outline>
</glyph>
<glyph name="kha_gran" format="2">
  <advance width="1316"/>
  <unicode hex="11316"/>
  <anchor x="680" y="-100" name="anudatta"/>
  <anchor x="1316" y="0" name="anusvara"/>
  <anchor x="680" y="-60" name="bottom"/>
  <anchor x="1316" y="0" name="post"/>
  <anchor x="1286" y="0" name="repha"/>
  <anchor x="628" y="900" name="svara"/>
  <anchor x="628" y="640" name="top"/>
  <anchor x="1336" y="566" name="topright"/>
  <anchor x="1359" y="0" name="vattu"/>
  <anchor x="1135" y="475" name="virama"/>
  <anchor x="1263" y="0" name="yaphalaa"/>
  <outline>
    <contour>
      <point x="716" y="0" type="curve" smooth="yes"/>
      <point x="1236" y="0" type="line"/>
      <point x="1236" y="72" type="line"/>
      <point x="737" y="72" type="line" smooth="yes"/>
      <point x="691" y="72"/>
      <point x="681" y="87"/>
      <point x="681" y="99" type="curve" smooth="yes"/>
      <point x="681" y="119"/>
      <point x="707" y="135"/>
      <point x="745" y="163" type="curve" smooth="yes"/>
      <point x="795" y="200"/>
      <point x="855" y="250"/>
      <point x="855" y="332" type="curve" smooth="yes"/>
      <point x="855" y="435"/>
      <point x="765" y="578"/>
      <point x="492" y="578" type="curve" smooth="yes"/>
      <point x="207" y="578"/>
      <point x="70" y="411"/>
      <point x="70" y="227" type="curve" smooth="yes"/>
      <point x="70" y="57"/>
      <point x="162" y="-12"/>
      <point x="269" y="-12" type="curve" smooth="yes"/>
      <point x="376" y="-12"/>
      <point x="452" y="54"/>
      <point x="452" y="165" type="curve" smooth="yes"/>
      <point x="452" y="265"/>
      <point x="377" y="328"/>
      <point x="281" y="328" type="curve" smooth="yes"/>
      <point x="216" y="328"/>
      <point x="153" y="295"/>
      <point x="113" y="248" type="curve"/>
      <point x="128" y="184" type="line"/>
      <point x="167" y="227"/>
      <point x="214" y="258"/>
      <point x="267" y="258" type="curve" smooth="yes"/>
      <point x="322" y="258"/>
      <point x="370" y="229"/>
      <point x="370" y="163" type="curve" smooth="yes"/>
      <point x="370" y="99"/>
      <point x="325" y="56"/>
      <point x="268" y="56" type="curve" smooth="yes"/>
      <point x="207" y="56"/>
      <point x="156" y="99"/>
      <point x="156" y="233" type="curve" smooth="yes"/>
      <point x="156" y="369"/>
      <point x="248" y="506"/>
      <point x="488" y="506" type="curve" smooth="yes"/>
      <point x="702" y="506"/>
      <point x="769" y="402"/>
      <point x="769" y="327" type="curve" smooth="yes"/>
      <point x="769" y="271"/>
      <point x="733" y="235"/>
      <point x="681" y="198" type="curve" smooth="yes"/>
      <point x="626" y="159"/>
      <point x="599" y="135"/>
      <point x="599" y="90" type="curve" smooth="yes"/>
      <point x="599" y="25"/>
      <point x="662" y="0"/>
    </contour>
    <contour>
      <point x="1150" y="566" type="line"/>
      <point x="1150" y="0" type="line"/>
      <point x="1236" y="0" type="line"/>
      <point x="1236" y="566" type="line"/>
    </contour>
  </outline>
</glyph>
<glyph name="ga_gran" format="2">
  <advance width="932"/>
  <unicode hex="11317"/>
  <outline>
    <contour>
      <point x="235" y="-156" type="curve" smooth="yes"/>
      <point x="552" y="-156" type="line" smooth="yes"/>
      <point x="833" y="-156"/>
      <point x="862" y="101"/>
      <point x="862" y="277" type="curve" smooth="yes"/>
      <point x="862" y="467"/>
      <point x="802" y="579"/>
      <point x="647" y="579" type="curve" smooth="yes"/>
      <point x="493" y="579"/>
      <point x="432" y="467"/>
      <point x="432" y="317" type="curve" smooth="yes"/>
      <point x="432" y="280" type="line" smooth="yes"/>
      <point x="432" y="170"/>
      <point x="399" y="95"/>
      <point x="303" y="95" type="curve" smooth="yes"/>
      <point x="207" y="95"/>
      <point x="174" y="159"/>
      <point x="174" y="320" type="curve" smooth="yes"/>
      <point x="174" y="569" type="line"/>
      <point x="88" y="569" type="line"/>
      <point x="88" y="304" type="line" smooth="yes"/>
      <point x="88" y="122"/>
      <point x="149" y="23"/>
      <point x="303" y="23" type="curve" smooth="yes"/>
      <point x="453" y="23"/>
      <point x="518" y="128"/>
      <point x="518" y="289" type="curve" smooth="yes"/>
      <point x="518" y="323" type="line" smooth="yes"/>
      <point x="518" y="420"/>
      <point x="545" y="507"/>
      <point x="651" y="507" type="curve" smooth="yes"/>
      <point x="759" y="507"/>
      <point x="776" y="420"/>
      <point x="776" y="283" type="curve" smooth="yes"/>
      <point x="776" y="117"/>
      <point x="760" y="-84"/>
      <point x="558" y="-84" type="curve" smooth="yes"/>
      <point x="208" y="-84" type="line" smooth="yes"/>
      <point x="141" y="-84"/>
      <point x="102" y="-94"/>
      <point x="67" y="-119" type="curve" smooth="yes"/>
      <point x="33" y="-144"/>
      <point x="10" y="-184"/>
      <point x="10" y="-243" type="curve" smooth="yes"/>
      <point x="10" y="-266"/>
      <point x="13" y="-297"/>
      <point x="17" y="-321" type="curve"/>
      <point x="99" y="-317" type="line"/>
      <point x="97" y="-301"/>
      <point x="96" y="-283"/>
      <point x="96" y="-263" type="curve" smooth="yes"/>
      <point x="96" y="-219"/>
      <point x="108" y="-194"/>
      <point x="133" y="-177" type="curve" smooth="yes"/>
      <point x="152" y="-164"/>
      <point x="179" y="-156"/>
    </contour>
  </outline>
</glyph>
<glyph name="gha_gran" format="2">
  <advance width="1363"/>
  <unicode hex="11318"/>
  <anchor x="676" y="-100" name="anudatta"/>
  <anchor x="1363" y="0" name="anusvara"/>
  <anchor x="676" y="-60" name="bottom"/>
  <anchor x="1363" y="0" name="post"/>
  <anchor x="1333" y="0" name="repha"/>
  <anchor x="681" y="900" name="svara"/>
  <anchor x="681" y="640" name="top"/>
  <anchor x="1383" y="566" name="topright"/>
  <anchor x="1406" y="0" name="vattu"/>
  <anchor x="1337" y="482" name="virama"/>
  <anchor x="1310" y="0" name="yaphalaa"/>
  <outline>
    <contour>
      <point x="1197" y="0" type="line"/>
      <point x="1283" y="0" type="line"/>
      <point x="1283" y="566" type="line"/>
      <point x="1197" y="566" type="line"/>
    </contour>
    <component base="gha.base"/>
  </outline>
</glyph>
<glyph name="nga_gran" format="2">
  <advance width="867"/>
  <unicode hex="11319"/>
  <anchor x="433" y="-300" name="anudatta"/>
  <anchor x="853" y="0" name="anusvara"/>
  <anchor x="433" y="-222" name="bottom"/>
  <anchor x="571" y="638" name="iiMatra"/>
  <anchor x="853" y="0" name="post"/>
  <anchor x="853" y="0" name="repha"/>
  <anchor x="436" y="900" name="svara"/>
  <anchor x="436" y="640" name="top"/>
  <anchor x="873" y="566" name="topright"/>
  <anchor x="911" y="0" name="vattu"/>
  <anchor x="731" y="496" name="virama"/>
  <anchor x="838" y="0" name="yaphalaa"/>
  <outline>
    <contour>
      <point x="410" y="-76" type="line"/>
      <point x="410" y="-240" type="line"/>
      <point x="497" y="-240" type="line"/>
      <point x="497" y="-76" type="line"/>
    </contour>
    <contour>
      <point x="307" y="590" type="curve" smooth="yes"/>
      <point x="158" y="590"/>
      <point x="70" y="508"/>
      <point x="70" y="400" type="curve" smooth="yes"/>
      <point x="70" y="305"/>
      <point x="137" y="249"/>
      <point x="223" y="249" type="curve" smooth="yes"/>
      <point x="318" y="249"/>
      <point x="358" y="316"/>
      <point x="358" y="373" type="curve" smooth="yes"/>
      <point x="358" y="432"/>
      <point x="317" y="479"/>
      <point x="241" y="479" type="curve" smooth="yes"/>
      <point x="175" y="479"/>
      <point x="142" y="444"/>
      <point x="119" y="416" type="curve"/>
      <point x="136" y="373" type="line"/>
      <point x="155" y="400"/>
      <point x="183" y="431"/>
      <point x="223" y="431" type="curve" smooth="yes"/>
      <point x="260" y="431"/>
      <point x="277" y="405"/>
      <point x="277" y="377" type="curve" smooth="yes"/>
      <point x="277" y="348"/>
      <point x="258" y="319"/>
      <point x="219" y="319" type="curve" smooth="yes"/>
      <point x="178" y="319"/>
      <point x="156" y="350"/>
      <point x="156" y="400" type="curve" smooth="yes"/>
      <point x="156" y="496"/>
      <point x="228" y="518"/>
      <point x="296" y="518" type="curve" smooth="yes"/>
      <point x="385" y="518"/>
      <point x="426" y="475"/>
      <point x="426" y="401" type="curve" smooth="yes"/>
      <point x="426" y="289" type="line"/>
      <point x="512" y="289" type="line"/>
      <point x="512" y="394" type="line" smooth="yes"/>
      <point x="512" y="461"/>
      <point x="528" y="518"/>
      <point x="602" y="518" type="curve" smooth="yes"/>
      <point x="678" y="518"/>
      <point x="711" y="462"/>
      <point x="711" y="387" type="curve" smooth="yes"/>
      <point x="711" y="276"/>
      <point x="632" y="179"/>
      <point x="490" y="179" type="curve" smooth="yes"/>
      <point x="295" y="179" type="line" smooth="yes"/>
      <point x="176" y="179"/>
      <point x="87" y="136"/>
      <point x="87" y="41" type="curve" smooth="yes"/>
      <point x="87" y="-59"/>
      <point x="176" y="-90"/>
      <point x="278" y="-90" type="curve" smooth="yes"/>
      <point x="793" y="-90" type="line"/>
      <point x="793" y="-18" type="line"/>
      <point x="304" y="-18" type="line" smooth="yes"/>
      <point x="231" y="-18"/>
      <point x="173" y="-5"/>
      <point x="173" y="43" type="curve" smooth="yes"/>
      <point x="173" y="96"/>
      <point x="245" y="107"/>
      <point x="307" y="107" type="curve" smooth="yes"/>
      <point x="499" y="107" type="line" smooth="yes"/>
      <point x="693" y="107"/>
      <point x="797" y="232"/>
      <point x="797" y="386" type="curve" smooth="yes"/>
      <point x="797" y="523"/>
      <point x="721" y="590"/>
      <point x="609" y="590" type="curve" smooth="yes"/>
      <point x="546" y="590"/>
      <point x="495" y="568"/>
      <point x="462" y="519" type="curve"/>
      <point x="475" y="516" type="line"/>
      <point x="447" y="560"/>
      <point x="394" y="590"/>
    </contour>
  </outline>
</glyph>
<glyph name="ca_gran" format="2">
  <advance width="1068"/>
  <unicode hex="1131A"/>
  <guideline x="1891" y="784" angle="90"/>
  <anchor x="514" y="-100" name="anudatta"/>
  <anchor x="1068" y="0" name="anusvara"/>
  <anchor x="494" y="-60" name="bottom"/>
  <anchor x="1068" y="0" name="post"/>
  <anchor x="1038" y="0" name="repha"/>
  <anchor x="534" y="900" name="svara"/>
  <anchor x="534" y="640" name="top"/>
  <anchor x="1088" y="566" name="topright"/>
  <anchor x="1112" y="0" name="vattu"/>
  <anchor x="887" y="476" name="virama"/>
  <anchor x="1028" y="0" name="yaphalaa"/>
  <outline>
    <contour>
      <point x="902" y="566" type="line"/>
      <point x="902" y="16" type="line"/>
      <point x="988" y="16" type="line"/>
      <point x="988" y="566" type="line"/>
    </contour>
    <component base="ca.base"/>
  </outline>
</glyph>
<glyph name="cha_gran" format="2">
  <advance width="1330"/>
  <unicode hex="1131B"/>
  <anchor x="665" y="-100" name="anudatta"/>
  <anchor x="1330" y="0" name="anusvara"/>
  <anchor x="625" y="-60" name="bottom"/>
  <anchor x="1054" y="628" name="iiMatra"/>
  <anchor x="1330" y="0" name="post"/>
  <anchor x="1300" y="0" name="repha"/>
  <anchor x="665" y="900" name="svara"/>
  <anchor x="665" y="640" name="top"/>
  <anchor x="1350" y="566" name="topright"/>
  <anchor x="1372" y="0" name="vattu"/>
  <anchor x="1194" y="482" name="virama"/>
  <anchor x="1290" y="0" name="yaphalaa"/>
  <outline>
    <contour>
      <point x="1250" y="351" type="line" smooth="yes"/>
      <point x="1250" y="489"/>
      <point x="1202" y="576"/>
      <point x="1074" y="576" type="curve" smooth="yes"/>
      <point x="946" y="576"/>
      <point x="898" y="489"/>
      <point x="898" y="351" type="curve" smooth="yes"/>
      <point x="898" y="0" type="line"/>
      <point x="984" y="0" type="line"/>
      <point x="984" y="338" type="line" smooth="yes"/>
      <point x="984" y="428"/>
      <point x="996" y="504"/>
      <point x="1074" y="504" type="curve" smooth="yes"/>
      <point x="1152" y="504"/>
      <point x="1164" y="428"/>
      <point x="1164" y="338" type="curve" smooth="yes"/>
      <point x="1164" y="0" type="line"/>
      <point x="1250" y="0" type="line"/>
    </contour>
    <contour>
      <point x="1188" y="72" type="line"/>
      <point x="930" y="72" type="line"/>
      <point x="930" y="0" type="line"/>
      <point x="1188" y="0" type="line"/>
    </contour>
    <component base="ca.base"/>
  </outline>
</glyph>
<glyph name="jha_gran" format="2">
  <advance width="1343"/>
  <unicode hex="1131D"/>
  <guideline x="1332" y="160" angle="0"/>
  <anchor x="676" y="-100" name="anudatta"/>
  <anchor x="1343" y="0" name="anusvara"/>
  <anchor x="676" y="-60" name="bottom"/>
  <anchor x="1343" y="0" name="post"/>
  <anchor x="1243" y="0" name="repha"/>
  <anchor x="671" y="900" name="svara"/>
  <anchor x="671" y="640" name="top"/>
  <anchor x="1333" y="566" name="topright"/>
  <anchor x="1387" y="0" name="vattu"/>
  <anchor x="1228" y="0" name="yaphalaa"/>
  <outline>
    <contour>
      <point x="1100" y="537" type="line"/>
      <point x="1160" y="456"/>
      <point x="1187" y="389"/>
      <point x="1187" y="285" type="curve" smooth="yes"/>
      <point x="1187" y="130"/>
      <point x="1082" y="60"/>
      <point x="992" y="60" type="curve" smooth="yes"/>
      <point x="902" y="60"/>
      <point x="797" y="130"/>
      <point x="797" y="285" type="curve" smooth="yes"/>
      <point x="797" y="389"/>
      <point x="824" y="456"/>
      <point x="884" y="537" type="curve"/>
      <point x="821" y="587" type="line"/>
      <point x="758" y="511"/>
      <point x="711" y="419"/>
      <point x="711" y="281" type="curve" smooth="yes"/>
      <point x="711" y="159"/>
      <point x="798" y="-12"/>
      <point x="992" y="-12" type="curve" smooth="yes"/>
      <point x="1186" y="-12"/>
      <point x="1273" y="159"/>
      <point x="1273" y="281" type="curve" smooth="yes"/>
      <point x="1273" y="419"/>
      <point x="1226" y="511"/>
      <point x="1163" y="587" type="curve"/>
    </contour>
    <contour>
      <point x="484" y="493" type="line"/>
      <point x="484" y="72" type="line"/>
      <point x="368" y="72" type="line"/>
      <point x="368" y="198" type="line"/>
      <point x="753" y="198" type="line"/>
      <point x="752" y="270" type="line"/>
      <point x="282" y="270" type="line"/>
      <point x="282" y="0" type="line"/>
      <point x="570" y="0" type="line"/>
      <point x="570" y="493" type="line"/>
      <point x="653" y="493" type="line"/>
      <point x="653" y="566" type="line"/>
      <point x="80" y="566" type="line"/>
      <point x="80" y="0" type="line"/>
      <point x="166" y="0" type="line"/>
      <point x="166" y="493" type="line"/>
    </contour>
  </outline>
</glyph>
<glyph name="nya_gran" format="2">
  <advance width="1156"/>
  <unicode hex="1131E"/>
  <outline>
    <contour>
      <point x="236" y="155" type="line"/>
      <point x="150" y="155" type="line"/>
      <point x="150" y="148" type="line" smooth="yes"/>
      <point x="150" y="19"/>
      <point x="264" y="-213"/>
      <point x="629" y="-213" type="curve" smooth="yes"/>
      <point x="931" y="-213"/>
      <point x="1096" y="-86"/>
      <point x="1096" y="88" type="curve" smooth="yes"/>
      <point x="1096" y="235"/>
      <point x="1008" y="348"/>
      <point x="776" y="348" type="curve" smooth="yes"/>
      <point x="651" y="348" type="line" smooth="yes"/>
      <point x="449" y="348"/>
      <point x="368" y="277"/>
      <point x="368" y="176" type="curve" smooth="yes"/>
      <point x="368" y="75"/>
      <point x="459" y="6"/>
      <point x="581" y="6" type="curve" smooth="yes"/>
      <point x="749" y="6"/>
      <point x="816" y="89"/>
      <point x="816" y="244" type="curve" smooth="yes"/>
      <point x="816" y="494" type="line"/>
      <point x="1005" y="494" type="line"/>
      <point x="1005" y="566" type="line"/>
      <point x="479" y="566" type="line"/>
      <point x="479" y="304" type="line"/>
      <point x="559" y="320" type="line"/>
      <point x="559" y="494" type="line"/>
      <point x="730" y="494" type="line"/>
      <point x="730" y="231" type="line" smooth="yes"/>
      <point x="730" y="122"/>
      <point x="675" y="78"/>
      <point x="588" y="78" type="curve" smooth="yes"/>
      <point x="511" y="78"/>
      <point x="454" y="115"/>
      <point x="454" y="179" type="curve" smooth="yes"/>
      <point x="454" y="258"/>
      <point x="540" y="276"/>
      <point x="644" y="276" type="curve" smooth="yes"/>
      <point x="768" y="276" type="line" smooth="yes"/>
      <point x="906" y="276"/>
      <point x="1008" y="228"/>
      <point x="1008" y="89" type="curve" smooth="yes"/>
      <point x="1008" y="-34"/>
      <point x="881" y="-136"/>
      <point x="630" y="-136" type="curve" smooth="yes"/>
      <point x="350" y="-136"/>
      <point x="236" y="29"/>
      <point x="236" y="149" type="curve" smooth="yes"/>
    </contour>
    <contour>
      <point x="181" y="495" type="curve" smooth="yes"/>
      <point x="66" y="495"/>
      <point x="0" y="432"/>
      <point x="0" y="350" type="curve" smooth="yes"/>
      <point x="0" y="268"/>
      <point x="63" y="226"/>
      <point x="136" y="226" type="curve" smooth="yes"/>
      <point x="214" y="226"/>
      <point x="264" y="278"/>
      <point x="264" y="347" type="curve" smooth="yes"/>
      <point x="264" y="378"/>
      <point x="254" y="423"/>
      <point x="208" y="460" type="curve"/>
      <point x="157" y="438" type="line"/>
      <point x="189" y="413"/>
      <point x="198" y="386"/>
      <point x="198" y="361" type="curve" smooth="yes"/>
      <point x="198" y="316"/>
      <point x="172" y="298"/>
      <point x="136" y="298" type="curve" smooth="yes"/>
      <point x="97" y="298"/>
      <point x="75" y="322"/>
      <point x="75" y="353" type="curve" smooth="yes"/>
      <point x="75" y="400"/>
      <point x="125" y="423"/>
      <point x="184" y="423" type="curve" smooth="yes"/>
      <point x="304" y="423"/>
      <point x="373" y="349"/>
      <point x="393" y="229" type="curve"/>
      <point x="470" y="236" type="line"/>
      <point x="450" y="383"/>
      <point x="360" y="495"/>
    </contour>
  </outline>
</glyph>
<glyph name="tta_gran" format="2">
  <advance width="948"/>
  <unicode hex="1131F"/>
  <anchor x="464" y="-173" name="anudatta"/>
  <anchor x="928" y="0" name="anusvara"/>
  <anchor x="474" y="-127" name="bottom"/>
  <anchor x="928" y="0" name="post"/>
  <anchor x="918" y="0" name="repha"/>
  <anchor x="464" y="900" name="svara"/>
  <anchor x="464" y="640" name="top"/>
  <anchor x="728" y="566" name="topright"/>
  <anchor x="876" y="0" name="vattu"/>
  <anchor x="888" y="0" name="yaphalaa"/>
  <outline>
    <contour>
      <point x="80" y="0" type="line"/>
      <point x="868" y="0" type="line"/>
      <point x="868" y="72" type="line"/>
      <point x="166" y="72" type="line"/>
      <point x="166" y="566" type="line"/>
      <point x="80" y="566" type="line"/>
    </contour>
    <contour>
      <point x="431" y="37" type="line"/>
      <point x="431" y="-127" type="line"/>
      <point x="517" y="-127" type="line"/>
      <point x="517" y="37" type="line"/>
    </contour>
  </outline>
</glyph>
<glyph name="ttha_gran" format="2">
  <advance width="724"/>
  <unicode hex="11320"/>
  <anchor x="362" y="-100" name="anudatta"/>
  <anchor x="724" y="0" name="anusvara"/>
  <anchor x="362" y="-60" name="bottom"/>
  <anchor x="389" y="615" name="iiMatra"/>
  <anchor x="724" y="0" name="post"/>
  <anchor x="624" y="0" name="repha"/>
  <anchor x="362" y="900" name="svara"/>
  <anchor x="362" y="640" name="top"/>
  <anchor x="675" y="566" name="topright"/>
  <anchor x="766" y="0" name="vattu"/>
  <anchor x="505" y="475" name="virama"/>
  <anchor x="668" y="0" name="yaphalaa"/>
  <outline>
    <contour>
      <point x="362" y="-17" type="curve" smooth="yes"/>
      <point x="536" y="-17"/>
      <point x="654" y="109"/>
      <point x="654" y="278" type="curve" smooth="yes"/>
      <point x="654" y="446"/>
      <point x="536" y="571"/>
      <point x="362" y="571" type="curve" smooth="yes"/>
      <point x="188" y="571"/>
      <point x="70" y="446"/>
      <point x="70" y="278" type="curve" smooth="yes"/>
      <point x="70" y="109"/>
      <point x="188" y="-17"/>
    </contour>
    <contour>
      <point x="362" y="55" type="curve" smooth="yes"/>
      <point x="248" y="55"/>
      <point x="156" y="149"/>
      <point x="156" y="278" type="curve" smooth="yes"/>
      <point x="156" y="406"/>
      <point x="248" y="499"/>
      <point x="362" y="499" type="curve" smooth="yes"/>
      <point x="476" y="499"/>
      <point x="568" y="406"/>
      <point x="568" y="278" type="curve" smooth="yes"/>
      <point x="568" y="149"/>
      <point x="476" y="55"/>
    </contour>
  </outline>
</glyph>
<glyph name="dda_gran" format="2">
  <advance width="983"/>
  <unicode hex="11321"/>
  <outline>
    <contour>
      <point x="157" y="515" type="line"/>
      <point x="209" y="515"/>
      <point x="254" y="488"/>
      <point x="254" y="446" type="curve" smooth="yes"/>
      <point x="254" y="422"/>
      <point x="239" y="392"/>
      <point x="202" y="392" type="curve" smooth="yes"/>
      <point x="173" y="392"/>
      <point x="146" y="411"/>
      <point x="146" y="447" type="curve" smooth="yes"/>
      <point x="146" y="498"/>
      <point x="202" y="530"/>
      <point x="270" y="530" type="curve" smooth="yes"/>
      <point x="345" y="530"/>
      <point x="395" y="481"/>
      <point x="395" y="416" type="curve" smooth="yes"/>
      <point x="395" y="344"/>
      <point x="332" y="322"/>
      <point x="231" y="268" type="curve" smooth="yes"/>
      <point x="147" y="223"/>
      <point x="93" y="185"/>
      <point x="93" y="114" type="curve" smooth="yes"/>
      <point x="93" y="36"/>
      <point x="157" y="-22"/>
      <point x="271" y="-22" type="curve" smooth="yes"/>
      <point x="392" y="-22"/>
      <point x="476" y="48"/>
      <point x="513" y="131" type="curve"/>
      <point x="494" y="131" type="line"/>
      <point x="515" y="56"/>
      <point x="573" y="-22"/>
      <point x="680" y="-22" type="curve" smooth="yes"/>
      <point x="841" y="-22"/>
      <point x="913" y="151"/>
      <point x="913" y="294" type="curve" smooth="yes"/>
      <point x="913" y="509"/>
      <point x="779" y="588"/>
      <point x="668" y="601" type="curve"/>
      <point x="653" y="528" type="line"/>
      <point x="725" y="513"/>
      <point x="827" y="465"/>
      <point x="827" y="290" type="curve" smooth="yes"/>
      <point x="827" y="163"/>
      <point x="769" y="51"/>
      <point x="676" y="51" type="curve" smooth="yes"/>
      <point x="587" y="51"/>
      <point x="554" y="156"/>
      <point x="545" y="189" type="curve"/>
      <point x="464" y="189" type="line"/>
      <point x="446" y="134"/>
      <point x="396" y="50"/>
      <point x="284" y="50" type="curve" smooth="yes"/>
      <point x="225" y="50"/>
      <point x="179" y="71"/>
      <point x="179" y="113" type="curve" smooth="yes"/>
      <point x="179" y="150"/>
      <point x="216" y="171"/>
      <point x="287" y="212" type="curve" smooth="yes"/>
      <point x="410" y="283"/>
      <point x="481" y="335"/>
      <point x="481" y="424" type="curve" smooth="yes"/>
      <point x="481" y="528"/>
      <point x="387" y="601"/>
      <point x="280" y="601" type="curve" smooth="yes"/>
      <point x="171" y="601"/>
      <point x="70" y="540"/>
      <point x="70" y="442" type="curve" smooth="yes"/>
      <point x="70" y="363"/>
      <point x="137" y="319"/>
      <point x="199" y="319" type="curve" smooth="yes"/>
      <point x="274" y="319"/>
      <point x="330" y="380"/>
      <point x="330" y="444" type="curve" smooth="yes"/>
      <point x="330" y="504"/>
      <point x="281" y="556"/>
      <point x="188" y="561" type="curve"/>
    </contour>
  </outline>
</glyph>
<glyph name="ddha_gran" format="2">
  <advance width="1025"/>
  <unicode hex="11322"/>
  <anchor x="512" y="-100" name="anudatta"/>
  <anchor x="1025" y="0" name="anusvara"/>
  <anchor x="512" y="-60" name="bottom"/>
  <anchor x="753" y="648" name="iiMatra"/>
  <anchor x="1025" y="0" name="post"/>
  <anchor x="915" y="0" name="repha"/>
  <anchor x="512" y="900" name="svara"/>
  <anchor x="512" y="640" name="top"/>
  <anchor x="1025" y="566" name="topright"/>
  <anchor x="1066" y="0" name="vattu"/>
  <anchor x="895" y="495" name="virama"/>
  <anchor x="948" y="0" name="yaphalaa"/>
  <outline>
    <contour>
      <point x="869" y="334" type="curve" smooth="yes"/>
      <point x="869" y="193"/>
      <point x="794" y="51"/>
      <point x="682" y="51" type="curve" smooth="yes"/>
      <point x="587" y="51"/>
      <point x="554" y="156"/>
      <point x="545" y="189" type="curve"/>
      <point x="464" y="189" type="line"/>
      <point x="446" y="134"/>
      <point x="396" y="50"/>
      <point x="281" y="50" type="curve" smooth="yes"/>
      <point x="225" y="50"/>
      <point x="179" y="71"/>
      <point x="179" y="113" type="curve" smooth="yes"/>
      <point x="179" y="150"/>
      <point x="214" y="170"/>
      <point x="287" y="212" type="curve" smooth="yes"/>
      <point x="410" y="283"/>
      <point x="481" y="335"/>
      <point x="481" y="424" type="curve" smooth="yes"/>
      <point x="481" y="528"/>
      <point x="387" y="601"/>
      <point x="274" y="601" type="curve" smooth="yes"/>
      <point x="171" y="601"/>
      <point x="70" y="540"/>
      <point x="70" y="442" type="curve" smooth="yes"/>
      <point x="70" y="363"/>
      <point x="137" y="319"/>
      <point x="199" y="319" type="curve" smooth="yes"/>
      <point x="274" y="319"/>
      <point x="330" y="380"/>
      <point x="330" y="444" type="curve" smooth="yes"/>
      <point x="330" y="504"/>
      <point x="281" y="556"/>
      <point x="188" y="561" type="curve"/>
      <point x="157" y="515" type="line"/>
      <point x="209" y="515"/>
      <point x="254" y="488"/>
      <point x="254" y="446" type="curve" smooth="yes"/>
      <point x="254" y="422"/>
      <point x="239" y="392"/>
      <point x="202" y="392" type="curve" smooth="yes"/>
      <point x="173" y="392"/>
      <point x="146" y="411"/>
      <point x="146" y="447" type="curve" smooth="yes"/>
      <point x="146" y="498"/>
      <point x="202" y="530"/>
      <point x="266" y="530" type="curve" smooth="yes"/>
      <point x="345" y="530"/>
      <point x="395" y="481"/>
      <point x="395" y="416" type="curve" smooth="yes"/>
      <point x="395" y="344"/>
      <point x="332" y="322"/>
      <point x="231" y="268" type="curve" smooth="yes"/>
      <point x="148" y="223"/>
      <point x="93" y="185"/>
      <point x="93" y="114" type="curve" smooth="yes"/>
      <point x="93" y="36"/>
      <point x="157" y="-22"/>
      <point x="266" y="-22" type="curve" smooth="yes"/>
      <point x="392" y="-22"/>
      <point x="476" y="48"/>
      <point x="513" y="131" type="curve"/>
      <point x="494" y="131" type="line"/>
      <point x="515" y="56"/>
      <point x="573" y="-22"/>
      <point x="682" y="-22" type="curve" smooth="yes"/>
      <point x="844" y="-22"/>
      <point x="955" y="142"/>
      <point x="955" y="336" type="curve" smooth="yes"/>
      <point x="955" y="502"/>
      <point x="874" y="605"/>
      <point x="743" y="605" type="curve" smooth="yes"/>
      <point x="642" y="605"/>
      <point x="550" y="546"/>
      <point x="550" y="449" type="curve" smooth="yes"/>
      <point x="550" y="369"/>
      <point x="614" y="324"/>
      <point x="679" y="324" type="curve" smooth="yes"/>
      <point x="755" y="324"/>
      <point x="806" y="382"/>
      <point x="806" y="440" type="curve" smooth="yes"/>
      <point x="806" y="503"/>
      <point x="747" y="554"/>
      <point x="659" y="560" type="curve"/>
      <point x="637" y="519" type="line"/>
      <point x="690" y="520"/>
      <point x="734" y="486"/>
      <point x="734" y="446" type="curve" smooth="yes"/>
      <point x="734" y="422"/>
      <point x="718" y="396"/>
      <point x="683" y="396" type="curve" smooth="yes"/>
      <point x="652" y="396"/>
      <point x="630" y="417"/>
      <point x="630" y="452" type="curve" smooth="yes"/>
      <point x="630" y="504"/>
      <point x="681" y="541"/>
      <point x="734" y="541" type="curve" smooth="yes"/>
      <point x="813" y="541"/>
      <point x="869" y="460"/>
    </contour>
  </outline>
</glyph>
<glyph name="nna_gran" format="2">
  <advance width="1671"/>
  <unicode hex="11323"/>
  <anchor x="860" y="-100" name="anudatta"/>
  <anchor x="1605" y="0" name="anusvara"/>
  <anchor x="860" y="-60" name="bottom"/>
  <anchor x="1415" y="628" name="iiMatra"/>
  <anchor x="1701" y="0" name="post"/>
  <anchor x="1601" y="0" name="repha"/>
  <anchor x="860" y="900" name="svara"/>
  <anchor x="860" y="640" name="top"/>
  <anchor x="1751" y="566" name="topright"/>
  <anchor x="1656" y="0" name="vattu"/>
  <anchor x="1490" y="475" name="virama"/>
  <anchor x="1628" y="0" name="yaphalaa"/>
  <outline>
    <contour>
      <point x="269" y="-12" type="curve" smooth="yes"/>
      <point x="376" y="-12"/>
      <point x="442" y="54"/>
      <point x="442" y="165" type="curve" smooth="yes"/>
      <point x="442" y="265"/>
      <point x="377" y="328"/>
      <point x="281" y="328" type="curve" smooth="yes"/>
      <point x="215" y="328"/>
      <point x="153" y="295"/>
      <point x="113" y="248" type="curve"/>
      <point x="128" y="184" type="line"/>
      <point x="167" y="227"/>
      <point x="214" y="258"/>
      <point x="267" y="258" type="curve" smooth="yes"/>
      <point x="322" y="258"/>
      <point x="360" y="221"/>
      <point x="360" y="155" type="curve" smooth="yes"/>
      <point x="360" y="91"/>
      <point x="327" y="56"/>
      <point x="273" y="56" type="curve" smooth="yes"/>
      <point x="207" y="56"/>
      <point x="156" y="103"/>
      <point x="156" y="233" type="curve" smooth="yes"/>
      <point x="156" y="393"/>
      <point x="260" y="502"/>
      <point x="438" y="502" type="curve" smooth="yes"/>
      <point x="625" y="502"/>
      <point x="760" y="381"/>
      <point x="760" y="182" type="curve" smooth="yes"/>
      <point x="760" y="121"/>
      <point x="742" y="56"/>
      <point x="680" y="56" type="curve" smooth="yes"/>
      <point x="631" y="56"/>
      <point x="601" y="97"/>
      <point x="601" y="189" type="curve" smooth="yes"/>
      <point x="601" y="378"/>
      <point x="701" y="503"/>
      <point x="888" y="503" type="curve" smooth="yes"/>
      <point x="1062" y="503"/>
      <point x="1175" y="358"/>
      <point x="1175" y="182" type="curve" smooth="yes"/>
      <point x="1175" y="121"/>
      <point x="1157" y="56"/>
      <point x="1094" y="56" type="curve" smooth="yes"/>
      <point x="1046" y="56"/>
      <point x="1016" y="97"/>
      <point x="1016" y="189" type="curve" smooth="yes"/>
      <point x="1016" y="397"/>
      <point x="1123" y="494"/>
      <point x="1330" y="494" type="curve" smooth="yes"/>
      <point x="1395" y="494" type="line"/>
      <point x="1395" y="0" type="line"/>
      <point x="1481" y="0" type="line"/>
      <point x="1481" y="494" type="line"/>
      <point x="1651" y="494" type="line"/>
      <point x="1651" y="566" type="line"/>
      <point x="1353" y="566" type="line" smooth="yes"/>
      <point x="1092" y="566"/>
      <point x="932" y="432"/>
      <point x="932" y="186" type="curve" smooth="yes"/>
      <point x="932" y="72"/>
      <point x="982" y="-12"/>
      <point x="1097" y="-12" type="curve" smooth="yes"/>
      <point x="1198" y="-12"/>
      <point x="1260" y="56"/>
      <point x="1260" y="189" type="curve" smooth="yes"/>
      <point x="1260" y="396"/>
      <point x="1100" y="576"/>
      <point x="886" y="576" type="curve" smooth="yes"/>
      <point x="673" y="576"/>
      <point x="517" y="410"/>
      <point x="517" y="186" type="curve" smooth="yes"/>
      <point x="517" y="72"/>
      <point x="567" y="-12"/>
      <point x="683" y="-12" type="curve" smooth="yes"/>
      <point x="783" y="-12"/>
      <point x="845" y="56"/>
      <point x="845" y="189" type="curve" smooth="yes"/>
      <point x="845" y="409"/>
      <point x="673" y="576"/>
      <point x="438" y="576" type="curve" smooth="yes"/>
      <point x="225" y="576"/>
      <point x="70" y="428"/>
      <point x="70" y="231" type="curve" smooth="yes"/>
      <point x="70" y="51"/>
      <point x="162" y="-12"/>
    </contour>
  </outline>
</glyph>
<glyph name="ta_gran" format="2">
  <advance width="830"/>
  <unicode hex="11324"/>
  <outline>
    <contour>
      <point x="264" y="-12" type="curve" smooth="yes"/>
      <point x="433" y="-12"/>
      <point x="499" y="80"/>
      <point x="499" y="246" type="curve" smooth="yes"/>
      <point x="499" y="494" type="line"/>
      <point x="686" y="494" type="line"/>
      <point x="686" y="566" type="line"/>
      <point x="163" y="566" type="line"/>
      <point x="163" y="286" type="line"/>
      <point x="242" y="286" type="line"/>
      <point x="242" y="494" type="line"/>
      <point x="414" y="494" type="line"/>
      <point x="414" y="213" type="line" smooth="yes"/>
      <point x="414" y="94"/>
      <point x="359" y="60"/>
      <point x="272" y="60" type="curve" smooth="yes"/>
      <point x="195" y="60"/>
      <point x="138" y="91"/>
      <point x="138" y="153" type="curve" smooth="yes"/>
      <point x="138" y="238"/>
      <point x="216" y="276"/>
      <point x="328" y="276" type="curve" smooth="yes"/>
      <point x="470" y="276" type="line" smooth="yes"/>
      <point x="578" y="276"/>
      <point x="694" y="235"/>
      <point x="694" y="105" type="curve" smooth="yes"/>
      <point x="694" y="-56"/>
      <point x="559" y="-84"/>
      <point x="357" y="-84" type="curve" smooth="yes"/>
      <point x="248" y="-84" type="line" smooth="yes"/>
      <point x="181" y="-84"/>
      <point x="142" y="-94"/>
      <point x="107" y="-119" type="curve" smooth="yes"/>
      <point x="73" y="-144"/>
      <point x="50" y="-184"/>
      <point x="50" y="-243" type="curve" smooth="yes"/>
      <point x="50" y="-266"/>
      <point x="53" y="-297"/>
      <point x="57" y="-321" type="curve"/>
      <point x="139" y="-317" type="line"/>
      <point x="137" y="-301"/>
      <point x="136" y="-283"/>
      <point x="136" y="-263" type="curve" smooth="yes"/>
      <point x="136" y="-219"/>
      <point x="148" y="-194"/>
      <point x="170" y="-179" type="curve" smooth="yes"/>
      <point x="192" y="-164"/>
      <point x="219" y="-156"/>
      <point x="275" y="-156" type="curve" smooth="yes"/>
      <point x="388" y="-156" type="line" smooth="yes"/>
      <point x="614" y="-156"/>
      <point x="780" y="-101"/>
      <point x="780" y="98" type="curve" smooth="yes"/>
      <point x="780" y="271"/>
      <point x="654" y="348"/>
      <point x="480" y="348" type="curve" smooth="yes"/>
      <point x="335" y="348" type="line" smooth="yes"/>
      <point x="132" y="348"/>
      <point x="52" y="260"/>
      <point x="52" y="152" type="curve" smooth="yes"/>
      <point x="52" y="47"/>
      <point x="143" y="-12"/>
    </contour>
  </outline>
</glyph>
<glyph name="tha_gran" format="2">
  <advance width="1078"/>
  <unicode hex="11325"/>
  <outline>
    <contour>
      <point x="440" y="266" type="line"/>
      <point x="374" y="266" type="line"/>
      <point x="374" y="170" type="line" smooth="yes"/>
      <point x="374" y="-15"/>
      <point x="521" y="-96"/>
      <point x="665" y="-96" type="curve" smooth="yes"/>
      <point x="927" y="-96"/>
      <point x="1008" y="132"/>
      <point x="1008" y="339" type="curve" smooth="yes"/>
      <point x="1008" y="520"/>
      <point x="915" y="579"/>
      <point x="816" y="579" type="curve" smooth="yes"/>
      <point x="703" y="579"/>
      <point x="625" y="511"/>
      <point x="625" y="410" type="curve" smooth="yes"/>
      <point x="625" y="307"/>
      <point x="706" y="259"/>
      <point x="787" y="259" type="curve" smooth="yes"/>
      <point x="892" y="259"/>
      <point x="957" y="338"/>
      <point x="977" y="415" type="curve"/>
      <point x="932" y="458" type="line"/>
      <point x="919" y="377"/>
      <point x="872" y="331"/>
      <point x="806" y="331" type="curve" smooth="yes"/>
      <point x="747" y="331"/>
      <point x="711" y="366"/>
      <point x="711" y="416" type="curve" smooth="yes"/>
      <point x="711" y="474"/>
      <point x="763" y="507"/>
      <point x="812" y="507" type="curve" smooth="yes"/>
      <point x="857" y="507"/>
      <point x="922" y="469"/>
      <point x="922" y="346" type="curve" smooth="yes"/>
      <point x="922" y="201"/>
      <point x="903" y="-24"/>
      <point x="664" y="-24" type="curve" smooth="yes"/>
      <point x="555" y="-24"/>
      <point x="440" y="31"/>
      <point x="440" y="179" type="curve" smooth="yes"/>
    </contour>
    <contour>
      <point x="260" y="-11" type="curve" smooth="yes"/>
      <point x="387" y="-11"/>
      <point x="440" y="63"/>
      <point x="440" y="213" type="curve" smooth="yes"/>
      <point x="440" y="566" type="line"/>
      <point x="354" y="566" type="line"/>
      <point x="354" y="183" type="line" smooth="yes"/>
      <point x="354" y="94"/>
      <point x="310" y="61"/>
      <point x="260" y="61" type="curve" smooth="yes"/>
      <point x="211" y="61"/>
      <point x="166" y="91"/>
      <point x="166" y="183" type="curve" smooth="yes"/>
      <point x="166" y="566" type="line"/>
      <point x="80" y="566" type="line"/>
      <point x="80" y="213" type="line" smooth="yes"/>
      <point x="80" y="66"/>
      <point x="130" y="-11"/>
    </contour>
  </outline>
</glyph>
<glyph name="da_gran" format="2">
  <advance width="783"/>
  <unicode hex="11326"/>
  <outline>
    <contour>
      <point x="321" y="576" type="curve" smooth="yes"/>
      <point x="180" y="576"/>
      <point x="70" y="520"/>
      <point x="70" y="406" type="curve" smooth="yes"/>
      <point x="70" y="313"/>
      <point x="134" y="254"/>
      <point x="230" y="254" type="curve" smooth="yes"/>
      <point x="337" y="254"/>
      <point x="396" y="319"/>
      <point x="396" y="403" type="curve" smooth="yes"/>
      <point x="396" y="465"/>
      <point x="366" y="508"/>
      <point x="331" y="537" type="curve"/>
      <point x="271" y="520" type="line"/>
      <point x="305" y="488"/>
      <point x="318" y="450"/>
      <point x="318" y="412" type="curve" smooth="yes"/>
      <point x="318" y="354"/>
      <point x="283" y="322"/>
      <point x="232" y="322" type="curve" smooth="yes"/>
      <point x="173" y="322"/>
      <point x="149" y="359"/>
      <point x="149" y="403" type="curve" smooth="yes"/>
      <point x="149" y="475"/>
      <point x="214" y="507"/>
      <point x="323" y="507" type="curve" smooth="yes"/>
      <point x="419" y="507"/>
      <point x="529" y="481"/>
      <point x="529" y="359" type="curve" smooth="yes"/>
      <point x="529" y="294"/>
      <point x="497" y="222"/>
      <point x="315" y="205" type="curve" smooth="yes"/>
      <point x="240" y="198" type="line" smooth="yes"/>
      <point x="119" y="187"/>
      <point x="75" y="152"/>
      <point x="75" y="92" type="curve" smooth="yes"/>
      <point x="75" y="39"/>
      <point x="110" y="0"/>
      <point x="204" y="0" type="curve" smooth="yes"/>
      <point x="763" y="0" type="line"/>
      <point x="763" y="72" type="line"/>
      <point x="195" y="72" type="line" smooth="yes"/>
      <point x="169" y="72"/>
      <point x="159" y="80"/>
      <point x="159" y="93" type="curve" smooth="yes"/>
      <point x="159" y="113"/>
      <point x="180" y="121"/>
      <point x="242" y="127" type="curve" smooth="yes"/>
      <point x="322" y="135" type="line" smooth="yes"/>
      <point x="496" y="153"/>
      <point x="615" y="203"/>
      <point x="615" y="359" type="curve" smooth="yes"/>
      <point x="615" y="477"/>
      <point x="535" y="576"/>
    </contour>
    <contour>
      <point x="401" y="37" type="line"/>
      <point x="401" y="-127" type="line"/>
      <point x="487" y="-127" type="line"/>
      <point x="487" y="37" type="line"/>
    </contour>
  </outline>
</glyph>
<glyph name="dha_gran" format="2">
  <advance width="1045"/>
  <unicode hex="11327"/>
  <anchor x="527" y="-180" name="anudatta"/>
  <anchor x="1045" y="0" name="anusvara"/>
  <anchor x="527" y="-90" name="bottom"/>
  <anchor x="1045" y="0" name="post"/>
  <anchor x="945" y="0" name="repha"/>
  <anchor x="522" y="900" name="svara"/>
  <anchor x="522" y="640" name="top"/>
  <anchor x="1035" y="566" name="topright"/>
  <anchor x="1087" y="0" name="vattu"/>
  <anchor x="977" y="0" name="yaphalaa"/>
  <outline>
    <contour>
      <point x="374" y="130" type="line" smooth="yes"/>
      <point x="374" y="-15"/>
      <point x="485" y="-97"/>
      <point x="629" y="-97" type="curve" smooth="yes"/>
      <point x="760" y="-97"/>
      <point x="975" y="-22"/>
      <point x="975" y="248" type="curve" smooth="yes"/>
      <point x="975" y="418"/>
      <point x="866" y="554"/>
      <point x="718" y="576" type="curve"/>
      <point x="706" y="504" type="line"/>
      <point x="789" y="488"/>
      <point x="889" y="383"/>
      <point x="889" y="237" type="curve" smooth="yes"/>
      <point x="889" y="64"/>
      <point x="769" y="-25"/>
      <point x="638" y="-25" type="curve" smooth="yes"/>
      <point x="522" y="-25"/>
      <point x="440" y="31"/>
      <point x="440" y="137" type="curve" smooth="yes"/>
      <point x="440" y="266" type="line"/>
      <point x="374" y="266" type="line"/>
    </contour>
    <contour>
      <point x="260" y="-11" type="curve" smooth="yes"/>
      <point x="387" y="-11"/>
      <point x="440" y="63"/>
      <point x="440" y="213" type="curve" smooth="yes"/>
      <point x="440" y="566" type="line"/>
      <point x="354" y="566" type="line"/>
      <point x="354" y="183" type="line" smooth="yes"/>
      <point x="354" y="94"/>
      <point x="310" y="61"/>
      <point x="260" y="61" type="curve" smooth="yes"/>
      <point x="211" y="61"/>
      <point x="166" y="91"/>
      <point x="166" y="183" type="curve" smooth="yes"/>
      <point x="166" y="566" type="line"/>
      <point x="80" y="566" type="line"/>
      <point x="80" y="213" type="line" smooth="yes"/>
      <point x="80" y="66"/>
      <point x="130" y="-11"/>
    </contour>
  </outline>
</glyph>
<glyph name="na_gran" format="2">
  <advance width="793"/>
  <unicode hex="11328"/>
  <outline>
    <contour>
      <point x="80" y="0" type="line"/>
      <point x="166" y="0" type="line"/>
      <point x="166" y="494" type="line"/>
      <point x="340" y="494" type="line"/>
      <point x="340" y="0" type="line"/>
      <point x="426" y="0" type="line"/>
      <point x="426" y="494" type="line"/>
      <point x="601" y="494" type="line"/>
      <point x="601" y="566" type="line"/>
      <point x="80" y="566" type="line"/>
    </contour>
    <contour>
      <point x="549" y="362" type="curve" smooth="yes"/>
      <point x="496" y="362"/>
      <point x="454" y="343"/>
      <point x="419" y="322" type="curve"/>
      <point x="422" y="247" type="line"/>
      <point x="450" y="270"/>
      <point x="490" y="289"/>
      <point x="528" y="289" type="curve" smooth="yes"/>
      <point x="605" y="289"/>
      <point x="647" y="234"/>
      <point x="647" y="131" type="curve" smooth="yes"/>
      <point x="647" y="61"/>
      <point x="629" y="15"/>
      <point x="602" y="-14" type="curve" smooth="yes"/>
      <point x="556" y="-64"/>
      <point x="493" y="-84"/>
      <point x="330" y="-84" type="curve" smooth="yes"/>
      <point x="237" y="-84" type="line" smooth="yes"/>
      <point x="170" y="-84"/>
      <point x="131" y="-94"/>
      <point x="96" y="-119" type="curve" smooth="yes"/>
      <point x="62" y="-144"/>
      <point x="39" y="-184"/>
      <point x="39" y="-243" type="curve" smooth="yes"/>
      <point x="39" y="-266"/>
      <point x="42" y="-297"/>
      <point x="46" y="-321" type="curve"/>
      <point x="128" y="-317" type="line"/>
      <point x="126" y="-301"/>
      <point x="125" y="-283"/>
      <point x="125" y="-263" type="curve" smooth="yes"/>
      <point x="125" y="-219"/>
      <point x="137" y="-194"/>
      <point x="159" y="-179" type="curve" smooth="yes"/>
      <point x="181" y="-164"/>
      <point x="208" y="-156"/>
      <point x="264" y="-156" type="curve" smooth="yes"/>
      <point x="339" y="-156" type="line" smooth="yes"/>
      <point x="483" y="-156"/>
      <point x="569" y="-141"/>
      <point x="634" y="-94" type="curve" smooth="yes"/>
      <point x="696" y="-49"/>
      <point x="733" y="14"/>
      <point x="733" y="134" type="curve" smooth="yes"/>
      <point x="733" y="282"/>
      <point x="650" y="362"/>
    </contour>
  </outline>
</glyph>
<glyph name="pa_gran" format="2">
  <advance width="1456"/>
  <unicode hex="1132A"/>
  <outline>
    <contour>
      <point x="1376" y="0" type="line"/>
      <point x="1376" y="566" type="line"/>
      <point x="1290" y="566" type="line"/>
      <point x="1290" y="0" type="line"/>
    </contour>
    <component base="pa.base"/>
  </outline>
</glyph>
<glyph name="ba_gran" format="2">
  <advance width="1564"/>
  <unicode hex="1132C"/>
  <outline>
    <contour>
      <point x="1484" y="0" type="line"/>
      <point x="1484" y="566" type="line"/>
      <point x="1398" y="566" type="line"/>
      <point x="1398" y="0" type="line"/>
    </contour>
    <component base="ba.base"/>
  </outline>
</glyph>
<glyph name="bha_gran" format="2">
  <advance width="1325"/>
  <unicode hex="1132D"/>
  <anchor x="659" y="-240" name="anudatta"/>
  <anchor x="1318" y="0" name="anusvara"/>
  <anchor x="664" y="-200" name="bottom"/>
  <anchor x="1014" y="628" name="iiMatra"/>
  <anchor x="1318" y="0" name="post"/>
  <anchor x="1268" y="0" name="repha"/>
  <anchor x="659" y="900" name="svara"/>
  <anchor x="659" y="640" name="top"/>
  <anchor x="1318" y="566" name="topright"/>
  <anchor x="1368" y="0" name="vattu"/>
  <anchor x="1086" y="491" name="virama"/>
  <anchor x="1256" y="0" name="yaphalaa"/>
  <outline>
    <contour>
      <point x="888" y="158" type="curve" smooth="yes"/>
      <point x="888" y="319" type="line" smooth="yes"/>
      <point x="888" y="421"/>
      <point x="923" y="504"/>
      <point x="1019" y="504" type="curve" smooth="yes"/>
      <point x="1110" y="504"/>
      <point x="1166" y="428"/>
      <point x="1166" y="247" type="curve" smooth="yes"/>
      <point x="1166" y="-29"/>
      <point x="1063" y="-84"/>
      <point x="816" y="-84" type="curve" smooth="yes"/>
      <point x="268" y="-84" type="line" smooth="yes"/>
      <point x="201" y="-84"/>
      <point x="162" y="-94"/>
      <point x="127" y="-119" type="curve" smooth="yes"/>
      <point x="93" y="-144"/>
      <point x="70" y="-184"/>
      <point x="70" y="-243" type="curve" smooth="yes"/>
      <point x="70" y="-266"/>
      <point x="73" y="-297"/>
      <point x="77" y="-321" type="curve"/>
      <point x="159" y="-317" type="line"/>
      <point x="157" y="-301"/>
      <point x="156" y="-283"/>
      <point x="156" y="-263" type="curve" smooth="yes"/>
      <point x="156" y="-219"/>
      <point x="168" y="-194"/>
      <point x="190" y="-179" type="curve" smooth="yes"/>
      <point x="212" y="-164"/>
      <point x="239" y="-156"/>
      <point x="295" y="-156" type="curve" smooth="yes"/>
      <point x="838" y="-156" type="line" smooth="yes"/>
      <point x="955" y="-156"/>
      <point x="1063" y="-140"/>
      <point x="1140" y="-77" type="curve" smooth="yes"/>
      <point x="1211" y="-19"/>
      <point x="1255" y="81"/>
      <point x="1255" y="244" type="curve" smooth="yes"/>
      <point x="1255" y="449"/>
      <point x="1172" y="576"/>
      <point x="1020" y="576" type="curve" smooth="yes"/>
      <point x="889" y="576"/>
      <point x="802" y="474"/>
      <point x="802" y="341" type="curve" smooth="yes"/>
      <point x="802" y="153" type="line" smooth="yes"/>
      <point x="802" y="108"/>
      <point x="780" y="60"/>
      <point x="737" y="60" type="curve" smooth="yes"/>
      <point x="696" y="60"/>
      <point x="671" y="103"/>
      <point x="671" y="153" type="curve" smooth="yes"/>
      <point x="671" y="280" type="line" smooth="yes"/>
      <point x="671" y="437"/>
      <point x="579" y="576"/>
      <point x="385" y="576" type="curve" smooth="yes"/>
      <point x="211" y="576"/>
      <point x="70" y="457"/>
      <point x="70" y="243" type="curve" smooth="yes"/>
      <point x="70" y="63"/>
      <point x="162" y="-12"/>
      <point x="269" y="-12" type="curve" smooth="yes"/>
      <point x="376" y="-12"/>
      <point x="446" y="54"/>
      <point x="446" y="165" type="curve" smooth="yes"/>
      <point x="446" y="265"/>
      <point x="377" y="328"/>
      <point x="281" y="328" type="curve" smooth="yes"/>
      <point x="216" y="328"/>
      <point x="153" y="295"/>
      <point x="113" y="248" type="curve"/>
      <point x="128" y="184" type="line"/>
      <point x="167" y="227"/>
      <point x="214" y="258"/>
      <point x="267" y="258" type="curve" smooth="yes"/>
      <point x="322" y="258"/>
      <point x="360" y="221"/>
      <point x="360" y="155" type="curve" smooth="yes"/>
      <point x="360" y="91"/>
      <point x="325" y="60"/>
      <point x="273" y="60" type="curve" smooth="yes"/>
      <point x="207" y="60"/>
      <point x="156" y="103"/>
      <point x="156" y="237" type="curve" smooth="yes"/>
      <point x="156" y="383"/>
      <point x="240" y="504"/>
      <point x="380" y="504" type="curve" smooth="yes"/>
      <point x="504" y="504"/>
      <point x="583" y="411"/>
      <point x="583" y="269" type="curve" smooth="yes"/>
      <point x="583" y="158" type="line" smooth="yes"/>
      <point x="583" y="27"/>
      <point x="669" y="-12"/>
      <point x="734" y="-12" type="curve" smooth="yes"/>
      <point x="833" y="-12"/>
      <point x="888" y="76"/>
    </contour>
  </outline>
</glyph>
<glyph name="ma_gran" format="2">
  <advance width="665"/>
  <unicode hex="1132E"/>
  <outline>
    <contour>
      <point x="344" y="604" type="curve" smooth="yes"/>
      <point x="189" y="604"/>
      <point x="60" y="536"/>
      <point x="60" y="422" type="curve" smooth="yes"/>
      <point x="60" y="345"/>
      <point x="114" y="291"/>
      <point x="207" y="291" type="curve" smooth="yes"/>
      <point x="314" y="291"/>
      <point x="350" y="366"/>
      <point x="350" y="427" type="curve" smooth="yes"/>
      <point x="350" y="484"/>
      <point x="320" y="536"/>
      <point x="285" y="565" type="curve"/>
      <point x="221" y="548" type="line"/>
      <point x="255" y="516"/>
      <point x="268" y="469"/>
      <point x="268" y="436" type="curve" smooth="yes"/>
      <point x="268" y="393"/>
      <point x="246" y="359"/>
      <point x="204" y="359" type="curve" smooth="yes"/>
      <point x="166" y="359"/>
      <point x="139" y="387"/>
      <point x="139" y="430" type="curve" smooth="yes"/>
      <point x="139" y="505"/>
      <point x="220" y="532"/>
      <point x="333" y="532" type="curve" smooth="yes"/>
      <point x="453" y="532"/>
      <point x="509" y="488"/>
      <point x="509" y="411" type="curve" smooth="yes"/>
      <point x="509" y="350"/>
      <point x="475" y="311"/>
      <point x="376" y="272" type="curve" smooth="yes"/>
      <point x="268" y="230" type="line" smooth="yes"/>
      <point x="135" y="178"/>
      <point x="83" y="125"/>
      <point x="83" y="49" type="curve" smooth="yes"/>
      <point x="83" y="-48"/>
      <point x="170" y="-112"/>
      <point x="301" y="-112" type="curve" smooth="yes"/>
      <point x="455" y="-112"/>
      <point x="574" y="-15"/>
      <point x="574" y="96" type="curve" smooth="yes"/>
      <point x="574" y="131"/>
      <point x="560" y="162"/>
      <point x="543" y="184" type="curve"/>
      <point x="476" y="154" type="line"/>
      <point x="489" y="138"/>
      <point x="500" y="115"/>
      <point x="500" y="91" type="curve" smooth="yes"/>
      <point x="500" y="19"/>
      <point x="406" y="-38"/>
      <point x="308" y="-38" type="curve" smooth="yes"/>
      <point x="253" y="-38"/>
      <point x="169" y="-19"/>
      <point x="169" y="48" type="curve" smooth="yes"/>
      <point x="169" y="94"/>
      <point x="209" y="133"/>
      <point x="276" y="160" type="curve" smooth="yes"/>
      <point x="382" y="202" type="line" smooth="yes"/>
      <point x="491" y="245"/>
      <point x="595" y="300"/>
      <point x="595" y="421" type="curve" smooth="yes"/>
      <point x="595" y="534"/>
      <point x="503" y="604"/>
    </contour>
  </outline>
</glyph>
<glyph name="ya_gran" format="2">
  <advance width="947"/>
  <unicode hex="1132F"/>
  <outline>
    <contour>
      <point x="867" y="0" type="line"/>
      <point x="867" y="566" type="line"/>
      <point x="781" y="566" type="line"/>
      <point x="781" y="0" type="line"/>
    </contour>
    <component base="ya.base"/>
  </outline>
</glyph>
<glyph name="ra_gran" format="2">
  <advance width="856"/>
  <unicode hex="11330"/>
  <outline>
    <contour>
      <point x="796" y="566" type="line"/>
      <point x="80" y="566" type="line"/>
      <point x="80" y="0" type="line"/>
      <point x="166" y="0" type="line"/>
      <point x="166" y="494" type="line"/>
      <point x="796" y="494" type="line"/>
    </contour>
    <contour>
      <point x="331" y="185" type="line" smooth="yes"/>
      <point x="331" y="105"/>
      <point x="339" y="-12"/>
      <point x="497" y="-12" type="curve" smooth="yes"/>
      <point x="655" y="-12"/>
      <point x="663" y="105"/>
      <point x="663" y="185" type="curve" smooth="yes"/>
      <point x="663" y="502" type="line"/>
      <point x="577" y="502" type="line"/>
      <point x="577" y="176" type="line" smooth="yes"/>
      <point x="577" y="110"/>
      <point x="565" y="58"/>
      <point x="497" y="58" type="curve" smooth="yes"/>
      <point x="429" y="58"/>
      <point x="417" y="110"/>
      <point x="417" y="176" type="curve" smooth="yes"/>
      <point x="417" y="502" type="line"/>
      <point x="331" y="502" type="line"/>
    </contour>
  </outline>
</glyph>
<glyph name="la_gran" format="2">
  <advance width="1145"/>
  <unicode hex="11332"/>
  <guideline x="148" y="-330" angle="90"/>
  <guideline x="996" y="-419" angle="90"/>
  <anchor x="562" y="-255" name="anudatta"/>
  <anchor x="1145" y="0" name="anusvara"/>
  <anchor x="572" y="-222" name="bottom"/>
  <anchor x="1145" y="0" name="post"/>
  <anchor x="1045" y="0" name="repha"/>
  <anchor x="572" y="900" name="svara"/>
  <anchor x="500" y="714" name="top"/>
  <anchor x="1145" y="566" name="topright"/>
  <anchor x="1189" y="0" name="vattu"/>
  <anchor x="1072" y="0" name="yaphalaa"/>
  <outline>
    <contour>
      <point x="492" y="580" type="curve" smooth="yes"/>
      <point x="646" y="580"/>
      <point x="766" y="512"/>
      <point x="768" y="327" type="curve" smooth="yes"/>
      <point x="769" y="245"/>
      <point x="745" y="160"/>
      <point x="679" y="160" type="curve" smooth="yes"/>
      <point x="611" y="160"/>
      <point x="590" y="250"/>
      <point x="590" y="333" type="curve" smooth="yes"/>
      <point x="590" y="344" type="line"/>
      <point x="512" y="344" type="line"/>
      <point x="512" y="333" type="line" smooth="yes"/>
      <point x="512" y="242"/>
      <point x="475" y="160"/>
      <point x="409" y="160" type="curve" smooth="yes"/>
      <point x="372" y="160"/>
      <point x="333" y="185"/>
      <point x="333" y="251" type="curve" smooth="yes"/>
      <point x="333" y="306"/>
      <point x="359" y="350"/>
      <point x="399" y="388" type="curve"/>
      <point x="334" y="433" type="line"/>
      <point x="279" y="382"/>
      <point x="247" y="322"/>
      <point x="247" y="251" type="curve" smooth="yes"/>
      <point x="247" y="146"/>
      <point x="312" y="88"/>
      <point x="406" y="88" type="curve" smooth="yes"/>
      <point x="492" y="88"/>
      <point x="537" y="138"/>
      <point x="559" y="194" type="curve"/>
      <point x="538" y="201" type="line"/>
      <point x="565" y="131"/>
      <point x="612" y="88"/>
      <point x="680" y="88" type="curve" smooth="yes"/>
      <point x="778" y="88"/>
      <point x="854" y="189"/>
      <point x="854" y="334" type="curve" smooth="yes"/>
      <point x="854" y="520"/>
      <point x="717" y="652"/>
      <point x="492" y="652" type="curve" smooth="yes"/>
      <point x="258" y="652"/>
      <point x="70" y="499"/>
      <point x="70" y="242" type="curve" smooth="yes"/>
      <point x="70" y="-54"/>
      <point x="285" y="-168"/>
      <point x="535" y="-168" type="curve" smooth="yes"/>
      <point x="860" y="-168"/>
      <point x="1075" y="16"/>
      <point x="1075" y="331" type="curve" smooth="yes"/>
      <point x="1075" y="504"/>
      <point x="1006" y="630"/>
      <point x="935" y="722" type="curve"/>
      <point x="868" y="679" type="line"/>
      <point x="942" y="590"/>
      <point x="989" y="485"/>
      <point x="989" y="327" type="curve" smooth="yes"/>
      <point x="989" y="52"/>
      <point x="826" y="-96"/>
      <point x="535" y="-96" type="curve" smooth="yes"/>
      <point x="325" y="-96"/>
      <point x="156" y="-19"/>
      <point x="156" y="243" type="curve" smooth="yes"/>
      <point x="156" y="473"/>
      <point x="299" y="580"/>
    </contour>
  </outline>
</glyph>
<glyph name="lla_gran" format="2">
  <advance width="1368"/>
  <unicode hex="11333"/>
  <anchor x="632" y="-100" name="anudatta"/>
  <anchor x="1397" y="0" name="anusvara"/>
  <anchor x="704" y="-60" name="bottom"/>
  <anchor x="1397" y="0" name="post"/>
  <anchor x="1399" y="0" name="repha"/>
  <anchor x="698" y="900" name="svara"/>
  <anchor x="622" y="640" name="top"/>
  <anchor x="1197" y="566" name="topright"/>
  <anchor x="1281" y="0" name="vattu"/>
  <anchor x="1065" y="458" name="virama"/>
  <anchor x="1329" y="0" name="yaphalaa"/>
  <outline>
    <contour>
      <point x="1134" y="326" type="curve" smooth="yes"/>
      <point x="1134" y="447"/>
      <point x="1052" y="576"/>
      <point x="867" y="576" type="curve" smooth="yes"/>
      <point x="757" y="576"/>
      <point x="669" y="525"/>
      <point x="622" y="425" type="curve"/>
      <point x="634" y="425" type="line"/>
      <point x="595" y="522"/>
      <point x="511" y="576"/>
      <point x="383" y="576" type="curve" smooth="yes"/>
      <point x="218" y="576"/>
      <point x="70" y="456"/>
      <point x="70" y="243" type="curve" smooth="yes"/>
      <point x="70" y="63"/>
      <point x="162" y="-12"/>
      <point x="269" y="-12" type="curve" smooth="yes"/>
      <point x="376" y="-12"/>
      <point x="446" y="54"/>
      <point x="446" y="165" type="curve" smooth="yes"/>
      <point x="446" y="265"/>
      <point x="377" y="328"/>
      <point x="281" y="328" type="curve" smooth="yes"/>
      <point x="216" y="328"/>
      <point x="153" y="295"/>
      <point x="113" y="248" type="curve"/>
      <point x="128" y="184" type="line"/>
      <point x="167" y="227"/>
      <point x="214" y="258"/>
      <point x="267" y="258" type="curve" smooth="yes"/>
      <point x="322" y="258"/>
      <point x="360" y="221"/>
      <point x="360" y="155" type="curve" smooth="yes"/>
      <point x="360" y="91"/>
      <point x="325" y="60"/>
      <point x="273" y="60" type="curve" smooth="yes"/>
      <point x="207" y="60"/>
      <point x="156" y="103"/>
      <point x="156" y="238" type="curve" smooth="yes"/>
      <point x="156" y="383"/>
      <point x="239" y="502"/>
      <point x="379" y="502" type="curve" smooth="yes"/>
      <point x="503" y="502"/>
      <point x="582" y="421"/>
      <point x="582" y="279" type="curve" smooth="yes"/>
      <point x="582" y="0" type="line"/>
      <point x="668" y="0" type="line"/>
      <point x="668" y="277" type="line" smooth="yes"/>
      <point x="668" y="404"/>
      <point x="742" y="502"/>
      <point x="863" y="502" type="curve" smooth="yes"/>
      <point x="969" y="502"/>
      <point x="1048" y="432"/>
      <point x="1048" y="321" type="curve" smooth="yes"/>
      <point x="1048" y="248"/>
      <point x="1013" y="220"/>
      <point x="965" y="193" type="curve" smooth="yes"/>
      <point x="922" y="169"/>
      <point x="878" y="151"/>
      <point x="878" y="94" type="curve" smooth="yes"/>
      <point x="878" y="26"/>
      <point x="941" y="0"/>
      <point x="995" y="0" type="curve" smooth="yes"/>
      <point x="1131" y="0"/>
      <point x="1202" y="0"/>
      <point x="1338" y="0" type="curve"/>
      <point x="1338" y="72" type="line"/>
      <point x="1025" y="72" type="line" smooth="yes"/>
      <point x="969" y="72"/>
      <point x="960" y="87"/>
      <point x="960" y="99" type="curve" smooth="yes"/>
      <point x="960" y="121"/>
      <point x="991" y="125"/>
      <point x="1029" y="146" type="curve" smooth="yes"/>
      <point x="1083" y="176"/>
      <point x="1134" y="231"/>
    </contour>
  </outline>
</glyph>
<glyph name="sha_gran" format="2">
  <advance width="1082"/>
  <unicode hex="11336"/>
  <outline>
    <contour>
      <point x="577" y="195" type="line" smooth="yes"/>
      <point x="577" y="115"/>
      <point x="585" y="-12"/>
      <point x="753" y="-12" type="curve" smooth="yes"/>
      <point x="921" y="-12"/>
      <point x="929" y="115"/>
      <point x="929" y="195" type="curve" smooth="yes"/>
      <point x="929" y="502" type="line"/>
      <point x="843" y="502" type="line"/>
      <point x="843" y="188" type="line" smooth="yes"/>
      <point x="843" y="122"/>
      <point x="831" y="60"/>
      <point x="753" y="60" type="curve" smooth="yes"/>
      <point x="675" y="60"/>
      <point x="663" y="122"/>
      <point x="663" y="188" type="curve" smooth="yes"/>
      <point x="663" y="502" type="line"/>
      <point x="577" y="502" type="line"/>
    </contour>
    <contour>
      <point x="346" y="566" type="line"/>
      <point x="346" y="188" type="line" smooth="yes"/>
      <point x="346" y="122"/>
      <point x="334" y="60"/>
      <point x="256" y="60" type="curve" smooth="yes"/>
      <point x="178" y="60"/>
      <point x="166" y="122"/>
      <point x="166" y="188" type="curve" smooth="yes"/>
      <point x="166" y="566" type="line"/>
      <point x="80" y="566" type="line"/>
      <point x="80" y="195" type="line" smooth="yes"/>
      <point x="80" y="115"/>
      <point x="88" y="-12"/>
      <point x="256" y="-12" type="curve" smooth="yes"/>
      <point x="424" y="-12"/>
      <point x="432" y="115"/>
      <point x="432" y="195" type="curve" smooth="yes"/>
      <point x="432" y="494" type="line"/>
      <point x="1042" y="494" type="line"/>
      <point x="1042" y="566" type="line"/>
    </contour>
  </outline>
</glyph>
<glyph name="ssa_gran" format="2">
  <advance width="1369"/>
  <unicode hex="11337"/>
  <guideline x="998" y="-23" angle="75.8349"/>
  <guideline x="1474" y="-289" angle="90"/>
  <anchor x="649" y="-272" name="anudatta"/>
  <anchor x="1369" y="0" name="anusvara"/>
  <anchor x="683" y="-60" name="bottom"/>
  <anchor x="929" y="617" name="iiMatra"/>
  <anchor x="1369" y="0" name="post"/>
  <anchor x="1348" y="0" name="repha"/>
  <anchor x="684" y="900" name="svara"/>
  <anchor x="684" y="640" name="top"/>
  <anchor x="1189" y="566" name="topright"/>
  <anchor x="1412" y="0" name="vattu"/>
  <anchor x="988" y="489" name="virama"/>
  <anchor x="1309" y="0" name="yaphalaa"/>
  <outline>
    <contour>
      <point x="929" y="576" type="curve" smooth="yes"/>
      <point x="818" y="576"/>
      <point x="755" y="485"/>
      <point x="755" y="384" type="curve" smooth="yes"/>
      <point x="755" y="246"/>
      <point x="861" y="182"/>
      <point x="1004" y="182" type="curve" smooth="yes"/>
      <point x="1019" y="182" type="line" smooth="yes"/>
      <point x="1107" y="182"/>
      <point x="1173" y="213"/>
      <point x="1212" y="247" type="curve"/>
      <point x="1209" y="219"/>
      <point x="1208" y="184"/>
      <point x="1208" y="153" type="curve" smooth="yes"/>
      <point x="1208" y="72" type="line"/>
      <point x="800" y="72" type="line"/>
      <point x="800" y="0" type="line"/>
      <point x="1289" y="0" type="line"/>
      <point x="1289" y="328" type="line"/>
      <point x="1208" y="328" type="line"/>
      <point x="1172" y="294"/>
      <point x="1114" y="252"/>
      <point x="1021" y="252" type="curve" smooth="yes"/>
      <point x="1004" y="252" type="line" smooth="yes"/>
      <point x="906" y="252"/>
      <point x="838" y="291"/>
      <point x="838" y="382" type="curve" smooth="yes"/>
      <point x="838" y="456"/>
      <point x="874" y="504"/>
      <point x="929" y="504" type="curve" smooth="yes"/>
      <point x="976" y="504"/>
      <point x="1002" y="461"/>
      <point x="1002" y="403" type="curve" smooth="yes"/>
      <point x="1002" y="354"/>
      <point x="995" y="300"/>
      <point x="977" y="230" type="curve" smooth="yes"/>
      <point x="853" y="-262" type="line"/>
      <point x="932" y="-284" type="line"/>
      <point x="1064" y="239" type="line" smooth="yes"/>
      <point x="1080" y="301"/>
      <point x="1089" y="355"/>
      <point x="1089" y="406" type="curve" smooth="yes"/>
      <point x="1089" y="492"/>
      <point x="1043" y="576"/>
    </contour>
    <contour>
      <point x="269" y="-12" type="curve" smooth="yes"/>
      <point x="376" y="-12"/>
      <point x="446" y="54"/>
      <point x="446" y="165" type="curve" smooth="yes"/>
      <point x="446" y="269"/>
      <point x="377" y="328"/>
      <point x="281" y="328" type="curve" smooth="yes"/>
      <point x="216" y="328"/>
      <point x="153" y="295"/>
      <point x="113" y="248" type="curve"/>
      <point x="128" y="184" type="line"/>
      <point x="167" y="227"/>
      <point x="214" y="258"/>
      <point x="267" y="258" type="curve" smooth="yes"/>
      <point x="322" y="258"/>
      <point x="360" y="221"/>
      <point x="360" y="155" type="curve" smooth="yes"/>
      <point x="360" y="91"/>
      <point x="325" y="60"/>
      <point x="273" y="60" type="curve" smooth="yes"/>
      <point x="207" y="60"/>
      <point x="156" y="103"/>
      <point x="156" y="237" type="curve" smooth="yes"/>
      <point x="156" y="383"/>
      <point x="240" y="504"/>
      <point x="380" y="504" type="curve" smooth="yes"/>
      <point x="504" y="504"/>
      <point x="585" y="411"/>
      <point x="585" y="269" type="curve" smooth="yes"/>
      <point x="585" y="178"/>
      <point x="562" y="109"/>
      <point x="531" y="63" type="curve"/>
      <point x="535" y="0" type="line"/>
      <point x="887" y="0" type="line"/>
      <point x="887" y="72" type="line"/>
      <point x="623" y="72" type="line"/>
      <point x="650" y="131"/>
      <point x="671" y="194"/>
      <point x="671" y="280" type="curve" smooth="yes"/>
      <point x="671" y="437"/>
      <point x="587" y="576"/>
      <point x="384" y="576" type="curve" smooth="yes"/>
      <point x="219" y="576"/>
      <point x="70" y="457"/>
      <point x="70" y="243" type="curve" smooth="yes"/>
      <point x="70" y="63"/>
      <point x="162" y="-12"/>
    </contour>
  </outline>
</glyph>
<glyph name="sa_gran" format="2">
  <advance width="1644"/>
  <unicode hex="11338"/>
  <guideline x="2150" y="-182" angle="90"/>
  <anchor x="821" y="-100" name="anudatta"/>
  <anchor x="1644" y="0" name="anusvara"/>
  <anchor x="822" y="-60" name="bottom"/>
  <anchor x="1644" y="0" name="post"/>
  <anchor x="1554" y="0" name="repha"/>
  <anchor x="822" y="900" name="svara"/>
  <anchor x="822" y="640" name="top"/>
  <anchor x="1624" y="566" name="topright"/>
  <anchor x="1687" y="0" name="vattu"/>
  <anchor x="1579" y="0" name="yaphalaa"/>
  <outline>
    <contour>
      <point x="1358" y="504" type="line"/>
      <point x="1463" y="477"/>
      <point x="1488" y="362"/>
      <point x="1488" y="275" type="curve" smooth="yes"/>
      <point x="1488" y="174"/>
      <point x="1445" y="61"/>
      <point x="1332" y="61" type="curve" smooth="yes"/>
      <point x="1260" y="61"/>
      <point x="1208" y="105"/>
      <point x="1208" y="182" type="curve" smooth="yes"/>
      <point x="1208" y="356" type="line" smooth="yes"/>
      <point x="1208" y="496"/>
      <point x="1144" y="576"/>
      <point x="1032" y="576" type="curve" smooth="yes"/>
      <point x="920" y="576"/>
      <point x="856" y="496"/>
      <point x="856" y="356" type="curve" smooth="yes"/>
      <point x="856" y="0" type="line"/>
      <point x="942" y="0" type="line"/>
      <point x="942" y="338" type="line" smooth="yes"/>
      <point x="942" y="427"/>
      <point x="962" y="504"/>
      <point x="1032" y="504" type="curve" smooth="yes"/>
      <point x="1102" y="504"/>
      <point x="1122" y="434"/>
      <point x="1122" y="338" type="curve" smooth="yes"/>
      <point x="1122" y="191" type="line" smooth="yes"/>
      <point x="1122" y="67"/>
      <point x="1202" y="-11"/>
      <point x="1332" y="-11" type="curve" smooth="yes"/>
      <point x="1501" y="-11"/>
      <point x="1574" y="139"/>
      <point x="1574" y="278" type="curve" smooth="yes"/>
      <point x="1574" y="386"/>
      <point x="1522" y="550"/>
      <point x="1358" y="576" type="curve"/>
    </contour>
    <contour>
      <point x="269" y="-12" type="curve" smooth="yes"/>
      <point x="376" y="-12"/>
      <point x="446" y="54"/>
      <point x="446" y="165" type="curve" smooth="yes"/>
      <point x="446" y="269"/>
      <point x="377" y="328"/>
      <point x="281" y="328" type="curve" smooth="yes"/>
      <point x="216" y="328"/>
      <point x="153" y="295"/>
      <point x="113" y="248" type="curve"/>
      <point x="128" y="184" type="line"/>
      <point x="167" y="227"/>
      <point x="214" y="258"/>
      <point x="267" y="258" type="curve" smooth="yes"/>
      <point x="322" y="258"/>
      <point x="360" y="221"/>
      <point x="360" y="155" type="curve" smooth="yes"/>
      <point x="360" y="91"/>
      <point x="325" y="60"/>
      <point x="273" y="60" type="curve" smooth="yes"/>
      <point x="207" y="60"/>
      <point x="156" y="103"/>
      <point x="156" y="237" type="curve" smooth="yes"/>
      <point x="156" y="383"/>
      <point x="240" y="504"/>
      <point x="380" y="504" type="curve" smooth="yes"/>
      <point x="504" y="504"/>
      <point x="585" y="411"/>
      <point x="585" y="269" type="curve" smooth="yes"/>
      <point x="585" y="178"/>
      <point x="562" y="109"/>
      <point x="531" y="63" type="curve"/>
      <point x="535" y="0" type="line"/>
      <point x="887" y="0" type="line"/>
      <point x="889" y="72" type="line"/>
      <point x="623" y="72" type="line"/>
      <point x="650" y="131"/>
      <point x="671" y="194"/>
      <point x="671" y="280" type="curve" smooth="yes"/>
      <point x="671" y="437"/>
      <point x="587" y="576"/>
      <point x="384" y="576" type="curve" smooth="yes"/>
      <point x="219" y="576"/>
      <point x="70" y="457"/>
      <point x="70" y="243" type="curve" smooth="yes"/>
      <point x="70" y="63"/>
      <point x="162" y="-12"/>
    </contour>
  </outline>
</glyph>
<glyph name="ha_gran" format="2">
  <advance width="1652"/>
  <unicode hex="11339"/>
  <outline>
    <contour>
      <point x="1350" y="576" type="curve" smooth="yes"/>
      <point x="1252" y="576"/>
      <point x="1186" y="526"/>
      <point x="1164" y="450" type="curve"/>
      <point x="1206" y="454" type="line"/>
      <point x="1174" y="534"/>
      <point x="1132" y="576"/>
      <point x="1041" y="576" type="curve" smooth="yes"/>
      <point x="929" y="576"/>
      <point x="866" y="499"/>
      <point x="866" y="351" type="curve" smooth="yes"/>
      <point x="866" y="0" type="line"/>
      <point x="952" y="0" type="line"/>
      <point x="952" y="338" type="line" smooth="yes"/>
      <point x="952" y="427"/>
      <point x="972" y="504"/>
      <point x="1042" y="504" type="curve" smooth="yes"/>
      <point x="1114" y="504"/>
      <point x="1132" y="434"/>
      <point x="1132" y="338" type="curve" smooth="yes"/>
      <point x="1132" y="0" type="line"/>
      <point x="1218" y="0" type="line"/>
      <point x="1218" y="329" type="line" smooth="yes"/>
      <point x="1218" y="431"/>
      <point x="1245" y="504"/>
      <point x="1344" y="504" type="curve" smooth="yes"/>
      <point x="1433" y="504"/>
      <point x="1496" y="438"/>
      <point x="1496" y="247" type="curve" smooth="yes"/>
      <point x="1496" y="-29"/>
      <point x="1393" y="-84"/>
      <point x="1146" y="-84" type="curve" smooth="yes"/>
      <point x="275" y="-84" type="line" smooth="yes"/>
      <point x="208" y="-84"/>
      <point x="169" y="-94"/>
      <point x="134" y="-119" type="curve" smooth="yes"/>
      <point x="100" y="-144"/>
      <point x="77" y="-184"/>
      <point x="77" y="-243" type="curve" smooth="yes"/>
      <point x="77" y="-266"/>
      <point x="80" y="-297"/>
      <point x="84" y="-321" type="curve"/>
      <point x="166" y="-317" type="line"/>
      <point x="164" y="-301"/>
      <point x="163" y="-283"/>
      <point x="163" y="-263" type="curve" smooth="yes"/>
      <point x="163" y="-219"/>
      <point x="175" y="-194"/>
      <point x="197" y="-179" type="curve" smooth="yes"/>
      <point x="219" y="-164"/>
      <point x="246" y="-156"/>
      <point x="302" y="-156" type="curve" smooth="yes"/>
      <point x="1168" y="-156" type="line" smooth="yes"/>
      <point x="1454" y="-156"/>
      <point x="1582" y="-47"/>
      <point x="1582" y="244" type="curve" smooth="yes"/>
      <point x="1582" y="459"/>
      <point x="1502" y="576"/>
    </contour>
    <contour>
      <point x="279" y="-12" type="curve" smooth="yes"/>
      <point x="386" y="-12"/>
      <point x="456" y="54"/>
      <point x="456" y="165" type="curve" smooth="yes"/>
      <point x="456" y="269"/>
      <point x="387" y="328"/>
      <point x="291" y="328" type="curve" smooth="yes"/>
      <point x="226" y="328"/>
      <point x="163" y="295"/>
      <point x="123" y="248" type="curve"/>
      <point x="138" y="184" type="line"/>
      <point x="177" y="227"/>
      <point x="224" y="258"/>
      <point x="277" y="258" type="curve" smooth="yes"/>
      <point x="332" y="258"/>
      <point x="370" y="221"/>
      <point x="370" y="155" type="curve" smooth="yes"/>
      <point x="370" y="91"/>
      <point x="335" y="60"/>
      <point x="283" y="60" type="curve" smooth="yes"/>
      <point x="217" y="60"/>
      <point x="166" y="103"/>
      <point x="166" y="237" type="curve" smooth="yes"/>
      <point x="166" y="383"/>
      <point x="250" y="504"/>
      <point x="390" y="504" type="curve" smooth="yes"/>
      <point x="514" y="504"/>
      <point x="595" y="411"/>
      <point x="595" y="269" type="curve" smooth="yes"/>
      <point x="595" y="178"/>
      <point x="572" y="109"/>
      <point x="541" y="63" type="curve"/>
      <point x="545" y="0" type="line"/>
      <point x="897" y="0" type="line"/>
      <point x="899" y="72" type="line"/>
      <point x="633" y="72" type="line"/>
      <point x="660" y="131"/>
      <point x="681" y="194"/>
      <point x="681" y="280" type="curve" smooth="yes"/>
      <point x="681" y="437"/>
      <point x="597" y="576"/>
      <point x="394" y="576" type="curve" smooth="yes"/>
      <point x="229" y="576"/>
      <point x="80" y="457"/>
      <point x="80" y="243" type="curve" smooth="yes"/>
      <point x="80" y="63"/>
      <point x="172" y="-12"/>
    </contour>
  </outline>
</glyph>
<glyph name="avagraha_gran" format="2">
  <advance width="498"/>
  <unicode hex="1133D"/>
  <anchor x="498" y="0" name="anusvara"/>
  <anchor x="498" y="0" name="post"/>
  <anchor x="498" y="566" name="topright"/>
  <outline>
    <contour>
      <point x="179" y="326" type="line"/>
      <point x="392" y="542" type="line"/>
      <point x="339" y="586" type="line"/>
      <point x="52" y="293" type="line"/>
      <point x="313" y="216" type="line"/>
      <point x="48" y="-53" type="line"/>
      <point x="111" y="-90" type="line"/>
      <point x="442" y="246" type="line"/>
    </contour>
  </outline>
</glyph>
<glyph name="aaMatra_gran" format="2">
  <unicode hex="1133E"/>
  <anchor x="0" y="0" name="_post"/>
  <anchor x="585" y="0" name="anusvara"/>
  <anchor x="665" y="0" name="post"/>
  <anchor x="585" y="0" name="repha"/>
  <anchor x="665" y="0" name="vattu"/>
  <outline>
    <contour>
      <point x="80" y="0" type="line"/>
      <point x="166" y="0" type="line"/>
      <point x="166" y="494" type="line"/>
      <point x="359" y="494" type="line"/>
      <point x="359" y="0" type="line"/>
      <point x="445" y="0" type="line"/>
      <point x="445" y="494" type="line"/>
      <point x="615" y="494" type="line"/>
      <point x="615" y="566" type="line"/>
      <point x="80" y="566" type="line"/>
    </contour>
  </outline>
</glyph>
<glyph name="iMatra_gran" format="2">
  <unicode hex="1133F"/>
  <outline>
    <contour>
      <point x="-115" y="843" type="curve" smooth="yes"/>
      <point x="-280" y="843"/>
      <point x="-384" y="765"/>
      <point x="-384" y="662" type="curve" smooth="yes"/>
      <point x="-384" y="560"/>
      <point x="-296" y="494"/>
      <point x="-169" y="491" type="curve"/>
      <point x="-169" y="563" type="line"/>
      <point x="-253" y="564"/>
      <point x="-299" y="609"/>
      <point x="-299" y="661" type="curve" smooth="yes"/>
      <point x="-299" y="709"/>
      <point x="-251" y="771"/>
      <point x="-116" y="771" type="curve" smooth="yes"/>
      <point x="20" y="771"/>
      <point x="88" y="696"/>
      <point x="88" y="576" type="curve" smooth="yes"/>
      <point x="88" y="0" type="line"/>
      <point x="174" y="0" type="line"/>
      <point x="174" y="575" type="line" smooth="yes"/>
      <point x="174" y="756"/>
      <point x="75" y="843"/>
    </contour>
  </outline>
</glyph>
<glyph name="iiMatra_gran" format="2">
  <unicode hex="11340"/>
  <outline>
    <contour>
      <point x="-382" y="474" type="curve"/>
      <point x="-301" y="474" type="line"/>
      <point x="-341" y="526"/>
      <point x="-351" y="575"/>
      <point x="-351" y="610" type="curve" smooth="yes"/>
      <point x="-351" y="709"/>
      <point x="-276" y="760"/>
      <point x="-162" y="760" type="curve" smooth="yes"/>
      <point x="-103" y="760"/>
      <point x="-62" y="740"/>
      <point x="-62" y="693" type="curve" smooth="yes"/>
      <point x="-62" y="659"/>
      <point x="-84" y="636"/>
      <point x="-123" y="636" type="curve" smooth="yes"/>
      <point x="-159" y="636"/>
      <point x="-185" y="654"/>
      <point x="-185" y="699" type="curve" smooth="yes"/>
      <point x="-185" y="724"/>
      <point x="-176" y="751"/>
      <point x="-154" y="776" type="curve"/>
      <point x="-205" y="798" type="line"/>
      <point x="-241" y="761"/>
      <point x="-251" y="716"/>
      <point x="-251" y="685" type="curve" smooth="yes"/>
      <point x="-251" y="616"/>
      <point x="-201" y="574"/>
      <point x="-123" y="574" type="curve" smooth="yes"/>
      <point x="-50" y="574"/>
      <point x="8" y="618"/>
      <point x="8" y="697" type="curve" smooth="yes"/>
      <point x="8" y="776"/>
      <point x="-53" y="823"/>
      <point x="-168" y="823" type="curve" smooth="yes"/>
      <point x="-347" y="823"/>
      <point x="-427" y="721"/>
      <point x="-427" y="606" type="curve" smooth="yes"/>
      <point x="-427" y="575"/>
      <point x="-421" y="525"/>
    </contour>
  </outline>
</glyph>
<glyph name="uMatra_gran" format="2">
  <unicode hex="11341"/>
  <anchor x="-40" y="566" name="_topright"/>
  <anchor x="763" y="0" name="anusvara"/>
  <anchor x="763" y="0" name="post"/>
  <outline>
    <contour>
      <point x="502" y="540" type="curve"/>
      <point x="414" y="540" type="line"/>
      <point x="405" y="506"/>
      <point x="400" y="470"/>
      <point x="400" y="432" type="curve" smooth="yes"/>
      <point x="400" y="311"/>
      <point x="458" y="218"/>
      <point x="589" y="218" type="curve" smooth="yes"/>
      <point x="696" y="218"/>
      <point x="763" y="283"/>
      <point x="763" y="386" type="curve" smooth="yes"/>
      <point x="763" y="508"/>
      <point x="672" y="566"/>
      <point x="527" y="566" type="curve" smooth="yes"/>
      <point x="-40" y="566" type="line"/>
      <point x="-40" y="494" type="line"/>
      <point x="509" y="494" type="line" smooth="yes"/>
      <point x="607" y="494"/>
      <point x="677" y="464"/>
      <point x="677" y="382" type="curve" smooth="yes"/>
      <point x="677" y="328"/>
      <point x="647" y="290"/>
      <point x="586" y="290" type="curve" smooth="yes"/>
      <point x="523" y="290"/>
      <point x="486" y="330"/>
      <point x="486" y="435" type="curve" smooth="yes"/>
      <point x="486" y="473"/>
      <point x="491" y="508"/>
    </contour>
  </outline>
</glyph>
<glyph name="uuMatra_gran" format="2">
  <unicode hex="11342"/>
  <anchor x="-40" y="566" name="_topright"/>
  <anchor x="906" y="0" name="anusvara"/>
  <anchor x="906" y="0" name="post"/>
  <outline>
    <contour>
      <point x="512" y="13" type="curve" smooth="yes"/>
      <point x="732" y="13"/>
      <point x="896" y="132"/>
      <point x="896" y="416" type="curve" smooth="yes"/>
      <point x="896" y="628"/>
      <point x="775" y="764"/>
      <point x="563" y="764" type="curve" smooth="yes"/>
      <point x="359" y="764"/>
      <point x="231" y="629"/>
      <point x="231" y="432" type="curve" smooth="yes"/>
      <point x="231" y="311"/>
      <point x="289" y="218"/>
      <point x="420" y="218" type="curve" smooth="yes"/>
      <point x="527" y="218"/>
      <point x="594" y="283"/>
      <point x="594" y="386" type="curve" smooth="yes"/>
      <point x="594" y="508"/>
      <point x="503" y="566"/>
      <point x="358" y="566" type="curve" smooth="yes"/>
      <point x="-40" y="566" type="line"/>
      <point x="-40" y="494" type="line"/>
      <point x="340" y="494" type="line" smooth="yes"/>
      <point x="438" y="494"/>
      <point x="508" y="464"/>
      <point x="508" y="382" type="curve" smooth="yes"/>
      <point x="508" y="328"/>
      <point x="478" y="290"/>
      <point x="417" y="290" type="curve" smooth="yes"/>
      <point x="354" y="290"/>
      <point x="317" y="330"/>
      <point x="317" y="435" type="curve" smooth="yes"/>
      <point x="317" y="581"/>
      <point x="395" y="692"/>
      <point x="560" y="692" type="curve" smooth="yes"/>
      <point x="724" y="692"/>
      <point x="810" y="571"/>
      <point x="810" y="408" type="curve" smooth="yes"/>
      <point x="810" y="170"/>
      <point x="681" y="85"/>
      <point x="509" y="85" type="curve" smooth="yes"/>
      <point x="383" y="85"/>
      <point x="291" y="129"/>
      <point x="230" y="174" type="curve"/>
      <point x="192" y="113" type="line"/>
      <point x="263" y="64"/>
      <point x="373" y="13"/>
    </contour>
  </outline>
</glyph>
<glyph name="rVocalicMatra_gran" format="2">
  <unicode hex="11343"/>
  <outline>
    <contour>
      <point x="347" y="316" type="line"/>
      <point x="347" y="388" type="line"/>
      <point x="-43" y="388" type="line"/>
      <point x="-43" y="316" type="line"/>
    </contour>
    <contour>
      <point x="-276" y="-388" type="curve" smooth="yes"/>
      <point x="-276" y="-495"/>
      <point x="-184" y="-553"/>
      <point x="-71" y="-553" type="curve" smooth="yes"/>
      <point x="21" y="-553"/>
      <point x="226" y="-515"/>
      <point x="226" y="-235" type="curve" smooth="yes"/>
      <point x="226" y="335" type="line"/>
      <point x="140" y="335" type="line"/>
      <point x="140" y="-235" type="line" smooth="yes"/>
      <point x="140" y="-448"/>
      <point x="2" y="-481"/>
      <point x="-69" y="-481" type="curve" smooth="yes"/>
      <point x="-145" y="-481"/>
      <point x="-190" y="-442"/>
      <point x="-190" y="-384" type="curve" smooth="yes"/>
      <point x="-190" y="-330"/>
      <point x="-149" y="-283"/>
      <point x="-85" y="-283" type="curve" smooth="yes"/>
      <point x="-24" y="-283"/>
      <point x="21" y="-321"/>
      <point x="21" y="-392" type="curve" smooth="yes"/>
      <point x="21" y="-413"/>
      <point x="18" y="-456"/>
      <point x="-6" y="-491" type="curve"/>
      <point x="38" y="-500" type="line"/>
      <point x="63" y="-475"/>
      <point x="89" y="-435"/>
      <point x="89" y="-376" type="curve" smooth="yes"/>
      <point x="89" y="-285"/>
      <point x="22" y="-211"/>
      <point x="-85" y="-211" type="curve" smooth="yes"/>
      <point x="-163" y="-211"/>
      <point x="-276" y="-253"/>
    </contour>
  </outline>
</glyph>
<glyph name="rrVocalicMatra_gran" format="2">
  <unicode hex="11344"/>
  <outline>
    <contour>
      <point x="347" y="316" type="line"/>
      <point x="347" y="388" type="line"/>
      <point x="-43" y="388" type="line"/>
      <point x="-43" y="316" type="line"/>
    </contour>
    <contour>
      <point x="-521" y="-388" type="curve" smooth="yes"/>
      <point x="-521" y="-510"/>
      <point x="-426" y="-603"/>
      <point x="-205" y="-603" type="curve" smooth="yes"/>
      <point x="-69" y="-603"/>
      <point x="226" y="-545"/>
      <point x="226" y="-295" type="curve" smooth="yes"/>
      <point x="226" y="335" type="line"/>
      <point x="140" y="335" type="line"/>
      <point x="140" y="-295" type="line" smooth="yes"/>
      <point x="140" y="-488"/>
      <point x="-67" y="-531"/>
      <point x="-195" y="-531" type="curve" smooth="yes"/>
      <point x="-364" y="-531"/>
      <point x="-435" y="-465"/>
      <point x="-435" y="-386" type="curve" smooth="yes"/>
      <point x="-435" y="-347"/>
      <point x="-418" y="-293"/>
      <point x="-357" y="-293" type="curve" smooth="yes"/>
      <point x="-296" y="-293"/>
      <point x="-266" y="-348"/>
      <point x="-266" y="-427" type="curve"/>
      <point x="-180" y="-427" type="line"/>
      <point x="-180" y="-359"/>
      <point x="-151" y="-293"/>
      <point x="-90" y="-293" type="curve" smooth="yes"/>
      <point x="-46" y="-293"/>
      <point x="-10" y="-328"/>
      <point x="-10" y="-381" type="curve" smooth="yes"/>
      <point x="-10" y="-447"/>
      <point x="-64" y="-513"/>
      <point x="-119" y="-530" type="curve"/>
      <point x="-147" y="-594" type="line"/>
      <point x="-81" y="-570"/>
      <point x="76" y="-501"/>
      <point x="76" y="-369" type="curve" smooth="yes"/>
      <point x="76" y="-277"/>
      <point x="9" y="-221"/>
      <point x="-83" y="-221" type="curve" smooth="yes"/>
      <point x="-171" y="-221"/>
      <point x="-207" y="-268"/>
      <point x="-229" y="-334" type="curve"/>
      <point x="-208" y="-334" type="line"/>
      <point x="-235" y="-254"/>
      <point x="-280" y="-221"/>
      <point x="-356" y="-221" type="curve" smooth="yes"/>
      <point x="-445" y="-221"/>
      <point x="-521" y="-273"/>
    </contour>
  </outline>
</glyph>
<glyph name="eeMatra_gran" format="2">
  <advance width="906"/>
  <unicode hex="11347"/>
  <outline>
    <contour>
      <point x="400" y="-14" type="curve" smooth="yes"/>
      <point x="514" y="-14"/>
      <point x="622" y="47"/>
      <point x="622" y="178" type="curve" smooth="yes"/>
      <point x="622" y="290"/>
      <point x="542" y="349"/>
      <point x="445" y="349" type="curve" smooth="yes"/>
      <point x="327" y="349"/>
      <point x="262" y="267"/>
      <point x="262" y="171" type="curve" smooth="yes"/>
      <point x="262" y="103"/>
      <point x="296" y="57"/>
      <point x="331" y="33" type="curve"/>
      <point x="397" y="43" type="line"/>
      <point x="363" y="77"/>
      <point x="348" y="123"/>
      <point x="348" y="171" type="curve" smooth="yes"/>
      <point x="348" y="238"/>
      <point x="385" y="277"/>
      <point x="443" y="277" type="curve" smooth="yes"/>
      <point x="501" y="277"/>
      <point x="536" y="238"/>
      <point x="536" y="171" type="curve" smooth="yes"/>
      <point x="536" y="100"/>
      <point x="501" y="58"/>
      <point x="423" y="58" type="curve" smooth="yes"/>
      <point x="261" y="58"/>
      <point x="156" y="196"/>
      <point x="156" y="395" type="curve" smooth="yes"/>
      <point x="156" y="669"/>
      <point x="331" y="771"/>
      <point x="488" y="771" type="curve" smooth="yes"/>
      <point x="676" y="771"/>
      <point x="740" y="618"/>
      <point x="740" y="365" type="curve" smooth="yes"/>
      <point x="740" y="-12" type="line"/>
      <point x="826" y="-12" type="line"/>
      <point x="826" y="425" type="line" smooth="yes"/>
      <point x="826" y="689"/>
      <point x="705" y="843"/>
      <point x="488" y="843" type="curve" smooth="yes"/>
      <point x="266" y="843"/>
      <point x="70" y="691"/>
      <point x="70" y="393" type="curve" smooth="yes"/>
      <point x="70" y="149"/>
      <point x="203" y="-14"/>
    </contour>
  </outline>
</glyph>
<glyph name="virama_gran" format="2">
  <unicode hex="1134D"/>
  <outline>
    <contour>
      <point x="139" y="873" type="line"/>
      <point x="95" y="873" type="line" smooth="yes"/>
      <point x="-241" y="873"/>
      <point x="-310" y="821"/>
      <point x="-310" y="755" type="curve" smooth="yes"/>
      <point x="-310" y="713"/>
      <point x="-283" y="690"/>
      <point x="-237" y="675" type="curve"/>
      <point x="-237" y="692" type="line"/>
      <point x="-294" y="671"/>
      <point x="-315" y="647"/>
      <point x="-315" y="607" type="curve" smooth="yes"/>
      <point x="-315" y="534"/>
      <point x="-245" y="494"/>
      <point x="-129" y="494" type="curve" smooth="yes"/>
      <point x="-29" y="494" type="line"/>
      <point x="-29" y="566" type="line"/>
      <point x="-135" y="566" type="line" smooth="yes"/>
      <point x="-196" y="566"/>
      <point x="-229" y="577"/>
      <point x="-229" y="606" type="curve" smooth="yes"/>
      <point x="-229" y="635"/>
      <point x="-196" y="646"/>
      <point x="-135" y="646" type="curve" smooth="yes"/>
      <point x="-39" y="646" type="line"/>
      <point x="-39" y="718" type="line"/>
      <point x="-125" y="718" type="line" smooth="yes"/>
      <point x="-172" y="718"/>
      <point x="-224" y="724"/>
      <point x="-224" y="755" type="curve" smooth="yes"/>
      <point x="-224" y="787"/>
      <point x="-167" y="801"/>
      <point x="66" y="801" type="curve" smooth="yes"/>
      <point x="130" y="801" type="line"/>
    </contour>
  </outline>
</glyph>
<glyph name="om_gran" format="2">
  <advance width="1122"/>
  <unicode hex="11350"/>
  <outline>
    <contour>
      <point x="957" y="923" type="curve"/>
      <point x="966" y="851" type="line"/>
      <point x="895" y="843"/>
      <point x="757" y="783"/>
      <point x="668" y="659" type="curve" smooth="yes"/>
      <point x="607" y="573"/>
      <point x="567" y="445"/>
      <point x="588" y="254" type="curve" smooth="yes"/>
      <point x="601" y="138"/>
      <point x="638" y="10"/>
      <point x="638" y="-85" type="curve" smooth="yes"/>
      <point x="638" y="-255"/>
      <point x="561" y="-370"/>
      <point x="431" y="-370" type="curve" smooth="yes"/>
      <point x="326" y="-370"/>
      <point x="287" y="-296"/>
      <point x="287" y="-232" type="curve" smooth="yes"/>
      <point x="287" y="-157"/>
      <point x="340" y="-73"/>
      <point x="543" y="-73" type="curve" smooth="yes"/>
      <point x="720" y="-73" type="line" smooth="yes"/>
      <point x="859" y="-73"/>
      <point x="910" y="-46"/>
      <point x="910" y="-8" type="curve" smooth="yes"/>
      <point x="910" y="11"/>
      <point x="897" y="29"/>
      <point x="868" y="29" type="curve" smooth="yes"/>
      <point x="840" y="29"/>
      <point x="826" y="10"/>
      <point x="817" y="-8" type="curve"/>
      <point x="742" y="-8" type="line"/>
      <point x="757" y="48"/>
      <point x="801" y="95"/>
      <point x="880" y="95" type="curve" smooth="yes"/>
      <point x="968" y="95"/>
      <point x="996" y="42"/>
      <point x="996" y="-4" type="curve" smooth="yes"/>
      <point x="996" y="-79"/>
      <point x="921" y="-145"/>
      <point x="721" y="-145" type="curve" smooth="yes"/>
      <point x="522" y="-145" type="line" smooth="yes"/>
      <point x="423" y="-145"/>
      <point x="373" y="-180"/>
      <point x="373" y="-230" type="curve" smooth="yes"/>
      <point x="373" y="-268"/>
      <point x="401" y="-298"/>
      <point x="440" y="-298" type="curve" smooth="yes"/>
      <point x="505" y="-298"/>
      <point x="552" y="-229"/>
      <point x="552" y="-97" type="curve" smooth="yes"/>
      <point x="552" y="-2"/>
      <point x="526" y="109"/>
      <point x="511" y="249" type="curve" smooth="yes"/>
      <point x="491" y="438"/>
      <point x="524" y="576"/>
      <point x="599" y="692" type="curve" smooth="yes"/>
      <point x="676" y="812"/>
      <point x="812" y="904"/>
    </contour>
    <contour>
      <point x="843" y="159" type="line"/>
      <point x="920" y="159" type="line"/>
      <point x="920" y="69" type="line"/>
      <point x="843" y="69" type="line"/>
    </contour>
    <contour>
      <point x="1082" y="150" type="line"/>
      <point x="695" y="150" type="line"/>
      <point x="691" y="213" type="line"/>
      <point x="772" y="259"/>
      <point x="823" y="340"/>
      <point x="823" y="442" type="curve" smooth="yes"/>
      <point x="823" y="563"/>
      <point x="744" y="676"/>
      <point x="520" y="676" type="curve" smooth="yes"/>
      <point x="270" y="676"/>
      <point x="156" y="543"/>
      <point x="156" y="374" type="curve" smooth="yes"/>
      <point x="156" y="273"/>
      <point x="204" y="226"/>
      <point x="264" y="226" type="curve" smooth="yes"/>
      <point x="322" y="226"/>
      <point x="348" y="268"/>
      <point x="348" y="319" type="curve" smooth="yes"/>
      <point x="348" y="368"/>
      <point x="322" y="408"/>
      <point x="265" y="408" type="curve" smooth="yes"/>
      <point x="214" y="408"/>
      <point x="167" y="377"/>
      <point x="128" y="334" type="curve"/>
      <point x="113" y="398" type="line"/>
      <point x="153" y="445"/>
      <point x="216" y="478"/>
      <point x="286" y="478" type="curve" smooth="yes"/>
      <point x="377" y="478"/>
      <point x="434" y="423"/>
      <point x="434" y="325" type="curve" smooth="yes"/>
      <point x="434" y="222"/>
      <point x="376" y="158"/>
      <point x="273" y="158" type="curve" smooth="yes"/>
      <point x="162" y="158"/>
      <point x="70" y="232"/>
      <point x="70" y="391" type="curve" smooth="yes"/>
      <point x="70" y="616"/>
      <point x="256" y="748"/>
      <point x="521" y="748" type="curve" smooth="yes"/>
      <point x="814" y="748"/>
      <point x="909" y="589"/>
      <point x="909" y="447" type="curve" smooth="yes"/>
      <point x="909" y="366"/>
      <point x="880" y="281"/>
      <point x="803" y="222" type="curve"/>
      <point x="1082" y="222" type="line"/>
    </contour>
  </outline>
</glyph>
<glyph name="pluta_gran" format="2">
  <advance width="477"/>
  <unicode hex="1135D"/>
  <outline>
    <contour>
      <point x="428" y="-26" type="line"/>
      <point x="396" y="-44"/>
      <point x="347" y="-65"/>
      <point x="276" y="-65" type="curve" smooth="yes"/>
      <point x="195" y="-65"/>
      <point x="156" y="-37"/>
      <point x="156" y="-4" type="curve" smooth="yes"/>
      <point x="156" y="20"/>
      <point x="177" y="42"/>
      <point x="218" y="42" type="curve" smooth="yes"/>
      <point x="349" y="42" type="line"/>
      <point x="349" y="114" type="line"/>
      <point x="233" y="114" type="line" smooth="yes"/>
      <point x="182" y="114"/>
      <point x="156" y="124"/>
      <point x="156" y="154" type="curve" smooth="yes"/>
      <point x="156" y="184"/>
      <point x="182" y="195"/>
      <point x="233" y="195" type="curve" smooth="yes"/>
      <point x="336" y="195" type="line"/>
      <point x="336" y="267" type="line"/>
      <point x="233" y="267" type="line" smooth="yes"/>
      <point x="185" y="267"/>
      <point x="156" y="280"/>
      <point x="156" y="309" type="curve" smooth="yes"/>
      <point x="156" y="338"/>
      <point x="182" y="350"/>
      <point x="233" y="350" type="curve" smooth="yes"/>
      <point x="336" y="350" type="line"/>
      <point x="336" y="422" type="line"/>
      <point x="281" y="422" type="line" smooth="yes"/>
      <point x="124" y="422"/>
      <point x="70" y="385"/>
      <point x="70" y="310" type="curve" smooth="yes"/>
      <point x="70" y="271"/>
      <point x="89" y="245"/>
      <point x="124" y="229" type="curve"/>
      <point x="124" y="228" type="line"/>
      <point x="94" y="210"/>
      <point x="70" y="184"/>
      <point x="70" y="142" type="curve" smooth="yes"/>
      <point x="70" y="109"/>
      <point x="85" y="85"/>
      <point x="104" y="70" type="curve"/>
      <point x="104" y="69" type="line"/>
      <point x="86" y="51"/>
      <point x="70" y="25"/>
      <point x="70" y="-11" type="curve" smooth="yes"/>
      <point x="70" y="-79"/>
      <point x="129" y="-137"/>
      <point x="258" y="-137" type="curve" smooth="yes"/>
      <point x="367" y="-137"/>
      <point x="435" y="-99"/>
      <point x="457" y="-86" type="curve"/>
    </contour>
    <contour>
      <point x="109" y="340" type="curve"/>
      <point x="161" y="367" type="line"/>
      <point x="153" y="377"/>
      <point x="149" y="389"/>
      <point x="149" y="402" type="curve" smooth="yes"/>
      <point x="149" y="435"/>
      <point x="177" y="459"/>
      <point x="209" y="480" type="curve" smooth="yes"/>
      <point x="229" y="493" type="line" smooth="yes"/>
      <point x="271" y="520"/>
      <point x="314" y="554"/>
      <point x="314" y="649" type="curve" smooth="yes"/>
      <point x="314" y="680" type="line"/>
      <point x="242" y="680" type="line"/>
      <point x="242" y="647" type="line" smooth="yes"/>
      <point x="242" y="586"/>
      <point x="215" y="560"/>
      <point x="181" y="538" type="curve" smooth="yes"/>
      <point x="161" y="525" type="line" smooth="yes"/>
      <point x="119" y="498"/>
      <point x="78" y="465"/>
      <point x="78" y="407" type="curve" smooth="yes"/>
      <point x="78" y="375"/>
      <point x="88" y="363"/>
    </contour>
  </outline>
</glyph>
<glyph name="anusvaraVedic_gran" format="2">
  <advance width="852"/>
  <unicode hex="1135E"/>
  <anchor x="426" y="-42" name="anudatta"/>
  <anchor x="426" y="900" name="svara"/>
  <anchor x="426" y="640" name="top"/>
  <outline>
    <contour>
      <point x="822" y="485" type="curve"/>
      <point x="736" y="495" type="line"/>
      <point x="736" y="337"/>
      <point x="698" y="90"/>
      <point x="426" y="90" type="curve" smooth="yes"/>
      <point x="154" y="90"/>
      <point x="116" y="340"/>
      <point x="116" y="495" type="curve"/>
      <point x="30" y="485" type="line"/>
      <point x="30" y="282"/>
      <point x="129" y="18"/>
      <point x="426" y="18" type="curve" smooth="yes"/>
      <point x="723" y="18"/>
      <point x="822" y="257"/>
    </contour>
    <contour>
      <point x="426" y="261" type="curve" smooth="yes"/>
      <point x="508" y="261"/>
      <point x="569" y="318"/>
      <point x="569" y="400" type="curve" smooth="yes"/>
      <point x="569" y="482"/>
      <point x="508" y="539"/>
      <point x="426" y="539" type="curve" smooth="yes"/>
      <point x="344" y="539"/>
      <point x="283" y="482"/>
      <point x="283" y="400" type="curve" smooth="yes"/>
      <point x="283" y="318"/>
      <point x="344" y="261"/>
    </contour>
    <contour>
      <point x="426" y="333" type="curve" smooth="yes"/>
      <point x="388" y="333"/>
      <point x="359" y="362"/>
      <point x="359" y="400" type="curve" smooth="yes"/>
      <point x="359" y="438"/>
      <point x="388" y="467"/>
      <point x="426" y="467" type="curve" smooth="yes"/>
      <point x="464" y="467"/>
      <point x="493" y="438"/>
      <point x="493" y="400" type="curve" smooth="yes"/>
      <point x="493" y="362"/>
      <point x="464" y="333"/>
    </contour>
  </outline>
</glyph>
<glyph name="doubleAnusvaraVedic_gran" format="2">
  <advance width="1172"/>
  <unicode hex="1135F"/>
  <guideline x="586" y="566" angle="180"/>
  <anchor x="586" y="-123" name="anudatta"/>
  <anchor x="586" y="900" name="svara"/>
  <anchor x="586" y="640" name="top"/>
  <outline>
    <contour>
      <point x="1142" y="556" type="curve"/>
      <point x="1056" y="566" type="line"/>
      <point x="1056" y="386"/>
      <point x="997" y="10"/>
      <point x="586" y="10" type="curve" smooth="yes"/>
      <point x="177" y="10"/>
      <point x="116" y="386"/>
      <point x="116" y="566" type="curve"/>
      <point x="30" y="556" type="line"/>
      <point x="30" y="366"/>
      <point x="114" y="-62"/>
      <point x="586" y="-62" type="curve" smooth="yes"/>
      <point x="1058" y="-62"/>
      <point x="1142" y="366"/>
    </contour>
    <contour>
      <point x="982" y="556" type="curve"/>
      <point x="896" y="566" type="line"/>
      <point x="896" y="408"/>
      <point x="848" y="161"/>
      <point x="586" y="161" type="curve" smooth="yes"/>
      <point x="324" y="161"/>
      <point x="276" y="417"/>
      <point x="276" y="566" type="curve"/>
      <point x="190" y="556" type="line"/>
      <point x="190" y="316"/>
      <point x="299" y="89"/>
      <point x="586" y="89" type="curve" smooth="yes"/>
      <point x="873" y="89"/>
      <point x="982" y="308"/>
    </contour>
    <contour>
      <point x="586" y="311" type="curve" smooth="yes"/>
      <point x="668" y="311"/>
      <point x="729" y="368"/>
      <point x="729" y="450" type="curve" smooth="yes"/>
      <point x="729" y="532"/>
      <point x="668" y="589"/>
      <point x="586" y="589" type="curve" smooth="yes"/>
      <point x="504" y="589"/>
      <point x="443" y="532"/>
      <point x="443" y="450" type="curve" smooth="yes"/>
      <point x="443" y="368"/>
      <point x="504" y="311"/>
    </contour>
    <contour>
      <point x="586" y="383" type="curve" smooth="yes"/>
      <point x="548" y="383"/>
      <point x="519" y="412"/>
      <point x="519" y="450" type="curve" smooth="yes"/>
      <point x="519" y="488"/>
      <point x="548" y="517"/>
      <point x="586" y="517" type="curve" smooth="yes"/>
      <point x="624" y="517"/>
      <point x="653" y="488"/>
      <point x="653" y="450" type="curve" smooth="yes"/>
      <point x="653" y="412"/>
      <point x="624" y="383"/>
    </contour>
  </outline>
</glyph>
<glyph name="llVocalicMatra_gran" format="2">
  <unicode hex="11363"/>
  <guideline x="843" y="452" angle="90"/>
  <anchor x="0" y="0" name="_post"/>
  <anchor x="1650" y="0" name="anusvara"/>
  <anchor x="1650" y="0" name="post"/>
  <anchor x="1620" y="0" name="repha"/>
  <anchor x="1650" y="0" name="vattu"/>
  <outline>
    <contour>
      <point x="1494" y="230" type="curve" smooth="yes"/>
      <point x="1494" y="-143"/>
      <point x="1290" y="-380"/>
      <point x="974" y="-380" type="curve" smooth="yes"/>
      <point x="704" y="-380"/>
      <point x="581" y="-238"/>
      <point x="531" y="-73" type="curve"/>
      <point x="445" y="-73" type="line"/>
      <point x="495" y="-274"/>
      <point x="649" y="-457"/>
      <point x="974" y="-457" type="curve" smooth="yes"/>
      <point x="1358" y="-457"/>
      <point x="1580" y="-150"/>
      <point x="1580" y="233" type="curve" smooth="yes"/>
      <point x="1580" y="613"/>
      <point x="1369" y="787"/>
      <point x="1155" y="787" type="curve" smooth="yes"/>
      <point x="978" y="787"/>
      <point x="842" y="665"/>
      <point x="838" y="543" type="curve" smooth="yes"/>
      <point x="837" y="498" type="line"/>
      <point x="923" y="498" type="line"/>
      <point x="924" y="545" type="line" smooth="yes"/>
      <point x="927" y="635"/>
      <point x="1028" y="715"/>
      <point x="1156" y="715" type="curve" smooth="yes"/>
      <point x="1313" y="715"/>
      <point x="1494" y="596"/>
    </contour>
    <contour>
      <point x="594" y="348" type="curve"/>
      <point x="639" y="416" type="line"/>
      <point x="599" y="498"/>
      <point x="517" y="576"/>
      <point x="384" y="576" type="curve" smooth="yes"/>
      <point x="219" y="576"/>
      <point x="70" y="454"/>
      <point x="70" y="237" type="curve" smooth="yes"/>
      <point x="70" y="60"/>
      <point x="162" y="-12"/>
      <point x="269" y="-12" type="curve" smooth="yes"/>
      <point x="376" y="-12"/>
      <point x="446" y="54"/>
      <point x="446" y="165" type="curve" smooth="yes"/>
      <point x="446" y="265"/>
      <point x="377" y="328"/>
      <point x="281" y="328" type="curve" smooth="yes"/>
      <point x="216" y="328"/>
      <point x="153" y="295"/>
      <point x="113" y="248" type="curve"/>
      <point x="128" y="184" type="line"/>
      <point x="167" y="227"/>
      <point x="214" y="258"/>
      <point x="267" y="258" type="curve" smooth="yes"/>
      <point x="322" y="258"/>
      <point x="360" y="221"/>
      <point x="360" y="155" type="curve" smooth="yes"/>
      <point x="360" y="95"/>
      <point x="325" y="60"/>
      <point x="273" y="60" type="curve" smooth="yes"/>
      <point x="207" y="60"/>
      <point x="156" y="113"/>
      <point x="156" y="237" type="curve" smooth="yes"/>
      <point x="156" y="393"/>
      <point x="246" y="504"/>
      <point x="377" y="504" type="curve" smooth="yes"/>
      <point x="473" y="504"/>
      <point x="553" y="441"/>
    </contour>
    <contour>
      <point x="1302" y="566" type="line"/>
      <point x="586" y="566" type="line"/>
      <point x="586" y="0" type="line"/>
      <point x="672" y="0" type="line"/>
      <point x="672" y="494" type="line"/>
      <point x="1302" y="494" type="line"/>
    </contour>
    <contour>
      <point x="837" y="185" type="line" smooth="yes"/>
      <point x="837" y="105"/>
      <point x="845" y="-12"/>
      <point x="1003" y="-12" type="curve" smooth="yes"/>
      <point x="1161" y="-12"/>
      <point x="1169" y="105"/>
      <point x="1169" y="185" type="curve" smooth="yes"/>
      <point x="1169" y="502" type="line"/>
      <point x="1083" y="502" type="line"/>
      <point x="1083" y="176" type="line" smooth="yes"/>
      <point x="1083" y="110"/>
      <point x="1071" y="58"/>
      <point x="1003" y="58" type="curve" smooth="yes"/>
      <point x="935" y="58"/>
      <point x="923" y="110"/>
      <point x="923" y="176" type="curve" smooth="yes"/>
      <point x="923" y="502" type="line"/>
      <point x="837" y="502" type="line"/>
    </contour>
  </outline>
</glyph>
<glyph name="onecomb_gran" format="2">
  <unicode hex="11367"/>
  <outline>
    <contour>
      <point x="-353" y="633" type="curve" smooth="yes"/>
      <point x="-252" y="633"/>
      <point x="-211" y="677"/>
      <point x="-211" y="776" type="curve" smooth="yes"/>
      <point x="-211" y="933" type="line"/>
      <point x="-90" y="933" type="line"/>
      <point x="-90" y="981" type="line"/>
      <point x="-424" y="981" type="line"/>
      <point x="-424" y="812" type="line"/>
      <point x="-364" y="821" type="line"/>
      <point x="-364" y="933" type="line"/>
      <point x="-273" y="933" type="line"/>
      <point x="-273" y="768" type="line" smooth="yes"/>
      <point x="-273" y="701"/>
      <point x="-296" y="681"/>
      <point x="-349" y="681" type="curve" smooth="yes"/>
      <point x="-395" y="681"/>
      <point x="-417" y="696"/>
      <point x="-417" y="732" type="curve" smooth="yes"/>
      <point x="-417" y="778"/>
      <point x="-384" y="800"/>
      <point x="-315" y="800" type="curve" smooth="yes"/>
      <point x="-199" y="800" type="line" smooth="yes"/>
      <point x="-159" y="800"/>
      <point x="-106" y="788"/>
      <point x="-106" y="734" type="curve" smooth="yes"/>
      <point x="-106" y="702"/>
      <point x="-126" y="684"/>
      <point x="-154" y="684" type="curve" smooth="yes"/>
      <point x="-169" y="684"/>
      <point x="-185" y="687"/>
      <point x="-197" y="690" type="curve"/>
      <point x="-209" y="643" type="line"/>
      <point x="-190" y="638"/>
      <point x="-167" y="635"/>
      <point x="-149" y="635" type="curve" smooth="yes"/>
      <point x="-82" y="635"/>
      <point x="-44" y="670"/>
      <point x="-44" y="731" type="curve" smooth="yes"/>
      <point x="-44" y="808"/>
      <point x="-108" y="848"/>
      <point x="-203" y="848" type="curve" smooth="yes"/>
      <point x="-311" y="848" type="line" smooth="yes"/>
      <point x="-433" y="848"/>
      <point x="-479" y="796"/>
      <point x="-479" y="731" type="curve" smooth="yes"/>
      <point x="-479" y="668"/>
      <point x="-426" y="633"/>
    </contour>
  </outline>
</glyph>
<glyph name="twocomb_gran" format="2">
  <unicode hex="11368"/>
  <outline>
    <contour>
      <point x="-471" y="985" type="curve" smooth="yes"/>
      <point x="-566" y="985"/>
      <point x="-632" y="936"/>
      <point x="-632" y="862" type="curve" smooth="yes"/>
      <point x="-632" y="813"/>
      <point x="-604" y="766"/>
      <point x="-543" y="734" type="curve"/>
      <point x="-491" y="755" type="line"/>
      <point x="-540" y="778"/>
      <point x="-570" y="818"/>
      <point x="-570" y="860" type="curve" smooth="yes"/>
      <point x="-570" y="907"/>
      <point x="-532" y="937"/>
      <point x="-477" y="937" type="curve" smooth="yes"/>
      <point x="-420" y="937"/>
      <point x="-380" y="908"/>
      <point x="-380" y="860" type="curve" smooth="yes"/>
      <point x="-380" y="823"/>
      <point x="-406" y="776"/>
      <point x="-495" y="768" type="curve" smooth="yes"/>
      <point x="-541" y="764" type="line" smooth="yes"/>
      <point x="-614" y="758"/>
      <point x="-651" y="740"/>
      <point x="-651" y="696" type="curve" smooth="yes"/>
      <point x="-651" y="655"/>
      <point x="-619" y="633"/>
      <point x="-562" y="633" type="curve" smooth="yes"/>
      <point x="-187" y="633" type="line"/>
      <point x="-187" y="681" type="line"/>
      <point x="-568" y="681" type="line" smooth="yes"/>
      <point x="-583" y="681"/>
      <point x="-589" y="689"/>
      <point x="-589" y="699" type="curve" smooth="yes"/>
      <point x="-589" y="709"/>
      <point x="-583" y="717"/>
      <point x="-540" y="721" type="curve" smooth="yes"/>
      <point x="-492" y="726" type="line" smooth="yes"/>
      <point x="-387" y="737"/>
      <point x="-318" y="788"/>
      <point x="-318" y="866" type="curve" smooth="yes"/>
      <point x="-318" y="932"/>
      <point x="-366" y="985"/>
    </contour>
  </outline>
</glyph>
<glyph name="threecomb_gran" format="2">
  <unicode hex="11369"/>
  <outline>
    <contour>
      <point x="-576" y="635" type="line"/>
      <point x="-514" y="635" type="line"/>
      <point x="-514" y="933" type="line"/>
      <point x="-433" y="933" type="line"/>
      <point x="-433" y="726" type="line"/>
      <point x="-371" y="726" type="line"/>
      <point x="-371" y="782" type="line"/>
      <point x="-354" y="795"/>
      <point x="-329" y="807"/>
      <point x="-302" y="807" type="curve" smooth="yes"/>
      <point x="-272" y="807"/>
      <point x="-250" y="792"/>
      <point x="-250" y="753" type="curve" smooth="yes"/>
      <point x="-250" y="728"/>
      <point x="-259" y="701"/>
      <point x="-272" y="681" type="curve"/>
      <point x="-433" y="681" type="line"/>
      <point x="-433" y="633" type="line"/>
      <point x="-48" y="633" type="line"/>
      <point x="-48" y="681" type="line"/>
      <point x="-210" y="681" type="line"/>
      <point x="-197" y="703"/>
      <point x="-188" y="732"/>
      <point x="-188" y="761" type="curve" smooth="yes"/>
      <point x="-188" y="821"/>
      <point x="-224" y="857"/>
      <point x="-291" y="857" type="curve" smooth="yes"/>
      <point x="-330" y="857"/>
      <point x="-355" y="844"/>
      <point x="-371" y="834" type="curve"/>
      <point x="-371" y="933" type="line"/>
      <point x="-257" y="933" type="line"/>
      <point x="-257" y="981" type="line"/>
      <point x="-576" y="981" type="line"/>
    </contour>
  </outline>
</glyph>
<glyph name="fourcomb_gran" format="2">
  <unicode hex="1136A"/>
  <outline>
    <contour>
      <point x="-398" y="803" type="curve" smooth="yes"/>
      <point x="-48" y="803" type="line"/>
      <point x="-48" y="981" type="line"/>
      <point x="-110" y="981" type="line"/>
      <point x="-110" y="851" type="line"/>
      <point x="-399" y="851" type="line" smooth="yes"/>
      <point x="-511" y="851"/>
      <point x="-553" y="797"/>
      <point x="-553" y="736" type="curve" smooth="yes"/>
      <point x="-553" y="679"/>
      <point x="-509" y="633"/>
      <point x="-424" y="633" type="curve" smooth="yes"/>
      <point x="-329" y="633"/>
      <point x="-267" y="690"/>
      <point x="-267" y="769" type="curve" smooth="yes"/>
      <point x="-267" y="933" type="line"/>
      <point x="-184" y="933" type="line"/>
      <point x="-184" y="981" type="line"/>
      <point x="-491" y="981" type="line"/>
      <point x="-491" y="812" type="line"/>
      <point x="-429" y="821" type="line"/>
      <point x="-429" y="933" type="line"/>
      <point x="-329" y="933" type="line"/>
      <point x="-329" y="751" type="line" smooth="yes"/>
      <point x="-329" y="717"/>
      <point x="-371" y="687"/>
      <point x="-424" y="687" type="curve" smooth="yes"/>
      <point x="-470" y="687"/>
      <point x="-491" y="712"/>
      <point x="-491" y="739" type="curve" smooth="yes"/>
      <point x="-491" y="774"/>
      <point x="-457" y="803"/>
    </contour>
  </outline>
</glyph>
<glyph name="fivecomb_gran" format="2">
  <unicode hex="1136B"/>
  <outline>
    <contour>
      <point x="-345" y="498" type="curve" smooth="yes"/>
      <point x="-338" y="498" type="line" smooth="yes"/>
      <point x="-203" y="498"/>
      <point x="-74" y="582"/>
      <point x="-74" y="712" type="curve" smooth="yes"/>
      <point x="-74" y="788"/>
      <point x="-123" y="844"/>
      <point x="-188" y="844" type="curve" smooth="yes"/>
      <point x="-217" y="844"/>
      <point x="-240" y="834"/>
      <point x="-255" y="823" type="curve"/>
      <point x="-255" y="776" type="line"/>
      <point x="-239" y="786"/>
      <point x="-219" y="797"/>
      <point x="-196" y="797" type="curve" smooth="yes"/>
      <point x="-155" y="797"/>
      <point x="-136" y="763"/>
      <point x="-136" y="710" type="curve" smooth="yes"/>
      <point x="-136" y="606"/>
      <point x="-216" y="546"/>
      <point x="-338" y="546" type="curve" smooth="yes"/>
      <point x="-345" y="546" type="line" smooth="yes"/>
      <point x="-514" y="546"/>
      <point x="-578" y="664"/>
      <point x="-578" y="795" type="curve" smooth="yes"/>
      <point x="-578" y="803" type="line" smooth="yes"/>
      <point x="-578" y="1007"/>
      <point x="-471" y="1087"/>
      <point x="-330" y="1087" type="curve" smooth="yes"/>
      <point x="-235" y="1087"/>
      <point x="-169" y="1047"/>
      <point x="-127" y="1008" type="curve"/>
      <point x="-99" y="1053" type="line"/>
      <point x="-156" y="1103"/>
      <point x="-224" y="1135"/>
      <point x="-328" y="1135" type="curve" smooth="yes"/>
      <point x="-556" y="1135"/>
      <point x="-640" y="963"/>
      <point x="-640" y="816" type="curve" smooth="yes"/>
      <point x="-640" y="788" type="line" smooth="yes"/>
      <point x="-640" y="645"/>
      <point x="-550" y="498"/>
    </contour>
    <contour>
      <point x="-463" y="649" type="line"/>
      <point x="-401" y="649" type="line"/>
      <point x="-401" y="933" type="line"/>
      <point x="-317" y="933" type="line"/>
      <point x="-317" y="649" type="line"/>
      <point x="-255" y="649" type="line"/>
      <point x="-255" y="933" type="line"/>
      <point x="-150" y="933" type="line"/>
      <point x="-150" y="981" type="line"/>
      <point x="-463" y="981" type="line"/>
    </contour>
  </outline>
</glyph>
<glyph name="sixcomb_gran" format="2">
  <unicode hex="1136C"/>
  <outline>
    <contour>
      <point x="-475" y="633" type="curve" smooth="yes"/>
      <point x="-368" y="633"/>
      <point x="-330" y="707"/>
      <point x="-330" y="776" type="curve" smooth="yes"/>
      <point x="-330" y="933" type="line"/>
      <point x="-212" y="933" type="line"/>
      <point x="-212" y="981" type="line"/>
      <point x="-541" y="981" type="line"/>
      <point x="-541" y="812" type="line"/>
      <point x="-479" y="812" type="line"/>
      <point x="-479" y="933" type="line"/>
      <point x="-392" y="933" type="line"/>
      <point x="-392" y="768" type="line" smooth="yes"/>
      <point x="-392" y="719"/>
      <point x="-418" y="681"/>
      <point x="-471" y="681" type="curve" smooth="yes"/>
      <point x="-517" y="681"/>
      <point x="-541" y="709"/>
      <point x="-541" y="739" type="curve" smooth="yes"/>
      <point x="-541" y="776"/>
      <point x="-506" y="803"/>
      <point x="-437" y="803" type="curve" smooth="yes"/>
      <point x="-41" y="803" type="line"/>
      <point x="-41" y="851" type="line"/>
      <point x="-443" y="851" type="line" smooth="yes"/>
      <point x="-545" y="851"/>
      <point x="-603" y="799"/>
      <point x="-603" y="734" type="curve" smooth="yes"/>
      <point x="-603" y="672"/>
      <point x="-551" y="633"/>
    </contour>
    <contour>
      <point x="-268" y="637" type="line"/>
      <point x="-206" y="637" type="line"/>
      <point x="-206" y="806" type="line"/>
      <point x="-268" y="806" type="line"/>
    </contour>
    <contour>
      <point x="-138" y="637" type="line"/>
      <point x="-76" y="637" type="line"/>
      <point x="-76" y="806" type="line"/>
      <point x="-138" y="806" type="line"/>
    </contour>
  </outline>
</glyph>
<glyph name="acomb_gran" format="2">
  <unicode hex="11370"/>
  <guideline x="-145" y="750" angle="0"/>
  <anchor x="-301" y="590" name="_svara"/>
  <anchor x="-620" y="807" name="_svara_mkmk"/>
  <anchor x="28" y="807" name="svara_mkmk"/>
  <outline>
    <contour>
      <point x="-42" y="803" type="line"/>
      <point x="-42" y="851" type="line"/>
      <point x="-410" y="851" type="line" smooth="yes"/>
      <point x="-512" y="851"/>
      <point x="-560" y="792"/>
      <point x="-560" y="733" type="curve" smooth="yes"/>
      <point x="-560" y="674"/>
      <point x="-512" y="633"/>
      <point x="-437" y="633" type="curve" smooth="yes"/>
      <point x="-346" y="633"/>
      <point x="-294" y="676"/>
      <point x="-294" y="776" type="curve" smooth="yes"/>
      <point x="-294" y="933" type="line"/>
      <point x="-214" y="933" type="line"/>
      <point x="-214" y="981" type="line"/>
      <point x="-508" y="981" type="line"/>
      <point x="-508" y="812" type="line"/>
      <point x="-446" y="821" type="line"/>
      <point x="-446" y="933" type="line"/>
      <point x="-356" y="933" type="line"/>
      <point x="-356" y="768" type="line" smooth="yes"/>
      <point x="-356" y="701"/>
      <point x="-386" y="681"/>
      <point x="-431" y="681" type="curve" smooth="yes"/>
      <point x="-474" y="681"/>
      <point x="-498" y="704"/>
      <point x="-498" y="739" type="curve" smooth="yes"/>
      <point x="-498" y="775"/>
      <point x="-474" y="803"/>
      <point x="-426" y="803" type="curve" smooth="yes"/>
    </contour>
    <contour>
      <point x="-251" y="739" type="line" smooth="yes"/>
      <point x="-251" y="691"/>
      <point x="-223" y="633"/>
      <point x="-145" y="633" type="curve" smooth="yes"/>
      <point x="-65" y="633"/>
      <point x="-32" y="691"/>
      <point x="-32" y="739" type="curve" smooth="yes"/>
      <point x="-32" y="932" type="line"/>
      <point x="-94" y="932" type="line"/>
      <point x="-94" y="734" type="line" smooth="yes"/>
      <point x="-94" y="706"/>
      <point x="-117" y="681"/>
      <point x="-145" y="681" type="curve" smooth="yes"/>
      <point x="-173" y="681"/>
      <point x="-189" y="706"/>
      <point x="-189" y="734" type="curve" smooth="yes"/>
      <point x="-189" y="818" type="line"/>
      <point x="-251" y="818" type="line"/>
    </contour>
  </outline>
</glyph>
<glyph name="kacomb_gran" format="2">
  <unicode hex="11371"/>
  <outline>
    <contour>
      <point x="-611" y="736" type="curve" smooth="yes"/>
      <point x="-611" y="784"/>
      <point x="-570" y="807"/>
      <point x="-508" y="807" type="curve" smooth="yes"/>
      <point x="-281" y="807" type="line" smooth="yes"/>
      <point x="-189" y="807"/>
      <point x="-119" y="808"/>
      <point x="-119" y="740" type="curve" smooth="yes"/>
      <point x="-119" y="700"/>
      <point x="-144" y="681"/>
      <point x="-168" y="681" type="curve" smooth="yes"/>
      <point x="-196" y="681"/>
      <point x="-216" y="705"/>
      <point x="-216" y="735" type="curve" smooth="yes"/>
      <point x="-216" y="770"/>
      <point x="-189" y="804"/>
      <point x="-147" y="816" type="curve"/>
      <point x="-197" y="838" type="line"/>
      <point x="-248" y="820"/>
      <point x="-273" y="773"/>
      <point x="-273" y="729" type="curve" smooth="yes"/>
      <point x="-273" y="671"/>
      <point x="-229" y="633"/>
      <point x="-172" y="633" type="curve" smooth="yes"/>
      <point x="-116" y="633"/>
      <point x="-57" y="668"/>
      <point x="-57" y="746" type="curve" smooth="yes"/>
      <point x="-57" y="837"/>
      <point x="-144" y="855"/>
      <point x="-253" y="855" type="curve" smooth="yes"/>
      <point x="-525" y="855" type="line" smooth="yes"/>
      <point x="-599" y="855"/>
      <point x="-673" y="810"/>
      <point x="-673" y="735" type="curve" smooth="yes"/>
      <point x="-673" y="674"/>
      <point x="-636" y="633"/>
      <point x="-576" y="633" type="curve" smooth="yes"/>
      <point x="-528" y="633"/>
      <point x="-494" y="657"/>
      <point x="-480" y="697" type="curve"/>
      <point x="-493" y="697" type="line"/>
      <point x="-477" y="649"/>
      <point x="-450" y="633"/>
      <point x="-411" y="633" type="curve" smooth="yes"/>
      <point x="-345" y="633"/>
      <point x="-313" y="689"/>
      <point x="-313" y="768" type="curve" smooth="yes"/>
      <point x="-313" y="933" type="line"/>
      <point x="-201" y="933" type="line"/>
      <point x="-201" y="981" type="line"/>
      <point x="-566" y="981" type="line"/>
      <point x="-566" y="846" type="line"/>
      <point x="-504" y="846" type="line"/>
      <point x="-504" y="933" type="line"/>
      <point x="-375" y="933" type="line"/>
      <point x="-375" y="759" type="line" smooth="yes"/>
      <point x="-375" y="710"/>
      <point x="-382" y="681"/>
      <point x="-415" y="681" type="curve" smooth="yes"/>
      <point x="-453" y="681"/>
      <point x="-460" y="722"/>
      <point x="-460" y="749" type="curve" smooth="yes"/>
      <point x="-460" y="752" type="line"/>
      <point x="-512" y="752" type="line"/>
      <point x="-512" y="749" type="line" smooth="yes"/>
      <point x="-512" y="714"/>
      <point x="-530" y="681"/>
      <point x="-565" y="681" type="curve" smooth="yes"/>
      <point x="-594" y="681"/>
      <point x="-611" y="705"/>
    </contour>
  </outline>
</glyph>
<glyph name="nacomb_gran" format="2">
  <unicode hex="11372"/>
  <outline>
    <contour>
      <point x="-481" y="612" type="line"/>
      <point x="-481" y="564" type="line"/>
      <point x="-295" y="564" type="line" smooth="yes"/>
      <point x="-151" y="564"/>
      <point x="-51" y="608"/>
      <point x="-51" y="724" type="curve" smooth="yes"/>
      <point x="-51" y="807"/>
      <point x="-102" y="847"/>
      <point x="-171" y="847" type="curve" smooth="yes"/>
      <point x="-208" y="847"/>
      <point x="-236" y="836"/>
      <point x="-257" y="823" type="curve"/>
      <point x="-255" y="773" type="line"/>
      <point x="-238" y="787"/>
      <point x="-215" y="798"/>
      <point x="-187" y="798" type="curve" smooth="yes"/>
      <point x="-146" y="798"/>
      <point x="-113" y="775"/>
      <point x="-113" y="721" type="curve" smooth="yes"/>
      <point x="-113" y="641"/>
      <point x="-186" y="612"/>
      <point x="-310" y="612" type="curve" smooth="yes"/>
    </contour>
    <contour>
      <point x="-481" y="660" type="line"/>
      <point x="-419" y="660" type="line"/>
      <point x="-419" y="932" type="line"/>
      <point x="-315" y="932" type="line"/>
      <point x="-315" y="660" type="line"/>
      <point x="-253" y="660" type="line"/>
      <point x="-253" y="932" type="line"/>
      <point x="-148" y="932" type="line"/>
      <point x="-148" y="980" type="line"/>
      <point x="-481" y="980" type="line"/>
    </contour>
  </outline>
</glyph>
<glyph name="vicomb_gran" format="2">
  <unicode hex="11373"/>
  <outline>
    <contour>
      <point x="-292" y="903" type="curve"/>
      <point x="-292" y="681" type="line"/>
      <point x="-439" y="681" type="line"/>
      <point x="-422" y="709"/>
      <point x="-410" y="760"/>
      <point x="-410" y="803" type="curve" smooth="yes"/>
      <point x="-410" y="904"/>
      <point x="-477" y="983"/>
      <point x="-593" y="983" type="curve" smooth="yes"/>
      <point x="-708" y="983"/>
      <point x="-790" y="907"/>
      <point x="-790" y="779" type="curve" smooth="yes"/>
      <point x="-790" y="671"/>
      <point x="-735" y="626"/>
      <point x="-661" y="626" type="curve" smooth="yes"/>
      <point x="-596" y="626"/>
      <point x="-546" y="665"/>
      <point x="-546" y="732" type="curve" smooth="yes"/>
      <point x="-546" y="792"/>
      <point x="-596" y="830"/>
      <point x="-653" y="830" type="curve" smooth="yes"/>
      <point x="-692" y="830"/>
      <point x="-730" y="810"/>
      <point x="-754" y="782" type="curve"/>
      <point x="-745" y="737" type="line"/>
      <point x="-722" y="763"/>
      <point x="-694" y="782"/>
      <point x="-662" y="782" type="curve" smooth="yes"/>
      <point x="-629" y="782"/>
      <point x="-606" y="760"/>
      <point x="-606" y="726" type="curve" smooth="yes"/>
      <point x="-606" y="695"/>
      <point x="-627" y="674"/>
      <point x="-659" y="674" type="curve" smooth="yes"/>
      <point x="-698" y="674"/>
      <point x="-728" y="702"/>
      <point x="-728" y="775" type="curve" smooth="yes"/>
      <point x="-728" y="863"/>
      <point x="-678" y="935"/>
      <point x="-594" y="935" type="curve" smooth="yes"/>
      <point x="-520" y="935"/>
      <point x="-472" y="880"/>
      <point x="-472" y="792" type="curve" smooth="yes"/>
      <point x="-472" y="740"/>
      <point x="-485" y="702"/>
      <point x="-503" y="671" type="curve"/>
      <point x="-501" y="633" type="line"/>
      <point x="-230" y="633" type="line"/>
      <point x="-230" y="923" type="line"/>
      <point x="-258" y="940"/>
      <point x="-297" y="972"/>
      <point x="-297" y="1016" type="curve" smooth="yes"/>
      <point x="-297" y="1055"/>
      <point x="-266" y="1086"/>
      <point x="-206" y="1086" type="curve" smooth="yes"/>
      <point x="-118" y="1086"/>
      <point x="-102" y="1012"/>
      <point x="-102" y="956" type="curve" smooth="yes"/>
      <point x="-102" y="633" type="line"/>
      <point x="-40" y="633" type="line"/>
      <point x="-40" y="955" type="line" smooth="yes"/>
      <point x="-40" y="1053"/>
      <point x="-92" y="1134"/>
      <point x="-208" y="1134" type="curve" smooth="yes"/>
      <point x="-290" y="1134"/>
      <point x="-359" y="1087"/>
      <point x="-359" y="1013" type="curve" smooth="yes"/>
      <point x="-359" y="972"/>
      <point x="-337" y="927"/>
    </contour>
  </outline>
</glyph>
<glyph name="pacomb_gran" format="2">
  <unicode hex="11374"/>
  <anchor x="-236" y="590" name="_svara"/>
  <anchor x="-457" y="807" name="_svara_mkmk"/>
  <anchor x="-16" y="807" name="svara_mkmk"/>
  <outline>
    <contour>
      <point x="-397" y="633" type="line"/>
      <point x="-77" y="633" type="line"/>
      <point x="-77" y="972" type="line"/>
      <point x="-139" y="972" type="line"/>
      <point x="-139" y="681" type="line"/>
      <point x="-335" y="681" type="line"/>
      <point x="-335" y="972" type="line"/>
      <point x="-397" y="972" type="line"/>
    </contour>
  </outline>
</glyph>
<glyph name="_part.ca-cha" format="2">
  <advance width="1038"/>
  <outline>
    <contour>
      <point x="271" y="71" type="curve"/>
      <point x="271" y="1" type="line"/>
      <point x="515" y="18"/>
      <point x="640" y="173"/>
      <point x="640" y="329" type="curve" smooth="yes"/>
      <point x="640" y="447"/>
      <point x="550" y="576"/>
      <point x="336" y="576" type="curve" smooth="yes"/>
      <point x="195" y="576"/>
      <point x="88" y="515"/>
      <point x="88" y="401" type="curve" smooth="yes"/>
      <point x="88" y="308"/>
      <point x="155" y="250"/>
      <point x="253" y="250" type="curve" smooth="yes"/>
      <point x="358" y="250"/>
      <point x="422" y="324"/>
      <point x="422" y="409" type="curve" smooth="yes"/>
      <point x="422" y="470"/>
      <point x="391" y="508"/>
      <point x="356" y="537" type="curve"/>
      <point x="296" y="520" type="line"/>
      <point x="330" y="488"/>
      <point x="343" y="450"/>
      <point x="343" y="412" type="curve" smooth="yes"/>
      <point x="343" y="354"/>
      <point x="312" y="322"/>
      <point x="259" y="322" type="curve" smooth="yes"/>
      <point x="202" y="322"/>
      <point x="174" y="359"/>
      <point x="174" y="409" type="curve" smooth="yes"/>
      <point x="174" y="475"/>
      <point x="229" y="507"/>
      <point x="331" y="507" type="curve" smooth="yes"/>
      <point x="447" y="507"/>
      <point x="554" y="468"/>
      <point x="554" y="325" type="curve" smooth="yes"/>
      <point x="554" y="254"/>
      <point x="523" y="88"/>
    </contour>
  </outline>
</glyph>
<glyph name="_part.iMatra" format="2">
  <advance width="262"/>
  <outline>
    <contour>
      <point x="-59" y="843" type="curve" smooth="yes"/>
      <point x="-197" y="843"/>
      <point x="-286" y="769"/>
      <point x="-286" y="636" type="curve" smooth="yes"/>
      <point x="-286" y="584"/>
      <point x="-271" y="540"/>
      <point x="-243" y="505" type="curve"/>
      <point x="-152" y="505" type="line"/>
      <point x="-185" y="544"/>
      <point x="-201" y="589"/>
      <point x="-201" y="638" type="curve" smooth="yes"/>
      <point x="-201" y="708"/>
      <point x="-168" y="771"/>
      <point x="-60" y="771" type="curve" smooth="yes"/>
      <point x="58" y="771"/>
      <point x="88" y="693"/>
      <point x="88" y="591" type="curve" smooth="yes"/>
      <point x="88" y="0" type="line"/>
      <point x="174" y="0" type="line"/>
      <point x="174" y="590" type="line" smooth="yes"/>
      <point x="174" y="753"/>
      <point x="113" y="843"/>
    </contour>
  </outline>
</glyph>
<glyph name="_part.ii_straight" format="2">
  <advance width="616"/>
  <outline>
    <contour>
      <point x="259" y="103" type="curve" smooth="yes"/>
      <point x="259" y="0" type="line"/>
      <point x="345" y="0" type="line"/>
      <point x="345" y="95" type="line" smooth="yes"/>
      <point x="345" y="290"/>
      <point x="263" y="433"/>
      <point x="263" y="570" type="curve" smooth="yes"/>
      <point x="263" y="699"/>
      <point x="342" y="780"/>
      <point x="456" y="780" type="curve" smooth="yes"/>
      <point x="515" y="780"/>
      <point x="556" y="760"/>
      <point x="556" y="713" type="curve" smooth="yes"/>
      <point x="556" y="679"/>
      <point x="534" y="656"/>
      <point x="495" y="656" type="curve" smooth="yes"/>
      <point x="459" y="656"/>
      <point x="433" y="674"/>
      <point x="433" y="719" type="curve" smooth="yes"/>
      <point x="433" y="744"/>
      <point x="442" y="771"/>
      <point x="464" y="796" type="curve"/>
      <point x="413" y="818" type="line"/>
      <point x="377" y="781"/>
      <point x="367" y="736"/>
      <point x="367" y="705" type="curve" smooth="yes"/>
      <point x="367" y="636"/>
      <point x="417" y="594"/>
      <point x="495" y="594" type="curve" smooth="yes"/>
      <point x="568" y="594"/>
      <point x="626" y="638"/>
      <point x="626" y="717" type="curve" smooth="yes"/>
      <point x="626" y="796"/>
      <point x="565" y="843"/>
      <point x="450" y="843" type="curve" smooth="yes"/>
      <point x="266" y="843"/>
      <point x="177" y="713"/>
      <point x="177" y="560" type="curve" smooth="yes"/>
      <point x="177" y="402"/>
      <point x="259" y="263"/>
    </contour>
  </outline>
</glyph>
<glyph name="_part.ravattu" format="2">
  <advance width="347"/>
  <guideline x="-348" y="-503" angle="0"/>
  <outline>
    <contour>
      <point x="307" y="316" type="line"/>
      <point x="307" y="388" type="line"/>
      <point x="-83" y="388" type="line"/>
      <point x="-83" y="316" type="line"/>
    </contour>
    <contour>
      <point x="-531" y="-261" type="curve"/>
      <point x="-617" y="-261" type="line"/>
      <point x="-571" y="-392"/>
      <point x="-467" y="-503"/>
      <point x="-243" y="-503" type="curve" smooth="yes"/>
      <point x="-15" y="-503"/>
      <point x="186" y="-385"/>
      <point x="186" y="-145" type="curve" smooth="yes"/>
      <point x="186" y="335" type="line"/>
      <point x="100" y="335" type="line"/>
      <point x="100" y="-165" type="line" smooth="yes"/>
      <point x="100" y="-308"/>
      <point x="-23" y="-431"/>
      <point x="-242" y="-431" type="curve" smooth="yes"/>
      <point x="-371" y="-431"/>
      <point x="-474" y="-387"/>
    </contour>
  </outline>
</glyph>
<glyph name="_part.viramalig_loop" format="2">
  <advance width="734"/>
  <outline>
    <contour>
      <point x="41" y="72" type="line"/>
      <point x="41" y="0" type="line"/>
      <point x="428" y="0" type="line" smooth="yes"/>
      <point x="561" y="0"/>
      <point x="629" y="-37"/>
      <point x="629" y="-107" type="curve" smooth="yes"/>
      <point x="629" y="-165"/>
      <point x="583" y="-196"/>
      <point x="537" y="-196" type="curve" smooth="yes"/>
      <point x="493" y="-196"/>
      <point x="456" y="-167"/>
      <point x="456" y="-90" type="curve" smooth="yes"/>
      <point x="456" y="38"/>
      <point x="595" y="167"/>
      <point x="595" y="380" type="curve" smooth="yes"/>
      <point x="595" y="468"/>
      <point x="572" y="579"/>
      <point x="510" y="683" type="curve"/>
      <point x="432" y="650" type="line"/>
      <point x="504" y="540"/>
      <point x="513" y="432"/>
      <point x="513" y="382" type="curve" smooth="yes"/>
      <point x="513" y="183"/>
      <point x="370" y="48"/>
      <point x="370" y="-93" type="curve" smooth="yes"/>
      <point x="370" y="-200"/>
      <point x="440" y="-268"/>
      <point x="542" y="-268" type="curve" smooth="yes"/>
      <point x="628" y="-268"/>
      <point x="715" y="-221"/>
      <point x="715" y="-103" type="curve" smooth="yes"/>
      <point x="715" y="4"/>
      <point x="633" y="72"/>
      <point x="451" y="72" type="curve" smooth="yes"/>
    </contour>
  </outline>
</glyph>
<glyph name="anudatta_deva.alt" format="2">
  <anchor x="-249" y="-40" name="_anudatta"/>
  <outline>
    <contour>
      <point x="-413" y="-77" type="line"/>
      <point x="-413" y="-149" type="line"/>
      <point x="-84" y="-149" type="line"/>
      <point x="-84" y="-77" type="line"/>
    </contour>
  </outline>
</glyph>
<glyph name="avagraha_gran.alt" format="2">
  <advance width="620"/>
  <outline>
    <contour>
      <point x="550" y="0" type="line"/>
      <point x="550" y="72" type="line"/>
      <point x="181" y="72" type="line"/>
      <point x="539" y="494" type="line"/>
      <point x="539" y="566" type="line"/>
      <point x="70" y="566" type="line"/>
      <point x="70" y="494" type="line"/>
      <point x="437" y="494" type="line"/>
      <point x="78" y="72" type="line"/>
      <point x="78" y="0" type="line"/>
    </contour>
  </outline>
</glyph>
<glyph name="ba.base" format="2">
  <advance width="1564"/>
  <outline>
    <contour>
      <point x="583" y="0" type="line"/>
      <point x="669" y="0" type="line"/>
      <point x="669" y="280" type="line" smooth="yes"/>
      <point x="669" y="439"/>
      <point x="579" y="576"/>
      <point x="384" y="576" type="curve" smooth="yes"/>
      <point x="211" y="576"/>
      <point x="70" y="457"/>
      <point x="70" y="243" type="curve" smooth="yes"/>
      <point x="70" y="63"/>
      <point x="162" y="-12"/>
      <point x="269" y="-12" type="curve" smooth="yes"/>
      <point x="376" y="-12"/>
      <point x="446" y="54"/>
      <point x="446" y="165" type="curve" smooth="yes"/>
      <point x="446" y="265"/>
      <point x="377" y="328"/>
      <point x="281" y="328" type="curve" smooth="yes"/>
      <point x="216" y="328"/>
      <point x="153" y="295"/>
      <point x="113" y="248" type="curve"/>
      <point x="128" y="184" type="line"/>
      <point x="167" y="227"/>
      <point x="214" y="258"/>
      <point x="267" y="258" type="curve" smooth="yes"/>
      <point x="322" y="258"/>
      <point x="360" y="221"/>
      <point x="360" y="155" type="curve" smooth="yes"/>
      <point x="360" y="91"/>
      <point x="325" y="60"/>
      <point x="273" y="60" type="curve" smooth="yes"/>
      <point x="207" y="60"/>
      <point x="156" y="103"/>
      <point x="156" y="237" type="curve" smooth="yes"/>
      <point x="156" y="383"/>
      <point x="240" y="504"/>
      <point x="380" y="504" type="curve" smooth="yes"/>
      <point x="504" y="504"/>
      <point x="583" y="411"/>
      <point x="583" y="269" type="curve" smooth="yes"/>
    </contour>
    <contour>
      <point x="593" y="313" type="curve"/>
      <point x="665" y="258" type="line"/>
      <point x="677" y="387"/>
      <point x="759" y="502"/>
      <point x="888" y="502" type="curve" smooth="yes"/>
      <point x="1012" y="502"/>
      <point x="1093" y="404"/>
      <point x="1093" y="262" type="curve" smooth="yes"/>
      <point x="1093" y="171"/>
      <point x="1070" y="109"/>
      <point x="1039" y="63" type="curve"/>
      <point x="1043" y="0" type="line"/>
      <point x="1484" y="0" type="line"/>
      <point x="1484" y="72" type="line"/>
      <point x="1131" y="72" type="line"/>
      <point x="1158" y="131"/>
      <point x="1179" y="182"/>
      <point x="1179" y="268" type="curve" smooth="yes"/>
      <point x="1179" y="425"/>
      <point x="1095" y="576"/>
      <point x="892" y="576" type="curve" smooth="yes"/>
      <point x="750" y="576"/>
      <point x="624" y="473"/>
    </contour>
  </outline>
</glyph>
